<?xml version="1.0" encoding="us-ascii" standalone="no"?><svg xmlns="http://www.w3.org/2000/svg" xmlns:xlink="http://www.w3.org/1999/xlink" contentStyleType="text/css" height="1257px" preserveAspectRatio="none" style="width:981px;height:1257px;background:#FFFFFF;" version="1.1" viewBox="0 0 981 1257" width="981px" zoomAndPan="magnify"><defs/><g><!--class Account--><g id="elem_Account"><rect codeLine="1" fill="#F1F1F1" height="162.0781" id="Account" rx="2.5" ry="2.5" style="stroke:#181818;stroke-width:0.5;" width="195" x="198.5" y="7"/><ellipse cx="262.25" cy="23" fill="#ADD1B2" rx="11" ry="11" style="stroke:#181818;stroke-width:1.0;"/><path d="M264.5938,18.6719 C263.6563,18.2344 263.0625,18.0938 262.1875,18.0938 C259.5625,18.0938 257.5625,20.1719 257.5625,22.8906 L257.5625,24.0156 C257.5625,26.5938 259.6719,28.4844 262.5625,28.4844 C263.7813,28.4844 264.9375,28.1875 265.6875,27.6406 C266.2656,27.2344 266.5938,26.7813 266.5938,26.3906 C266.5938,25.9375 266.2031,25.5469 265.7344,25.5469 C265.5156,25.5469 265.3125,25.625 265.125,25.8125 C264.6719,26.2969 264.6719,26.2969 264.4844,26.3906 C264.0625,26.6563 263.375,26.7813 262.6094,26.7813 C260.5625,26.7813 259.2656,25.6875 259.2656,23.9844 L259.2656,22.8906 C259.2656,21.1094 260.5156,19.7969 262.25,19.7969 C262.8281,19.7969 263.4375,19.9531 263.9063,20.2031 C264.3906,20.4844 264.5625,20.7031 264.6563,21.1094 C264.7188,21.5156 264.75,21.6406 264.8906,21.7656 C265.0313,21.9063 265.2656,22.0156 265.4844,22.0156 C265.75,22.0156 266.0156,21.875 266.1875,21.6563 C266.2969,21.5 266.3281,21.3125 266.3281,20.8906 L266.3281,19.4688 C266.3281,19.0313 266.3125,18.9063 266.2188,18.75 C266.0625,18.4844 265.7813,18.3438 265.4844,18.3438 C265.1875,18.3438 264.9844,18.4375 264.7656,18.75 L264.5938,18.6719 Z " fill="#000000"/><text fill="#000000" font-family="sans-serif" font-size="14" lengthAdjust="spacing" textLength="59" x="282.75" y="27.8467">Account</text><line style="stroke:#181818;stroke-width:0.5;" x1="199.5" x2="392.5" y1="39" y2="39"/><rect fill="none" height="6" style="stroke:#C82930;stroke-width:1.0;" width="6" x="206.5" y="49.6484"/><text fill="#000000" font-family="sans-serif" font-size="14" lengthAdjust="spacing" textLength="127" x="218.5" y="55.9951">AccountID: String</text><rect fill="none" height="6" style="stroke:#C82930;stroke-width:1.0;" width="6" x="206.5" y="65.9453"/><text fill="#000000" font-family="sans-serif" font-size="14" lengthAdjust="spacing" textLength="124" x="218.5" y="72.292">Username: String</text><rect fill="none" height="6" style="stroke:#C82930;stroke-width:1.0;" width="6" x="206.5" y="82.2422"/><text fill="#000000" font-family="sans-serif" font-size="14" lengthAdjust="spacing" textLength="119" x="218.5" y="88.5889">Password: String</text><line style="stroke:#181818;stroke-width:0.5;" x1="199.5" x2="392.5" y1="95.8906" y2="95.8906"/><ellipse cx="209.5" cy="109.5391" fill="#84BE84" rx="3" ry="3" style="stroke:#038048;stroke-width:1.0;"/><text fill="#000000" font-family="sans-serif" font-size="14" lengthAdjust="spacing" textLength="88" x="218.5" y="112.8857">Login(): void</text><ellipse cx="209.5" cy="125.8359" fill="#84BE84" rx="3" ry="3" style="stroke:#038048;stroke-width:1.0;"/><text fill="#000000" font-family="sans-serif" font-size="14" lengthAdjust="spacing" textLength="99" x="218.5" y="129.1826">Logout(): void</text><ellipse cx="209.5" cy="142.1328" fill="#84BE84" rx="3" ry="3" style="stroke:#038048;stroke-width:1.0;"/><text fill="#000000" font-family="sans-serif" font-size="14" lengthAdjust="spacing" textLength="163" x="218.5" y="145.4795">ForgotPassword(): void</text><ellipse cx="209.5" cy="158.4297" fill="#84BE84" rx="3" ry="3" style="stroke:#038048;stroke-width:1.0;"/><text fill="#000000" font-family="sans-serif" font-size="14" lengthAdjust="spacing" textLength="169" x="218.5" y="161.7764">ChangePassword(): void</text></g><!--class User--><g id="elem_User"><rect codeLine="10" fill="#F1F1F1" height="194.6719" id="User" rx="2.5" ry="2.5" style="stroke:#181818;stroke-width:0.5;" width="231" x="285.5" y="246"/><ellipse cx="381.25" cy="262" fill="#ADD1B2" rx="11" ry="11" style="stroke:#181818;stroke-width:1.0;"/><path d="M383.5938,257.6719 C382.6563,257.2344 382.0625,257.0938 381.1875,257.0938 C378.5625,257.0938 376.5625,259.1719 376.5625,261.8906 L376.5625,263.0156 C376.5625,265.5938 378.6719,267.4844 381.5625,267.4844 C382.7813,267.4844 383.9375,267.1875 384.6875,266.6406 C385.2656,266.2344 385.5938,265.7813 385.5938,265.3906 C385.5938,264.9375 385.2031,264.5469 384.7344,264.5469 C384.5156,264.5469 384.3125,264.625 384.125,264.8125 C383.6719,265.2969 383.6719,265.2969 383.4844,265.3906 C383.0625,265.6563 382.375,265.7813 381.6094,265.7813 C379.5625,265.7813 378.2656,264.6875 378.2656,262.9844 L378.2656,261.8906 C378.2656,260.1094 379.5156,258.7969 381.25,258.7969 C381.8281,258.7969 382.4375,258.9531 382.9063,259.2031 C383.3906,259.4844 383.5625,259.7031 383.6563,260.1094 C383.7188,260.5156 383.75,260.6406 383.8906,260.7656 C384.0313,260.9063 384.2656,261.0156 384.4844,261.0156 C384.75,261.0156 385.0156,260.875 385.1875,260.6563 C385.2969,260.5 385.3281,260.3125 385.3281,259.8906 L385.3281,258.4688 C385.3281,258.0313 385.3125,257.9063 385.2188,257.75 C385.0625,257.4844 384.7813,257.3438 384.4844,257.3438 C384.1875,257.3438 383.9844,257.4375 383.7656,257.75 L383.5938,257.6719 Z " fill="#000000"/><text fill="#000000" font-family="sans-serif" font-size="14" lengthAdjust="spacing" textLength="31" x="401.75" y="266.8467">User</text><line style="stroke:#181818;stroke-width:0.5;" x1="286.5" x2="515.5" y1="278" y2="278"/><rect fill="none" height="6" style="stroke:#C82930;stroke-width:1.0;" width="6" x="293.5" y="288.6484"/><text fill="#000000" font-family="sans-serif" font-size="14" lengthAdjust="spacing" textLength="100" x="305.5" y="294.9951">Avatar: Image</text><rect fill="none" height="6" style="stroke:#C82930;stroke-width:1.0;" width="6" x="293.5" y="304.9453"/><text fill="#000000" font-family="sans-serif" font-size="14" lengthAdjust="spacing" textLength="126" x="305.5" y="311.292">FirstName: String</text><rect fill="none" height="6" style="stroke:#C82930;stroke-width:1.0;" width="6" x="293.5" y="321.2422"/><text fill="#000000" font-family="sans-serif" font-size="14" lengthAdjust="spacing" textLength="124" x="305.5" y="327.5889">LastName: String</text><rect fill="none" height="6" style="stroke:#C82930;stroke-width:1.0;" width="6" x="293.5" y="337.5391"/><text fill="#000000" font-family="sans-serif" font-size="14" lengthAdjust="spacing" textLength="155" x="305.5" y="343.8857">PhoneNumber: String</text><rect fill="none" height="6" style="stroke:#C82930;stroke-width:1.0;" width="6" x="293.5" y="353.8359"/><text fill="#000000" font-family="sans-serif" font-size="14" lengthAdjust="spacing" textLength="148" x="305.5" y="360.1826">BankAccount: String</text><line style="stroke:#181818;stroke-width:0.5;" x1="286.5" x2="515.5" y1="367.4844" y2="367.4844"/><ellipse cx="296.5" cy="381.1328" fill="#84BE84" rx="3" ry="3" style="stroke:#038048;stroke-width:1.0;"/><text fill="#000000" font-family="sans-serif" font-size="14" lengthAdjust="spacing" textLength="148" x="305.5" y="384.4795">UpdateAvatar(): void</text><ellipse cx="296.5" cy="397.4297" fill="#84BE84" rx="3" ry="3" style="stroke:#038048;stroke-width:1.0;"/><text fill="#000000" font-family="sans-serif" font-size="14" lengthAdjust="spacing" textLength="205" x="305.5" y="400.7764">ChangePhoneNumber(): void</text><ellipse cx="296.5" cy="413.7266" fill="#84BE84" rx="3" ry="3" style="stroke:#038048;stroke-width:1.0;"/><text fill="#000000" font-family="sans-serif" font-size="14" lengthAdjust="spacing" textLength="144" x="305.5" y="417.0732">ChangeName(): void</text><ellipse cx="296.5" cy="430.0234" fill="#84BE84" rx="3" ry="3" style="stroke:#038048;stroke-width:1.0;"/><text fill="#000000" font-family="sans-serif" font-size="14" lengthAdjust="spacing" textLength="198" x="305.5" y="433.3701">ChangeBankAccount(): void</text></g><!--class Manga--><g id="elem_Manga"><rect codeLine="21" fill="#F1F1F1" height="178.375" id="Manga" rx="2.5" ry="2.5" style="stroke:#181818;stroke-width:0.5;" width="171" x="717.5" y="708"/><ellipse cx="775.75" cy="724" fill="#ADD1B2" rx="11" ry="11" style="stroke:#181818;stroke-width:1.0;"/><path d="M778.0938,719.6719 C777.1563,719.2344 776.5625,719.0938 775.6875,719.0938 C773.0625,719.0938 771.0625,721.1719 771.0625,723.8906 L771.0625,725.0156 C771.0625,727.5938 773.1719,729.4844 776.0625,729.4844 C777.2813,729.4844 778.4375,729.1875 779.1875,728.6406 C779.7656,728.2344 780.0938,727.7813 780.0938,727.3906 C780.0938,726.9375 779.7031,726.5469 779.2344,726.5469 C779.0156,726.5469 778.8125,726.625 778.625,726.8125 C778.1719,727.2969 778.1719,727.2969 777.9844,727.3906 C777.5625,727.6563 776.875,727.7813 776.1094,727.7813 C774.0625,727.7813 772.7656,726.6875 772.7656,724.9844 L772.7656,723.8906 C772.7656,722.1094 774.0156,720.7969 775.75,720.7969 C776.3281,720.7969 776.9375,720.9531 777.4063,721.2031 C777.8906,721.4844 778.0625,721.7031 778.1563,722.1094 C778.2188,722.5156 778.25,722.6406 778.3906,722.7656 C778.5313,722.9063 778.7656,723.0156 778.9844,723.0156 C779.25,723.0156 779.5156,722.875 779.6875,722.6563 C779.7969,722.5 779.8281,722.3125 779.8281,721.8906 L779.8281,720.4688 C779.8281,720.0313 779.8125,719.9063 779.7188,719.75 C779.5625,719.4844 779.2813,719.3438 778.9844,719.3438 C778.6875,719.3438 778.4844,719.4375 778.2656,719.75 L778.0938,719.6719 Z " fill="#000000"/><text fill="#000000" font-family="sans-serif" font-size="14" lengthAdjust="spacing" textLength="46" x="796.25" y="728.8467">Manga</text><line style="stroke:#181818;stroke-width:0.5;" x1="718.5" x2="887.5" y1="740" y2="740"/><rect fill="none" height="6" style="stroke:#C82930;stroke-width:1.0;" width="6" x="725.5" y="750.6484"/><text fill="#000000" font-family="sans-serif" font-size="14" lengthAdjust="spacing" textLength="140" x="737.5" y="756.9951">MangaName: String</text><rect fill="none" height="6" style="stroke:#C82930;stroke-width:1.0;" width="6" x="725.5" y="766.9453"/><text fill="#000000" font-family="sans-serif" font-size="14" lengthAdjust="spacing" textLength="145" x="737.5" y="773.292">Genre: List&lt;String&gt;</text><rect fill="none" height="6" style="stroke:#C82930;stroke-width:1.0;" width="6" x="725.5" y="783.2422"/><text fill="#000000" font-family="sans-serif" font-size="14" lengthAdjust="spacing" textLength="63" x="737.5" y="789.5889">View: int</text><rect fill="none" height="6" style="stroke:#C82930;stroke-width:1.0;" width="6" x="725.5" y="799.5391"/><text fill="#000000" font-family="sans-serif" font-size="14" lengthAdjust="spacing" textLength="88" x="737.5" y="805.8857">Favorite: int</text><rect fill="none" height="6" style="stroke:#C82930;stroke-width:1.0;" width="6" x="725.5" y="815.8359"/><text fill="#000000" font-family="sans-serif" font-size="14" lengthAdjust="spacing" textLength="113" x="737.5" y="822.1826">Content: String</text><line style="stroke:#181818;stroke-width:0.5;" x1="718.5" x2="887.5" y1="829.4844" y2="829.4844"/><ellipse cx="728.5" cy="843.1328" fill="#84BE84" rx="3" ry="3" style="stroke:#038048;stroke-width:1.0;"/><text fill="#000000" font-family="sans-serif" font-size="14" lengthAdjust="spacing" textLength="123" x="737.5" y="846.4795">AddManga(): void</text><ellipse cx="728.5" cy="859.4297" fill="#84BE84" rx="3" ry="3" style="stroke:#038048;stroke-width:1.0;"/><text fill="#000000" font-family="sans-serif" font-size="14" lengthAdjust="spacing" textLength="124" x="737.5" y="862.7764">EditManga(): void</text><ellipse cx="728.5" cy="875.7266" fill="#84BE84" rx="3" ry="3" style="stroke:#038048;stroke-width:1.0;"/><text fill="#000000" font-family="sans-serif" font-size="14" lengthAdjust="spacing" textLength="144" x="737.5" y="879.0732">DeleteManga(): void</text></g><!--class Chapter--><g id="elem_Chapter"><rect codeLine="31" fill="#F1F1F1" height="145.7813" id="Chapter" rx="2.5" ry="2.5" style="stroke:#181818;stroke-width:0.5;" width="246" x="482" y="947"/><ellipse cx="571.25" cy="963" fill="#ADD1B2" rx="11" ry="11" style="stroke:#181818;stroke-width:1.0;"/><path d="M573.5938,958.6719 C572.6563,958.2344 572.0625,958.0938 571.1875,958.0938 C568.5625,958.0938 566.5625,960.1719 566.5625,962.8906 L566.5625,964.0156 C566.5625,966.5938 568.6719,968.4844 571.5625,968.4844 C572.7813,968.4844 573.9375,968.1875 574.6875,967.6406 C575.2656,967.2344 575.5938,966.7813 575.5938,966.3906 C575.5938,965.9375 575.2031,965.5469 574.7344,965.5469 C574.5156,965.5469 574.3125,965.625 574.125,965.8125 C573.6719,966.2969 573.6719,966.2969 573.4844,966.3906 C573.0625,966.6563 572.375,966.7813 571.6094,966.7813 C569.5625,966.7813 568.2656,965.6875 568.2656,963.9844 L568.2656,962.8906 C568.2656,961.1094 569.5156,959.7969 571.25,959.7969 C571.8281,959.7969 572.4375,959.9531 572.9063,960.2031 C573.3906,960.4844 573.5625,960.7031 573.6563,961.1094 C573.7188,961.5156 573.75,961.6406 573.8906,961.7656 C574.0313,961.9063 574.2656,962.0156 574.4844,962.0156 C574.75,962.0156 575.0156,961.875 575.1875,961.6563 C575.2969,961.5 575.3281,961.3125 575.3281,960.8906 L575.3281,959.4688 C575.3281,959.0313 575.3125,958.9063 575.2188,958.75 C575.0625,958.4844 574.7813,958.3438 574.4844,958.3438 C574.1875,958.3438 573.9844,958.4375 573.7656,958.75 L573.5938,958.6719 Z " fill="#000000"/><text fill="#000000" font-family="sans-serif" font-size="14" lengthAdjust="spacing" textLength="59" x="591.75" y="967.8467">Chapter</text><line style="stroke:#181818;stroke-width:0.5;" x1="483" x2="727" y1="979" y2="979"/><rect fill="none" height="6" style="stroke:#C82930;stroke-width:1.0;" width="6" x="490" y="989.6484"/><text fill="#000000" font-family="sans-serif" font-size="14" lengthAdjust="spacing" textLength="153" x="502" y="995.9951">ChapterName: String</text><rect fill="none" height="6" style="stroke:#C82930;stroke-width:1.0;" width="6" x="490" y="1005.9453"/><text fill="#000000" font-family="sans-serif" font-size="14" lengthAdjust="spacing" textLength="220" x="502" y="1012.292">ChapterContent: List&lt;Image&gt;</text><rect fill="none" height="6" style="stroke:#C82930;stroke-width:1.0;" width="6" x="490" y="1022.2422"/><text fill="#000000" font-family="sans-serif" font-size="14" lengthAdjust="spacing" textLength="63" x="502" y="1028.5889">View: int</text><line style="stroke:#181818;stroke-width:0.5;" x1="483" x2="727" y1="1035.8906" y2="1035.8906"/><ellipse cx="493" cy="1049.5391" fill="#84BE84" rx="3" ry="3" style="stroke:#038048;stroke-width:1.0;"/><text fill="#000000" font-family="sans-serif" font-size="14" lengthAdjust="spacing" textLength="136" x="502" y="1052.8857">AddChapter(): void</text><ellipse cx="493" cy="1065.8359" fill="#84BE84" rx="3" ry="3" style="stroke:#038048;stroke-width:1.0;"/><text fill="#000000" font-family="sans-serif" font-size="14" lengthAdjust="spacing" textLength="137" x="502" y="1069.1826">EditChapter(): void</text><ellipse cx="493" cy="1082.1328" fill="#84BE84" rx="3" ry="3" style="stroke:#038048;stroke-width:1.0;"/><text fill="#000000" font-family="sans-serif" font-size="14" lengthAdjust="spacing" textLength="157" x="502" y="1085.4795">DeleteChapter(): void</text></g><!--class Reader--><g id="elem_Reader"><rect codeLine="39" fill="#F1F1F1" height="129.4844" id="Reader" rx="2.5" ry="2.5" style="stroke:#181818;stroke-width:0.5;" width="234" x="7" y="502"/><ellipse cx="94.25" cy="518" fill="#ADD1B2" rx="11" ry="11" style="stroke:#181818;stroke-width:1.0;"/><path d="M96.5938,513.6719 C95.6563,513.2344 95.0625,513.0938 94.1875,513.0938 C91.5625,513.0938 89.5625,515.1719 89.5625,517.8906 L89.5625,519.0156 C89.5625,521.5938 91.6719,523.4844 94.5625,523.4844 C95.7813,523.4844 96.9375,523.1875 97.6875,522.6406 C98.2656,522.2344 98.5938,521.7813 98.5938,521.3906 C98.5938,520.9375 98.2031,520.5469 97.7344,520.5469 C97.5156,520.5469 97.3125,520.625 97.125,520.8125 C96.6719,521.2969 96.6719,521.2969 96.4844,521.3906 C96.0625,521.6563 95.375,521.7813 94.6094,521.7813 C92.5625,521.7813 91.2656,520.6875 91.2656,518.9844 L91.2656,517.8906 C91.2656,516.1094 92.5156,514.7969 94.25,514.7969 C94.8281,514.7969 95.4375,514.9531 95.9063,515.2031 C96.3906,515.4844 96.5625,515.7031 96.6563,516.1094 C96.7188,516.5156 96.75,516.6406 96.8906,516.7656 C97.0313,516.9063 97.2656,517.0156 97.4844,517.0156 C97.75,517.0156 98.0156,516.875 98.1875,516.6563 C98.2969,516.5 98.3281,516.3125 98.3281,515.8906 L98.3281,514.4688 C98.3281,514.0313 98.3125,513.9063 98.2188,513.75 C98.0625,513.4844 97.7813,513.3438 97.4844,513.3438 C97.1875,513.3438 96.9844,513.4375 96.7656,513.75 L96.5938,513.6719 Z " fill="#000000"/><text fill="#000000" font-family="sans-serif" font-size="14" lengthAdjust="spacing" textLength="51" x="114.75" y="522.8467">Reader</text><line style="stroke:#181818;stroke-width:0.5;" x1="8" x2="240" y1="534" y2="534"/><rect fill="none" height="6" style="stroke:#C82930;stroke-width:1.0;" width="6" x="15" y="544.6484"/><text fill="#000000" font-family="sans-serif" font-size="14" lengthAdjust="spacing" textLength="208" x="27" y="550.9951">FavoriteManga: List&lt;Manga&gt;</text><line style="stroke:#181818;stroke-width:0.5;" x1="8" x2="240" y1="558.2969" y2="558.2969"/><ellipse cx="18" cy="571.9453" fill="#84BE84" rx="3" ry="3" style="stroke:#038048;stroke-width:1.0;"/><text fill="#000000" font-family="sans-serif" font-size="14" lengthAdjust="spacing" textLength="131" x="27" y="575.292">ReadManga(): void</text><ellipse cx="18" cy="588.2422" fill="#84BE84" rx="3" ry="3" style="stroke:#038048;stroke-width:1.0;"/><text fill="#000000" font-family="sans-serif" font-size="14" lengthAdjust="spacing" textLength="129" x="27" y="591.5889">RateManga(): void</text><ellipse cx="18" cy="604.5391" fill="#84BE84" rx="3" ry="3" style="stroke:#038048;stroke-width:1.0;"/><text fill="#000000" font-family="sans-serif" font-size="14" lengthAdjust="spacing" textLength="167" x="27" y="607.8857">CommentManga(): void</text><ellipse cx="18" cy="620.8359" fill="#84BE84" rx="3" ry="3" style="stroke:#038048;stroke-width:1.0;"/><text fill="#000000" font-family="sans-serif" font-size="14" lengthAdjust="spacing" textLength="108" x="27" y="624.1826">Favorite(): void</text></g><!--class CommentManga--><g id="elem_CommentManga"><rect codeLine="46" fill="#F1F1F1" height="96.8906" id="CommentManga" rx="2.5" ry="2.5" style="stroke:#181818;stroke-width:0.5;" width="211" x="763.5" y="971.5"/><ellipse cx="805.95" cy="987.5" fill="#ADD1B2" rx="11" ry="11" style="stroke:#181818;stroke-width:1.0;"/><path d="M808.2938,983.1719 C807.3563,982.7344 806.7625,982.5938 805.8875,982.5938 C803.2625,982.5938 801.2625,984.6719 801.2625,987.3906 L801.2625,988.5156 C801.2625,991.0938 803.3719,992.9844 806.2625,992.9844 C807.4813,992.9844 808.6375,992.6875 809.3875,992.1406 C809.9656,991.7344 810.2938,991.2813 810.2938,990.8906 C810.2938,990.4375 809.9031,990.0469 809.4344,990.0469 C809.2156,990.0469 809.0125,990.125 808.825,990.3125 C808.3719,990.7969 808.3719,990.7969 808.1844,990.8906 C807.7625,991.1563 807.075,991.2813 806.3094,991.2813 C804.2625,991.2813 802.9656,990.1875 802.9656,988.4844 L802.9656,987.3906 C802.9656,985.6094 804.2156,984.2969 805.95,984.2969 C806.5281,984.2969 807.1375,984.4531 807.6063,984.7031 C808.0906,984.9844 808.2625,985.2031 808.3563,985.6094 C808.4188,986.0156 808.45,986.1406 808.5906,986.2656 C808.7313,986.4063 808.9656,986.5156 809.1844,986.5156 C809.45,986.5156 809.7156,986.375 809.8875,986.1563 C809.9969,986 810.0281,985.8125 810.0281,985.3906 L810.0281,983.9688 C810.0281,983.5313 810.0125,983.4063 809.9188,983.25 C809.7625,982.9844 809.4813,982.8438 809.1844,982.8438 C808.8875,982.8438 808.6844,982.9375 808.4656,983.25 L808.2938,983.1719 Z " fill="#000000"/><text fill="#000000" font-family="sans-serif" font-size="14" lengthAdjust="spacing" textLength="118" x="826.05" y="992.3467">CommentManga</text><line style="stroke:#181818;stroke-width:0.5;" x1="764.5" x2="973.5" y1="1003.5" y2="1003.5"/><rect fill="none" height="6" style="stroke:#C82930;stroke-width:1.0;" width="6" x="771.5" y="1014.1484"/><text fill="#000000" font-family="sans-serif" font-size="14" lengthAdjust="spacing" textLength="127" x="783.5" y="1020.4951">AccountID: String</text><rect fill="none" height="6" style="stroke:#C82930;stroke-width:1.0;" width="6" x="771.5" y="1030.4453"/><text fill="#000000" font-family="sans-serif" font-size="14" lengthAdjust="spacing" textLength="185" x="783.5" y="1036.792">CommentContent: String</text><line style="stroke:#181818;stroke-width:0.5;" x1="764.5" x2="973.5" y1="1044.0938" y2="1044.0938"/><ellipse cx="774.5" cy="1057.7422" fill="#84BE84" rx="3" ry="3" style="stroke:#038048;stroke-width:1.0;"/><text fill="#000000" font-family="sans-serif" font-size="14" lengthAdjust="spacing" textLength="167" x="783.5" y="1061.0889">CommentManga(): void</text></g><!--class CommentChapter--><g id="elem_CommentChapter"><rect codeLine="51" fill="#F1F1F1" height="96.8906" id="CommentChapter" rx="2.5" ry="2.5" style="stroke:#181818;stroke-width:0.5;" width="211" x="499.5" y="1154"/><ellipse cx="536.1" cy="1170" fill="#ADD1B2" rx="11" ry="11" style="stroke:#181818;stroke-width:1.0;"/><path d="M538.4438,1165.6719 C537.5063,1165.2344 536.9125,1165.0938 536.0375,1165.0938 C533.4125,1165.0938 531.4125,1167.1719 531.4125,1169.8906 L531.4125,1171.0156 C531.4125,1173.5938 533.5219,1175.4844 536.4125,1175.4844 C537.6313,1175.4844 538.7875,1175.1875 539.5375,1174.6406 C540.1156,1174.2344 540.4438,1173.7813 540.4438,1173.3906 C540.4438,1172.9375 540.0531,1172.5469 539.5844,1172.5469 C539.3656,1172.5469 539.1625,1172.625 538.975,1172.8125 C538.5219,1173.2969 538.5219,1173.2969 538.3344,1173.3906 C537.9125,1173.6563 537.225,1173.7813 536.4594,1173.7813 C534.4125,1173.7813 533.1156,1172.6875 533.1156,1170.9844 L533.1156,1169.8906 C533.1156,1168.1094 534.3656,1166.7969 536.1,1166.7969 C536.6781,1166.7969 537.2875,1166.9531 537.7563,1167.2031 C538.2406,1167.4844 538.4125,1167.7031 538.5063,1168.1094 C538.5688,1168.5156 538.6,1168.6406 538.7406,1168.7656 C538.8813,1168.9063 539.1156,1169.0156 539.3344,1169.0156 C539.6,1169.0156 539.8656,1168.875 540.0375,1168.6563 C540.1469,1168.5 540.1781,1168.3125 540.1781,1167.8906 L540.1781,1166.4688 C540.1781,1166.0313 540.1625,1165.9063 540.0688,1165.75 C539.9125,1165.4844 539.6313,1165.3438 539.3344,1165.3438 C539.0375,1165.3438 538.8344,1165.4375 538.6156,1165.75 L538.4438,1165.6719 Z " fill="#000000"/><text fill="#000000" font-family="sans-serif" font-size="14" lengthAdjust="spacing" textLength="131" x="554.9" y="1174.8467">CommentChapter</text><line style="stroke:#181818;stroke-width:0.5;" x1="500.5" x2="709.5" y1="1186" y2="1186"/><rect fill="none" height="6" style="stroke:#C82930;stroke-width:1.0;" width="6" x="507.5" y="1196.6484"/><text fill="#000000" font-family="sans-serif" font-size="14" lengthAdjust="spacing" textLength="127" x="519.5" y="1202.9951">AccountID: String</text><rect fill="none" height="6" style="stroke:#C82930;stroke-width:1.0;" width="6" x="507.5" y="1212.9453"/><text fill="#000000" font-family="sans-serif" font-size="14" lengthAdjust="spacing" textLength="185" x="519.5" y="1219.292">CommentContent: String</text><line style="stroke:#181818;stroke-width:0.5;" x1="500.5" x2="709.5" y1="1226.5938" y2="1226.5938"/><ellipse cx="510.5" cy="1240.2422" fill="#84BE84" rx="3" ry="3" style="stroke:#038048;stroke-width:1.0;"/><text fill="#000000" font-family="sans-serif" font-size="14" lengthAdjust="spacing" textLength="180" x="519.5" y="1243.5889">CommentChapter(): void</text></g><!--class Translator--><g id="elem_Translator"><rect codeLine="56" fill="#F1F1F1" height="113.1875" id="Translator" rx="2.5" ry="2.5" style="stroke:#181818;stroke-width:0.5;" width="250" x="276" y="510"/><ellipse cx="360.25" cy="526" fill="#ADD1B2" rx="11" ry="11" style="stroke:#181818;stroke-width:1.0;"/><path d="M362.5938,521.6719 C361.6563,521.2344 361.0625,521.0938 360.1875,521.0938 C357.5625,521.0938 355.5625,523.1719 355.5625,525.8906 L355.5625,527.0156 C355.5625,529.5938 357.6719,531.4844 360.5625,531.4844 C361.7813,531.4844 362.9375,531.1875 363.6875,530.6406 C364.2656,530.2344 364.5938,529.7813 364.5938,529.3906 C364.5938,528.9375 364.2031,528.5469 363.7344,528.5469 C363.5156,528.5469 363.3125,528.625 363.125,528.8125 C362.6719,529.2969 362.6719,529.2969 362.4844,529.3906 C362.0625,529.6563 361.375,529.7813 360.6094,529.7813 C358.5625,529.7813 357.2656,528.6875 357.2656,526.9844 L357.2656,525.8906 C357.2656,524.1094 358.5156,522.7969 360.25,522.7969 C360.8281,522.7969 361.4375,522.9531 361.9063,523.2031 C362.3906,523.4844 362.5625,523.7031 362.6563,524.1094 C362.7188,524.5156 362.75,524.6406 362.8906,524.7656 C363.0313,524.9063 363.2656,525.0156 363.4844,525.0156 C363.75,525.0156 364.0156,524.875 364.1875,524.6563 C364.2969,524.5 364.3281,524.3125 364.3281,523.8906 L364.3281,522.4688 C364.3281,522.0313 364.3125,521.9063 364.2188,521.75 C364.0625,521.4844 363.7813,521.3438 363.4844,521.3438 C363.1875,521.3438 362.9844,521.4375 362.7656,521.75 L362.5938,521.6719 Z " fill="#000000"/><text fill="#000000" font-family="sans-serif" font-size="14" lengthAdjust="spacing" textLength="73" x="380.75" y="530.8467">Translator</text><line style="stroke:#181818;stroke-width:0.5;" x1="277" x2="525" y1="542" y2="542"/><rect fill="none" height="6" style="stroke:#C82930;stroke-width:1.0;" width="6" x="284" y="552.6484"/><text fill="#000000" font-family="sans-serif" font-size="14" lengthAdjust="spacing" textLength="198" x="296" y="558.9951">MangaUpload: List&lt;Manga&gt;</text><rect fill="none" height="6" style="stroke:#C82930;stroke-width:1.0;" width="6" x="284" y="568.9453"/><text fill="#000000" font-family="sans-serif" font-size="14" lengthAdjust="spacing" textLength="224" x="296" y="575.292">ChapterUpload: List&lt;Chapter&gt;</text><line style="stroke:#181818;stroke-width:0.5;" x1="277" x2="525" y1="582.5938" y2="582.5938"/><ellipse cx="287" cy="596.2422" fill="#84BE84" rx="3" ry="3" style="stroke:#038048;stroke-width:1.0;"/><text fill="#000000" font-family="sans-serif" font-size="14" lengthAdjust="spacing" textLength="144" x="296" y="599.5889">UploadManga(): void</text><ellipse cx="287" cy="612.5391" fill="#84BE84" rx="3" ry="3" style="stroke:#038048;stroke-width:1.0;"/><text fill="#000000" font-family="sans-serif" font-size="14" lengthAdjust="spacing" textLength="157" x="296" y="615.8857">UploadChapter(): void</text></g><!--class Admin--><g id="elem_Admin"><rect codeLine="62" fill="#F1F1F1" height="96.8906" id="Admin" rx="2.5" ry="2.5" style="stroke:#181818;stroke-width:0.5;" width="170" x="561" y="518"/><ellipse cx="618.75" cy="534" fill="#ADD1B2" rx="11" ry="11" style="stroke:#181818;stroke-width:1.0;"/><path d="M621.0938,529.6719 C620.1563,529.2344 619.5625,529.0938 618.6875,529.0938 C616.0625,529.0938 614.0625,531.1719 614.0625,533.8906 L614.0625,535.0156 C614.0625,537.5938 616.1719,539.4844 619.0625,539.4844 C620.2813,539.4844 621.4375,539.1875 622.1875,538.6406 C622.7656,538.2344 623.0938,537.7813 623.0938,537.3906 C623.0938,536.9375 622.7031,536.5469 622.2344,536.5469 C622.0156,536.5469 621.8125,536.625 621.625,536.8125 C621.1719,537.2969 621.1719,537.2969 620.9844,537.3906 C620.5625,537.6563 619.875,537.7813 619.1094,537.7813 C617.0625,537.7813 615.7656,536.6875 615.7656,534.9844 L615.7656,533.8906 C615.7656,532.1094 617.0156,530.7969 618.75,530.7969 C619.3281,530.7969 619.9375,530.9531 620.4063,531.2031 C620.8906,531.4844 621.0625,531.7031 621.1563,532.1094 C621.2188,532.5156 621.25,532.6406 621.3906,532.7656 C621.5313,532.9063 621.7656,533.0156 621.9844,533.0156 C622.25,533.0156 622.5156,532.875 622.6875,532.6563 C622.7969,532.5 622.8281,532.3125 622.8281,531.8906 L622.8281,530.4688 C622.8281,530.0313 622.8125,529.9063 622.7188,529.75 C622.5625,529.4844 622.2813,529.3438 621.9844,529.3438 C621.6875,529.3438 621.4844,529.4375 621.2656,529.75 L621.0938,529.6719 Z " fill="#000000"/><text fill="#000000" font-family="sans-serif" font-size="14" lengthAdjust="spacing" textLength="46" x="639.25" y="538.8467">Admin</text><line style="stroke:#181818;stroke-width:0.5;" x1="562" x2="730" y1="550" y2="550"/><line style="stroke:#181818;stroke-width:0.5;" x1="562" x2="730" y1="558" y2="558"/><ellipse cx="572" cy="571.6484" fill="#84BE84" rx="3" ry="3" style="stroke:#038048;stroke-width:1.0;"/><text fill="#000000" font-family="sans-serif" font-size="14" lengthAdjust="spacing" textLength="144" x="581" y="574.9951">DeleteManga(): void</text><ellipse cx="572" cy="587.9453" fill="#84BE84" rx="3" ry="3" style="stroke:#038048;stroke-width:1.0;"/><text fill="#000000" font-family="sans-serif" font-size="14" lengthAdjust="spacing" textLength="139" x="581" y="591.292">WarningUser(): void</text><ellipse cx="572" cy="604.2422" fill="#84BE84" rx="3" ry="3" style="stroke:#038048;stroke-width:1.0;"/><text fill="#000000" font-family="sans-serif" font-size="14" lengthAdjust="spacing" textLength="129" x="581" y="607.5889">DeleteUser(): void</text></g><!--class coin--><g id="elem_coin"><rect codeLine="67" fill="#F1F1F1" height="145.7813" id="coin" rx="2.5" ry="2.5" style="stroke:#181818;stroke-width:0.5;" width="155" x="428.5" y="15"/><ellipse cx="478.25" cy="31" fill="#ADD1B2" rx="11" ry="11" style="stroke:#181818;stroke-width:1.0;"/><path d="M480.5938,26.6719 C479.6563,26.2344 479.0625,26.0938 478.1875,26.0938 C475.5625,26.0938 473.5625,28.1719 473.5625,30.8906 L473.5625,32.0156 C473.5625,34.5938 475.6719,36.4844 478.5625,36.4844 C479.7813,36.4844 480.9375,36.1875 481.6875,35.6406 C482.2656,35.2344 482.5938,34.7813 482.5938,34.3906 C482.5938,33.9375 482.2031,33.5469 481.7344,33.5469 C481.5156,33.5469 481.3125,33.625 481.125,33.8125 C480.6719,34.2969 480.6719,34.2969 480.4844,34.3906 C480.0625,34.6563 479.375,34.7813 478.6094,34.7813 C476.5625,34.7813 475.2656,33.6875 475.2656,31.9844 L475.2656,30.8906 C475.2656,29.1094 476.5156,27.7969 478.25,27.7969 C478.8281,27.7969 479.4375,27.9531 479.9063,28.2031 C480.3906,28.4844 480.5625,28.7031 480.6563,29.1094 C480.7188,29.5156 480.75,29.6406 480.8906,29.7656 C481.0313,29.9063 481.2656,30.0156 481.4844,30.0156 C481.75,30.0156 482.0156,29.875 482.1875,29.6563 C482.2969,29.5 482.3281,29.3125 482.3281,28.8906 L482.3281,27.4688 C482.3281,27.0313 482.3125,26.9063 482.2188,26.75 C482.0625,26.4844 481.7813,26.3438 481.4844,26.3438 C481.1875,26.3438 480.9844,26.4375 480.7656,26.75 L480.5938,26.6719 Z " fill="#000000"/><text fill="#000000" font-family="sans-serif" font-size="14" lengthAdjust="spacing" textLength="47" x="498.75" y="35.8467">O-coin</text><line style="stroke:#181818;stroke-width:0.5;" x1="429.5" x2="582.5" y1="47" y2="47"/><rect fill="none" height="6" style="stroke:#C82930;stroke-width:1.0;" width="6" x="436.5" y="57.6484"/><text fill="#000000" font-family="sans-serif" font-size="14" lengthAdjust="spacing" textLength="89" x="448.5" y="63.9951">quantity: int</text><line style="stroke:#181818;stroke-width:0.5;" x1="429.5" x2="582.5" y1="71.2969" y2="71.2969"/><ellipse cx="439.5" cy="84.9453" fill="#84BE84" rx="3" ry="3" style="stroke:#038048;stroke-width:1.0;"/><text fill="#000000" font-family="sans-serif" font-size="14" lengthAdjust="spacing" textLength="117" x="448.5" y="88.292">Withdraw(): void</text><ellipse cx="439.5" cy="101.2422" fill="#84BE84" rx="3" ry="3" style="stroke:#038048;stroke-width:1.0;"/><text fill="#000000" font-family="sans-serif" font-size="14" lengthAdjust="spacing" textLength="106" x="448.5" y="104.5889">Deposit(): void</text><ellipse cx="439.5" cy="117.5391" fill="#84BE84" rx="3" ry="3" style="stroke:#038048;stroke-width:1.0;"/><text fill="#000000" font-family="sans-serif" font-size="14" lengthAdjust="spacing" textLength="129" x="448.5" y="120.8857">ViewBalance(): int</text><ellipse cx="439.5" cy="133.8359" fill="#84BE84" rx="3" ry="3" style="stroke:#038048;stroke-width:1.0;"/><text fill="#000000" font-family="sans-serif" font-size="14" lengthAdjust="spacing" textLength="102" x="448.5" y="137.1826">Donate(): void</text><ellipse cx="439.5" cy="150.1328" fill="#84BE84" rx="3" ry="3" style="stroke:#038048;stroke-width:1.0;"/><text fill="#000000" font-family="sans-serif" font-size="14" lengthAdjust="spacing" textLength="128" x="448.5" y="153.4795">ViewToOcoin():int</text></g><!--class Artist--><g id="elem_Artist"><rect codeLine="75" fill="#F1F1F1" height="48" id="Artist" rx="2.5" ry="2.5" style="stroke:#181818;stroke-width:0.5;" width="73" x="766.5" y="542.5"/><ellipse cx="781.5" cy="558.5" fill="#ADD1B2" rx="11" ry="11" style="stroke:#181818;stroke-width:1.0;"/><path d="M783.8438,554.1719 C782.9063,553.7344 782.3125,553.5938 781.4375,553.5938 C778.8125,553.5938 776.8125,555.6719 776.8125,558.3906 L776.8125,559.5156 C776.8125,562.0938 778.9219,563.9844 781.8125,563.9844 C783.0313,563.9844 784.1875,563.6875 784.9375,563.1406 C785.5156,562.7344 785.8438,562.2813 785.8438,561.8906 C785.8438,561.4375 785.4531,561.0469 784.9844,561.0469 C784.7656,561.0469 784.5625,561.125 784.375,561.3125 C783.9219,561.7969 783.9219,561.7969 783.7344,561.8906 C783.3125,562.1563 782.625,562.2813 781.8594,562.2813 C779.8125,562.2813 778.5156,561.1875 778.5156,559.4844 L778.5156,558.3906 C778.5156,556.6094 779.7656,555.2969 781.5,555.2969 C782.0781,555.2969 782.6875,555.4531 783.1563,555.7031 C783.6406,555.9844 783.8125,556.2031 783.9063,556.6094 C783.9688,557.0156 784,557.1406 784.1406,557.2656 C784.2813,557.4063 784.5156,557.5156 784.7344,557.5156 C785,557.5156 785.2656,557.375 785.4375,557.1563 C785.5469,557 785.5781,556.8125 785.5781,556.3906 L785.5781,554.9688 C785.5781,554.5313 785.5625,554.4063 785.4688,554.25 C785.3125,553.9844 785.0313,553.8438 784.7344,553.8438 C784.4375,553.8438 784.2344,553.9375 784.0156,554.25 L783.8438,554.1719 Z " fill="#000000"/><text fill="#000000" font-family="sans-serif" font-size="14" lengthAdjust="spacing" textLength="41" x="795.5" y="563.3467">Artist</text><line style="stroke:#181818;stroke-width:0.5;" x1="767.5" x2="838.5" y1="574.5" y2="574.5"/><line style="stroke:#181818;stroke-width:0.5;" x1="767.5" x2="838.5" y1="582.5" y2="582.5"/></g><!--class Author--><g id="elem_Author"><rect codeLine="78" fill="#F1F1F1" height="48" id="Author" rx="2.5" ry="2.5" style="stroke:#181818;stroke-width:0.5;" width="81" x="874.5" y="542.5"/><ellipse cx="889.5" cy="558.5" fill="#ADD1B2" rx="11" ry="11" style="stroke:#181818;stroke-width:1.0;"/><path d="M891.8438,554.1719 C890.9063,553.7344 890.3125,553.5938 889.4375,553.5938 C886.8125,553.5938 884.8125,555.6719 884.8125,558.3906 L884.8125,559.5156 C884.8125,562.0938 886.9219,563.9844 889.8125,563.9844 C891.0313,563.9844 892.1875,563.6875 892.9375,563.1406 C893.5156,562.7344 893.8438,562.2813 893.8438,561.8906 C893.8438,561.4375 893.4531,561.0469 892.9844,561.0469 C892.7656,561.0469 892.5625,561.125 892.375,561.3125 C891.9219,561.7969 891.9219,561.7969 891.7344,561.8906 C891.3125,562.1563 890.625,562.2813 889.8594,562.2813 C887.8125,562.2813 886.5156,561.1875 886.5156,559.4844 L886.5156,558.3906 C886.5156,556.6094 887.7656,555.2969 889.5,555.2969 C890.0781,555.2969 890.6875,555.4531 891.1563,555.7031 C891.6406,555.9844 891.8125,556.2031 891.9063,556.6094 C891.9688,557.0156 892,557.1406 892.1406,557.2656 C892.2813,557.4063 892.5156,557.5156 892.7344,557.5156 C893,557.5156 893.2656,557.375 893.4375,557.1563 C893.5469,557 893.5781,556.8125 893.5781,556.3906 L893.5781,554.9688 C893.5781,554.5313 893.5625,554.4063 893.4688,554.25 C893.3125,553.9844 893.0313,553.8438 892.7344,553.8438 C892.4375,553.8438 892.2344,553.9375 892.0156,554.25 L891.8438,554.1719 Z " fill="#000000"/><text fill="#000000" font-family="sans-serif" font-size="14" lengthAdjust="spacing" textLength="49" x="903.5" y="563.3467">Author</text><line style="stroke:#181818;stroke-width:0.5;" x1="875.5" x2="954.5" y1="574.5" y2="574.5"/><line style="stroke:#181818;stroke-width:0.5;" x1="875.5" x2="954.5" y1="582.5" y2="582.5"/></g><!--link Artist to Manga--><g id="link_Artist_Manga"><path codeLine="81" d="M803,590.667 C803,618.125 803,665.498 803,707.827 " fill="none" id="Artist-Manga" style="stroke:#181818;stroke-width:1.0;"/><text fill="#000000" font-family="sans-serif" font-size="13" lengthAdjust="spacing" textLength="34" x="804" y="674.0669">Draw</text></g><!--link Author to Manga--><g id="link_Author_Manga"><path codeLine="82" d="M903.644,590.667 C890.186,618.125 866.966,665.498 846.218,707.827 " fill="none" id="Author-Manga" style="stroke:#181818;stroke-width:1.0;"/><text fill="#000000" font-family="sans-serif" font-size="13" lengthAdjust="spacing" textLength="34" x="870" y="674.0669">Write</text></g><!--link Account to User--><g id="link_Account_User"><path codeLine="83" d="M329.223,169.21 C339.316,193.58 350.514,220.61 361.004,245.94 " fill="none" id="Account-User" style="stroke:#181818;stroke-width:1.0;"/><text fill="#000000" font-family="sans-serif" font-size="13" lengthAdjust="spacing" textLength="24" x="350" y="212.0669">Has</text></g><!--link coin to User--><g id="link_coin_User"><path codeLine="84" d="M476.052,161.3 C465.141,187.65 452.626,217.86 440.983,245.97 " fill="none" id="coin-User" style="stroke:#181818;stroke-width:1.0;"/><text fill="#000000" font-family="sans-serif" font-size="13" lengthAdjust="spacing" textLength="24" x="461" y="212.0669">Has</text></g><!--reverse link User to Translator--><g id="link_User_Translator"><path codeLine="85" d="M401,459.112 C401,482.574 401,488.885 401,509.722 " fill="none" id="User-backto-Translator" style="stroke:#181818;stroke-width:1.0;"/><polygon fill="none" points="401,441.112,395,459.112,407,459.112,401,441.112" style="stroke:#181818;stroke-width:1.0;"/></g><!--reverse link User to Admin--><g id="link_User_Admin"><path codeLine="86" d="M521.4696,453.1685 C550.9556,479.7665 568.286,495.399 593.21,517.882 " fill="none" id="User-backto-Admin" style="stroke:#181818;stroke-width:1.0;"/><polygon fill="none" points="508.104,441.112,517.4508,457.6237,525.4885,448.7133,508.104,441.112" style="stroke:#181818;stroke-width:1.0;"/></g><!--reverse link User to Reader--><g id="link_User_Reader"><path codeLine="87" d="M271.0615,448.1689 C243.6345,470.0509 229.062,481.678 203.661,501.944 " fill="none" id="User-backto-Reader" style="stroke:#181818;stroke-width:1.0;"/><polygon fill="none" points="285.132,436.943,267.3195,443.4787,274.8034,452.859,285.132,436.943" style="stroke:#181818;stroke-width:1.0;"/></g><!--reverse link Manga to CommentManga--><g id="link_Manga_CommentManga"><path codeLine="88" d="M832.8032,897.7961 C841.4932,926.8911 847.387,946.631 854.81,971.485 " fill="none" id="Manga-backto-CommentManga" style="stroke:#181818;stroke-width:1.0;"/><polygon fill="#181818" points="829.369,886.298,827.2534,893.1918,832.8032,897.7961,834.9188,890.9023,829.369,886.298" style="stroke:#181818;stroke-width:1.0;"/></g><!--reverse link Chapter to CommentChapter--><g id="link_Chapter_CommentChapter"><path codeLine="89" d="M605,1105.117 C605,1125.541 605,1135.258 605,1153.847 " fill="none" id="Chapter-backto-CommentChapter" style="stroke:#181818;stroke-width:1.0;"/><polygon fill="#181818" points="605,1093.117,601,1099.117,605,1105.117,609,1099.117,605,1093.117" style="stroke:#181818;stroke-width:1.0;"/></g><!--reverse link Translator to Manga--><g id="link_Translator_Manga"><path codeLine="90" d="M509.2585,629.0349 C576.0765,667.0149 653.331,710.927 717.381,747.334 " fill="none" id="Translator-backto-Manga" style="stroke:#181818;stroke-width:1.0;"/><polygon fill="#181818" points="498.826,623.105,502.0656,629.5474,509.2585,629.0349,506.0189,622.5925,498.826,623.105" style="stroke:#181818;stroke-width:1.0;"/></g><!--reverse link Manga to Chapter--><g id="link_Manga_Chapter"><path codeLine="91" d="M715.8844,895.2355 C697.8954,915.3135 687,927.474 669.694,946.791 " fill="none" id="Manga-backto-Chapter" style="stroke:#181818;stroke-width:1.0;"/><polygon fill="#181818" points="723.892,886.298,716.909,888.0975,715.8844,895.2355,722.8674,893.4359,723.892,886.298" style="stroke:#181818;stroke-width:1.0;"/></g><!--SRC=[fLHDRzim3BtxLmWzxGF-0qOH86tMhK2M5bspd5bBI8JPKYRJ2OPi_tsIJDcohNQ7-MIzHvEFZvJB2fg6BSjIjmel6RDF7extgu9zGoFLdl1j8uo2MapWHvlYh0qVmH_PMk-bUlU-O2SjEHj0tM902RpJPgynf9cGjmTGUp4Z_sIbb-uqzRfFW60ATb_3NX1s9qs3cqWq8s8DQVpne9NOjFMBC5Fg1jGFygQdt4DAjqSEA3eHwIQ6r4dUoKaIKU6P0Lzj00G7_64p7z5deOp5rhB1wuvOXAQ-It4kc5GO38EJDX95ZDrgXI9gciGjEVS59ve_SOafV2KgWMBCX2vidqSS9ad7H2V4z8fyItxWYsH3NYLzbD2PPZgbKoveVHB01wd1BzyNwV7l2qhcmbDsFC7K31gvhclRMeeAjURsHT_ywnPJx6IcRnMVL9dCwd_gl6Rnim7LL83QZ3PxUwmqyBd9_LgC0WXRzDVJSIbRE-OrBKjUItLvOuSxPWT6sVxS_oYvJICYvBvwo4ijrHM3XhcNqEtF5XHA_1NlyKxYWHiupx8VTIEdlrHt2MwW0bNwPHcohBG258deP_tW55Z61VVD6xHMNh81QF7WfcA1ZcCv3QTWAwikwm8YTESsbcMq9evmLh3Y2pIPgpX6_DlrRuiDEn21VXZHkRkBcI_r8Sz7-vlHH2ESa6p8RSakEAIWaBy0]--></g></svg>