<?xml version="1.0" encoding="us-ascii" standalone="no"?><svg xmlns="http://www.w3.org/2000/svg" xmlns:xlink="http://www.w3.org/1999/xlink" contentStyleType="text/css" height="1075px" preserveAspectRatio="none" style="width:896px;height:1075px;background:#FFFFFF;" version="1.1" viewBox="0 0 896 1075" width="896px" zoomAndPan="magnify"><defs/><g><!--class Account--><g id="elem_Account"><rect codeLine="3" fill="#F1F1F1" height="145.7813" id="Account" rx="2.5" ry="2.5" style="stroke:#181818;stroke-width:0.5;" width="195" x="165.5" y="7"/><ellipse cx="229.25" cy="23" fill="#ADD1B2" rx="11" ry="11" style="stroke:#181818;stroke-width:1.0;"/><path d="M231.5938,18.6719 C230.6563,18.2344 230.0625,18.0938 229.1875,18.0938 C226.5625,18.0938 224.5625,20.1719 224.5625,22.8906 L224.5625,24.0156 C224.5625,26.5938 226.6719,28.4844 229.5625,28.4844 C230.7813,28.4844 231.9375,28.1875 232.6875,27.6406 C233.2656,27.2344 233.5938,26.7813 233.5938,26.3906 C233.5938,25.9375 233.2031,25.5469 232.7344,25.5469 C232.5156,25.5469 232.3125,25.625 232.125,25.8125 C231.6719,26.2969 231.6719,26.2969 231.4844,26.3906 C231.0625,26.6563 230.375,26.7813 229.6094,26.7813 C227.5625,26.7813 226.2656,25.6875 226.2656,23.9844 L226.2656,22.8906 C226.2656,21.1094 227.5156,19.7969 229.25,19.7969 C229.8281,19.7969 230.4375,19.9531 230.9063,20.2031 C231.3906,20.4844 231.5625,20.7031 231.6563,21.1094 C231.7188,21.5156 231.75,21.6406 231.8906,21.7656 C232.0313,21.9063 232.2656,22.0156 232.4844,22.0156 C232.75,22.0156 233.0156,21.875 233.1875,21.6563 C233.2969,21.5 233.3281,21.3125 233.3281,20.8906 L233.3281,19.4688 C233.3281,19.0313 233.3125,18.9063 233.2188,18.75 C233.0625,18.4844 232.7813,18.3438 232.4844,18.3438 C232.1875,18.3438 231.9844,18.4375 231.7656,18.75 L231.5938,18.6719 Z " fill="#000000"/><text fill="#000000" font-family="sans-serif" font-size="14" lengthAdjust="spacing" textLength="59" x="249.75" y="27.8467">Account</text><line style="stroke:#181818;stroke-width:0.5;" x1="166.5" x2="359.5" y1="39" y2="39"/><rect fill="none" height="6" style="stroke:#C82930;stroke-width:1.0;" width="6" x="173.5" y="49.6484"/><text fill="#000000" font-family="sans-serif" font-size="14" lengthAdjust="spacing" textLength="124" x="185.5" y="55.9951">Username: String</text><rect fill="none" height="6" style="stroke:#C82930;stroke-width:1.0;" width="6" x="173.5" y="65.9453"/><text fill="#000000" font-family="sans-serif" font-size="14" lengthAdjust="spacing" textLength="119" x="185.5" y="72.292">Password: String</text><line style="stroke:#181818;stroke-width:0.5;" x1="166.5" x2="359.5" y1="79.5938" y2="79.5938"/><ellipse cx="176.5" cy="93.2422" fill="#84BE84" rx="3" ry="3" style="stroke:#038048;stroke-width:1.0;"/><text fill="#000000" font-family="sans-serif" font-size="14" lengthAdjust="spacing" textLength="88" x="185.5" y="96.5889">Login(): void</text><ellipse cx="176.5" cy="109.5391" fill="#84BE84" rx="3" ry="3" style="stroke:#038048;stroke-width:1.0;"/><text fill="#000000" font-family="sans-serif" font-size="14" lengthAdjust="spacing" textLength="99" x="185.5" y="112.8857">Logout(): void</text><ellipse cx="176.5" cy="125.8359" fill="#84BE84" rx="3" ry="3" style="stroke:#038048;stroke-width:1.0;"/><text fill="#000000" font-family="sans-serif" font-size="14" lengthAdjust="spacing" textLength="163" x="185.5" y="129.1826">ForgotPassword(): void</text><ellipse cx="176.5" cy="142.1328" fill="#84BE84" rx="3" ry="3" style="stroke:#038048;stroke-width:1.0;"/><text fill="#000000" font-family="sans-serif" font-size="14" lengthAdjust="spacing" textLength="169" x="185.5" y="145.4795">ChangePassword(): void</text></g><!--class User--><g id="elem_User"><rect codeLine="11" fill="#F1F1F1" height="194.6719" id="User" rx="2.5" ry="2.5" style="stroke:#181818;stroke-width:0.5;" width="231" x="252.5" y="250"/><ellipse cx="348.25" cy="266" fill="#ADD1B2" rx="11" ry="11" style="stroke:#181818;stroke-width:1.0;"/><path d="M350.5938,261.6719 C349.6563,261.2344 349.0625,261.0938 348.1875,261.0938 C345.5625,261.0938 343.5625,263.1719 343.5625,265.8906 L343.5625,267.0156 C343.5625,269.5938 345.6719,271.4844 348.5625,271.4844 C349.7813,271.4844 350.9375,271.1875 351.6875,270.6406 C352.2656,270.2344 352.5938,269.7813 352.5938,269.3906 C352.5938,268.9375 352.2031,268.5469 351.7344,268.5469 C351.5156,268.5469 351.3125,268.625 351.125,268.8125 C350.6719,269.2969 350.6719,269.2969 350.4844,269.3906 C350.0625,269.6563 349.375,269.7813 348.6094,269.7813 C346.5625,269.7813 345.2656,268.6875 345.2656,266.9844 L345.2656,265.8906 C345.2656,264.1094 346.5156,262.7969 348.25,262.7969 C348.8281,262.7969 349.4375,262.9531 349.9063,263.2031 C350.3906,263.4844 350.5625,263.7031 350.6563,264.1094 C350.7188,264.5156 350.75,264.6406 350.8906,264.7656 C351.0313,264.9063 351.2656,265.0156 351.4844,265.0156 C351.75,265.0156 352.0156,264.875 352.1875,264.6563 C352.2969,264.5 352.3281,264.3125 352.3281,263.8906 L352.3281,262.4688 C352.3281,262.0313 352.3125,261.9063 352.2188,261.75 C352.0625,261.4844 351.7813,261.3438 351.4844,261.3438 C351.1875,261.3438 350.9844,261.4375 350.7656,261.75 L350.5938,261.6719 Z " fill="#000000"/><text fill="#000000" font-family="sans-serif" font-size="14" lengthAdjust="spacing" textLength="31" x="368.75" y="270.8467">User</text><line style="stroke:#181818;stroke-width:0.5;" x1="253.5" x2="482.5" y1="282" y2="282"/><rect fill="none" height="6" style="stroke:#C82930;stroke-width:1.0;" width="6" x="260.5" y="292.6484"/><text fill="#000000" font-family="sans-serif" font-size="14" lengthAdjust="spacing" textLength="100" x="272.5" y="298.9951">Avatar: Image</text><rect fill="none" height="6" style="stroke:#C82930;stroke-width:1.0;" width="6" x="260.5" y="308.9453"/><text fill="#000000" font-family="sans-serif" font-size="14" lengthAdjust="spacing" textLength="126" x="272.5" y="315.292">FirstName: String</text><rect fill="none" height="6" style="stroke:#C82930;stroke-width:1.0;" width="6" x="260.5" y="325.2422"/><text fill="#000000" font-family="sans-serif" font-size="14" lengthAdjust="spacing" textLength="124" x="272.5" y="331.5889">LastName: String</text><rect fill="none" height="6" style="stroke:#C82930;stroke-width:1.0;" width="6" x="260.5" y="341.5391"/><text fill="#000000" font-family="sans-serif" font-size="14" lengthAdjust="spacing" textLength="155" x="272.5" y="347.8857">PhoneNumber: String</text><rect fill="none" height="6" style="stroke:#C82930;stroke-width:1.0;" width="6" x="260.5" y="357.8359"/><text fill="#000000" font-family="sans-serif" font-size="14" lengthAdjust="spacing" textLength="148" x="272.5" y="364.1826">BankAccount: String</text><line style="stroke:#181818;stroke-width:0.5;" x1="253.5" x2="482.5" y1="371.4844" y2="371.4844"/><ellipse cx="263.5" cy="385.1328" fill="#84BE84" rx="3" ry="3" style="stroke:#038048;stroke-width:1.0;"/><text fill="#000000" font-family="sans-serif" font-size="14" lengthAdjust="spacing" textLength="148" x="272.5" y="388.4795">UpdateAvatar(): void</text><ellipse cx="263.5" cy="401.4297" fill="#84BE84" rx="3" ry="3" style="stroke:#038048;stroke-width:1.0;"/><text fill="#000000" font-family="sans-serif" font-size="14" lengthAdjust="spacing" textLength="205" x="272.5" y="404.7764">ChangePhoneNumber(): void</text><ellipse cx="263.5" cy="417.7266" fill="#84BE84" rx="3" ry="3" style="stroke:#038048;stroke-width:1.0;"/><text fill="#000000" font-family="sans-serif" font-size="14" lengthAdjust="spacing" textLength="144" x="272.5" y="421.0732">ChangeName(): void</text><ellipse cx="263.5" cy="434.0234" fill="#84BE84" rx="3" ry="3" style="stroke:#038048;stroke-width:1.0;"/><text fill="#000000" font-family="sans-serif" font-size="14" lengthAdjust="spacing" textLength="198" x="272.5" y="437.3701">ChangeBankAccount(): void</text></g><polygon fill="none" points="366.3664,444.6719,373.0297,464.7865,359.0317,464.5516" style="stroke:#181818;stroke-width:1.0;"/><line style="stroke:#181818;stroke-width:1.0;" x1="366.0307" x2="366" y1="464.6691" y2="466.5"/><line style="stroke:#181818;stroke-width:1.0;" x1="329.7796" x2="321.858" y1="250" y2="229.826"/><line style="stroke:#181818;stroke-width:1.0;" x1="406.2204" x2="414.142" y1="250" y2="229.826"/><!--class Manga--><g id="elem_Manga"><rect codeLine="22" fill="#F1F1F1" height="162.0781" id="Manga" rx="2.5" ry="2.5" style="stroke:#181818;stroke-width:0.5;" width="170" x="652" y="732"/><ellipse cx="709.75" cy="748" fill="#ADD1B2" rx="11" ry="11" style="stroke:#181818;stroke-width:1.0;"/><path d="M712.0938,743.6719 C711.1563,743.2344 710.5625,743.0938 709.6875,743.0938 C707.0625,743.0938 705.0625,745.1719 705.0625,747.8906 L705.0625,749.0156 C705.0625,751.5938 707.1719,753.4844 710.0625,753.4844 C711.2813,753.4844 712.4375,753.1875 713.1875,752.6406 C713.7656,752.2344 714.0938,751.7813 714.0938,751.3906 C714.0938,750.9375 713.7031,750.5469 713.2344,750.5469 C713.0156,750.5469 712.8125,750.625 712.625,750.8125 C712.1719,751.2969 712.1719,751.2969 711.9844,751.3906 C711.5625,751.6563 710.875,751.7813 710.1094,751.7813 C708.0625,751.7813 706.7656,750.6875 706.7656,748.9844 L706.7656,747.8906 C706.7656,746.1094 708.0156,744.7969 709.75,744.7969 C710.3281,744.7969 710.9375,744.9531 711.4063,745.2031 C711.8906,745.4844 712.0625,745.7031 712.1563,746.1094 C712.2188,746.5156 712.25,746.6406 712.3906,746.7656 C712.5313,746.9063 712.7656,747.0156 712.9844,747.0156 C713.25,747.0156 713.5156,746.875 713.6875,746.6563 C713.7969,746.5 713.8281,746.3125 713.8281,745.8906 L713.8281,744.4688 C713.8281,744.0313 713.8125,743.9063 713.7188,743.75 C713.5625,743.4844 713.2813,743.3438 712.9844,743.3438 C712.6875,743.3438 712.4844,743.4375 712.2656,743.75 L712.0938,743.6719 Z " fill="#000000"/><text fill="#000000" font-family="sans-serif" font-size="14" lengthAdjust="spacing" textLength="46" x="730.25" y="752.8467">Manga</text><line style="stroke:#181818;stroke-width:0.5;" x1="653" x2="821" y1="764" y2="764"/><rect fill="none" height="6" style="stroke:#C82930;stroke-width:1.0;" width="6" x="660" y="774.6484"/><text fill="#000000" font-family="sans-serif" font-size="14" lengthAdjust="spacing" textLength="97" x="672" y="780.9951">Genre: String</text><rect fill="none" height="6" style="stroke:#C82930;stroke-width:1.0;" width="6" x="660" y="790.9453"/><text fill="#000000" font-family="sans-serif" font-size="14" lengthAdjust="spacing" textLength="63" x="672" y="797.292">View: int</text><rect fill="none" height="6" style="stroke:#C82930;stroke-width:1.0;" width="6" x="660" y="807.2422"/><text fill="#000000" font-family="sans-serif" font-size="14" lengthAdjust="spacing" textLength="88" x="672" y="813.5889">Favorite: int</text><rect fill="none" height="6" style="stroke:#C82930;stroke-width:1.0;" width="6" x="660" y="823.5391"/><text fill="#000000" font-family="sans-serif" font-size="14" lengthAdjust="spacing" textLength="113" x="672" y="829.8857">Content: String</text><line style="stroke:#181818;stroke-width:0.5;" x1="653" x2="821" y1="837.1875" y2="837.1875"/><ellipse cx="663" cy="850.8359" fill="#84BE84" rx="3" ry="3" style="stroke:#038048;stroke-width:1.0;"/><text fill="#000000" font-family="sans-serif" font-size="14" lengthAdjust="spacing" textLength="123" x="672" y="854.1826">AddManga(): void</text><ellipse cx="663" cy="867.1328" fill="#84BE84" rx="3" ry="3" style="stroke:#038048;stroke-width:1.0;"/><text fill="#000000" font-family="sans-serif" font-size="14" lengthAdjust="spacing" textLength="124" x="672" y="870.4795">EditManga(): void</text><ellipse cx="663" cy="883.4297" fill="#84BE84" rx="3" ry="3" style="stroke:#038048;stroke-width:1.0;"/><text fill="#000000" font-family="sans-serif" font-size="14" lengthAdjust="spacing" textLength="144" x="672" y="886.7764">DeleteManga(): void</text></g><!--class Chapter--><g id="elem_Chapter"><rect codeLine="31" fill="#F1F1F1" height="113.1875" id="Chapter" rx="2.5" ry="2.5" style="stroke:#181818;stroke-width:0.5;" width="183" x="645.5" y="955"/><ellipse cx="703.25" cy="971" fill="#ADD1B2" rx="11" ry="11" style="stroke:#181818;stroke-width:1.0;"/><path d="M705.5938,966.6719 C704.6563,966.2344 704.0625,966.0938 703.1875,966.0938 C700.5625,966.0938 698.5625,968.1719 698.5625,970.8906 L698.5625,972.0156 C698.5625,974.5938 700.6719,976.4844 703.5625,976.4844 C704.7813,976.4844 705.9375,976.1875 706.6875,975.6406 C707.2656,975.2344 707.5938,974.7813 707.5938,974.3906 C707.5938,973.9375 707.2031,973.5469 706.7344,973.5469 C706.5156,973.5469 706.3125,973.625 706.125,973.8125 C705.6719,974.2969 705.6719,974.2969 705.4844,974.3906 C705.0625,974.6563 704.375,974.7813 703.6094,974.7813 C701.5625,974.7813 700.2656,973.6875 700.2656,971.9844 L700.2656,970.8906 C700.2656,969.1094 701.5156,967.7969 703.25,967.7969 C703.8281,967.7969 704.4375,967.9531 704.9063,968.2031 C705.3906,968.4844 705.5625,968.7031 705.6563,969.1094 C705.7188,969.5156 705.75,969.6406 705.8906,969.7656 C706.0313,969.9063 706.2656,970.0156 706.4844,970.0156 C706.75,970.0156 707.0156,969.875 707.1875,969.6563 C707.2969,969.5 707.3281,969.3125 707.3281,968.8906 L707.3281,967.4688 C707.3281,967.0313 707.3125,966.9063 707.2188,966.75 C707.0625,966.4844 706.7813,966.3438 706.4844,966.3438 C706.1875,966.3438 705.9844,966.4375 705.7656,966.75 L705.5938,966.6719 Z " fill="#000000"/><text fill="#000000" font-family="sans-serif" font-size="14" lengthAdjust="spacing" textLength="59" x="723.75" y="975.8467">Chapter</text><line style="stroke:#181818;stroke-width:0.5;" x1="646.5" x2="827.5" y1="987" y2="987"/><rect fill="none" height="6" style="stroke:#C82930;stroke-width:1.0;" width="6" x="653.5" y="997.6484"/><text fill="#000000" font-family="sans-serif" font-size="14" lengthAdjust="spacing" textLength="63" x="665.5" y="1003.9951">View: int</text><line style="stroke:#181818;stroke-width:0.5;" x1="646.5" x2="827.5" y1="1011.2969" y2="1011.2969"/><ellipse cx="656.5" cy="1024.9453" fill="#84BE84" rx="3" ry="3" style="stroke:#038048;stroke-width:1.0;"/><text fill="#000000" font-family="sans-serif" font-size="14" lengthAdjust="spacing" textLength="136" x="665.5" y="1028.292">AddChapter(): void</text><ellipse cx="656.5" cy="1041.2422" fill="#84BE84" rx="3" ry="3" style="stroke:#038048;stroke-width:1.0;"/><text fill="#000000" font-family="sans-serif" font-size="14" lengthAdjust="spacing" textLength="137" x="665.5" y="1044.5889">EditChapter(): void</text><ellipse cx="656.5" cy="1057.5391" fill="#84BE84" rx="3" ry="3" style="stroke:#038048;stroke-width:1.0;"/><text fill="#000000" font-family="sans-serif" font-size="14" lengthAdjust="spacing" textLength="157" x="665.5" y="1060.8857">DeleteChapter(): void</text></g><!--class Reader--><g id="elem_Reader"><rect codeLine="37" fill="#F1F1F1" height="129.4844" id="Reader" rx="2.5" ry="2.5" style="stroke:#181818;stroke-width:0.5;" width="234" x="7" y="526"/><ellipse cx="94.25" cy="542" fill="#ADD1B2" rx="11" ry="11" style="stroke:#181818;stroke-width:1.0;"/><path d="M96.5938,537.6719 C95.6563,537.2344 95.0625,537.0938 94.1875,537.0938 C91.5625,537.0938 89.5625,539.1719 89.5625,541.8906 L89.5625,543.0156 C89.5625,545.5938 91.6719,547.4844 94.5625,547.4844 C95.7813,547.4844 96.9375,547.1875 97.6875,546.6406 C98.2656,546.2344 98.5938,545.7813 98.5938,545.3906 C98.5938,544.9375 98.2031,544.5469 97.7344,544.5469 C97.5156,544.5469 97.3125,544.625 97.125,544.8125 C96.6719,545.2969 96.6719,545.2969 96.4844,545.3906 C96.0625,545.6563 95.375,545.7813 94.6094,545.7813 C92.5625,545.7813 91.2656,544.6875 91.2656,542.9844 L91.2656,541.8906 C91.2656,540.1094 92.5156,538.7969 94.25,538.7969 C94.8281,538.7969 95.4375,538.9531 95.9063,539.2031 C96.3906,539.4844 96.5625,539.7031 96.6563,540.1094 C96.7188,540.5156 96.75,540.6406 96.8906,540.7656 C97.0313,540.9063 97.2656,541.0156 97.4844,541.0156 C97.75,541.0156 98.0156,540.875 98.1875,540.6563 C98.2969,540.5 98.3281,540.3125 98.3281,539.8906 L98.3281,538.4688 C98.3281,538.0313 98.3125,537.9063 98.2188,537.75 C98.0625,537.4844 97.7813,537.3438 97.4844,537.3438 C97.1875,537.3438 96.9844,537.4375 96.7656,537.75 L96.5938,537.6719 Z " fill="#000000"/><text fill="#000000" font-family="sans-serif" font-size="14" lengthAdjust="spacing" textLength="51" x="114.75" y="546.8467">Reader</text><line style="stroke:#181818;stroke-width:0.5;" x1="8" x2="240" y1="558" y2="558"/><rect fill="none" height="6" style="stroke:#C82930;stroke-width:1.0;" width="6" x="15" y="568.6484"/><text fill="#000000" font-family="sans-serif" font-size="14" lengthAdjust="spacing" textLength="208" x="27" y="574.9951">FavoriteManga: List&lt;Manga&gt;</text><line style="stroke:#181818;stroke-width:0.5;" x1="8" x2="240" y1="582.2969" y2="582.2969"/><ellipse cx="18" cy="595.9453" fill="#84BE84" rx="3" ry="3" style="stroke:#038048;stroke-width:1.0;"/><text fill="#000000" font-family="sans-serif" font-size="14" lengthAdjust="spacing" textLength="131" x="27" y="599.292">ReadManga(): void</text><ellipse cx="18" cy="612.2422" fill="#84BE84" rx="3" ry="3" style="stroke:#038048;stroke-width:1.0;"/><text fill="#000000" font-family="sans-serif" font-size="14" lengthAdjust="spacing" textLength="129" x="27" y="615.5889">RateManga(): void</text><ellipse cx="18" cy="628.5391" fill="#84BE84" rx="3" ry="3" style="stroke:#038048;stroke-width:1.0;"/><text fill="#000000" font-family="sans-serif" font-size="14" lengthAdjust="spacing" textLength="167" x="27" y="631.8857">CommentManga(): void</text><ellipse cx="18" cy="644.8359" fill="#84BE84" rx="3" ry="3" style="stroke:#038048;stroke-width:1.0;"/><text fill="#000000" font-family="sans-serif" font-size="14" lengthAdjust="spacing" textLength="108" x="27" y="648.1826">Favorite(): void</text></g><!--class Comment--><g id="elem_Comment"><rect codeLine="44" fill="#F1F1F1" height="96.8906" id="Comment" rx="2.5" ry="2.5" style="stroke:#181818;stroke-width:0.5;" width="215" x="16.5" y="764.5"/><ellipse cx="83.75" cy="780.5" fill="#ADD1B2" rx="11" ry="11" style="stroke:#181818;stroke-width:1.0;"/><path d="M86.0938,776.1719 C85.1563,775.7344 84.5625,775.5938 83.6875,775.5938 C81.0625,775.5938 79.0625,777.6719 79.0625,780.3906 L79.0625,781.5156 C79.0625,784.0938 81.1719,785.9844 84.0625,785.9844 C85.2813,785.9844 86.4375,785.6875 87.1875,785.1406 C87.7656,784.7344 88.0938,784.2813 88.0938,783.8906 C88.0938,783.4375 87.7031,783.0469 87.2344,783.0469 C87.0156,783.0469 86.8125,783.125 86.625,783.3125 C86.1719,783.7969 86.1719,783.7969 85.9844,783.8906 C85.5625,784.1563 84.875,784.2813 84.1094,784.2813 C82.0625,784.2813 80.7656,783.1875 80.7656,781.4844 L80.7656,780.3906 C80.7656,778.6094 82.0156,777.2969 83.75,777.2969 C84.3281,777.2969 84.9375,777.4531 85.4063,777.7031 C85.8906,777.9844 86.0625,778.2031 86.1563,778.6094 C86.2188,779.0156 86.25,779.1406 86.3906,779.2656 C86.5313,779.4063 86.7656,779.5156 86.9844,779.5156 C87.25,779.5156 87.5156,779.375 87.6875,779.1563 C87.7969,779 87.8281,778.8125 87.8281,778.3906 L87.8281,776.9688 C87.8281,776.5313 87.8125,776.4063 87.7188,776.25 C87.5625,775.9844 87.2813,775.8438 86.9844,775.8438 C86.6875,775.8438 86.4844,775.9375 86.2656,776.25 L86.0938,776.1719 Z " fill="#000000"/><text fill="#000000" font-family="sans-serif" font-size="14" lengthAdjust="spacing" textLength="72" x="104.25" y="785.3467">Comment</text><line style="stroke:#181818;stroke-width:0.5;" x1="17.5" x2="230.5" y1="796.5" y2="796.5"/><rect fill="none" height="6" style="stroke:#C82930;stroke-width:1.0;" width="6" x="24.5" y="807.1484"/><text fill="#000000" font-family="sans-serif" font-size="14" lengthAdjust="spacing" textLength="185" x="36.5" y="813.4951">CommentContent: String</text><line style="stroke:#181818;stroke-width:0.5;" x1="17.5" x2="230.5" y1="820.7969" y2="820.7969"/><ellipse cx="27.5" cy="834.4453" fill="#84BE84" rx="3" ry="3" style="stroke:#038048;stroke-width:1.0;"/><text fill="#000000" font-family="sans-serif" font-size="14" lengthAdjust="spacing" textLength="167" x="36.5" y="837.792">CommentManga(): void</text><ellipse cx="27.5" cy="850.7422" fill="#84BE84" rx="3" ry="3" style="stroke:#038048;stroke-width:1.0;"/><text fill="#000000" font-family="sans-serif" font-size="14" lengthAdjust="spacing" textLength="189" x="36.5" y="854.0889">CommentChapter(g): void</text></g><!--class Translator--><g id="elem_Translator"><rect codeLine="49" fill="#F1F1F1" height="80.5938" id="Translator" rx="2.5" ry="2.5" style="stroke:#181818;stroke-width:0.5;" width="183" x="276.5" y="550"/><ellipse cx="327.25" cy="566" fill="#ADD1B2" rx="11" ry="11" style="stroke:#181818;stroke-width:1.0;"/><path d="M329.5938,561.6719 C328.6563,561.2344 328.0625,561.0938 327.1875,561.0938 C324.5625,561.0938 322.5625,563.1719 322.5625,565.8906 L322.5625,567.0156 C322.5625,569.5938 324.6719,571.4844 327.5625,571.4844 C328.7813,571.4844 329.9375,571.1875 330.6875,570.6406 C331.2656,570.2344 331.5938,569.7813 331.5938,569.3906 C331.5938,568.9375 331.2031,568.5469 330.7344,568.5469 C330.5156,568.5469 330.3125,568.625 330.125,568.8125 C329.6719,569.2969 329.6719,569.2969 329.4844,569.3906 C329.0625,569.6563 328.375,569.7813 327.6094,569.7813 C325.5625,569.7813 324.2656,568.6875 324.2656,566.9844 L324.2656,565.8906 C324.2656,564.1094 325.5156,562.7969 327.25,562.7969 C327.8281,562.7969 328.4375,562.9531 328.9063,563.2031 C329.3906,563.4844 329.5625,563.7031 329.6563,564.1094 C329.7188,564.5156 329.75,564.6406 329.8906,564.7656 C330.0313,564.9063 330.2656,565.0156 330.4844,565.0156 C330.75,565.0156 331.0156,564.875 331.1875,564.6563 C331.2969,564.5 331.3281,564.3125 331.3281,563.8906 L331.3281,562.4688 C331.3281,562.0313 331.3125,561.9063 331.2188,561.75 C331.0625,561.4844 330.7813,561.3438 330.4844,561.3438 C330.1875,561.3438 329.9844,561.4375 329.7656,561.75 L329.5938,561.6719 Z " fill="#000000"/><text fill="#000000" font-family="sans-serif" font-size="14" lengthAdjust="spacing" textLength="73" x="347.75" y="570.8467">Translator</text><line style="stroke:#181818;stroke-width:0.5;" x1="277.5" x2="458.5" y1="582" y2="582"/><line style="stroke:#181818;stroke-width:0.5;" x1="277.5" x2="458.5" y1="590" y2="590"/><ellipse cx="287.5" cy="603.6484" fill="#84BE84" rx="3" ry="3" style="stroke:#038048;stroke-width:1.0;"/><text fill="#000000" font-family="sans-serif" font-size="14" lengthAdjust="spacing" textLength="139" x="296.5" y="606.9951">MangaUpload(: void</text><ellipse cx="287.5" cy="619.9453" fill="#84BE84" rx="3" ry="3" style="stroke:#038048;stroke-width:1.0;"/><text fill="#000000" font-family="sans-serif" font-size="14" lengthAdjust="spacing" textLength="157" x="296.5" y="623.292">ChapterUpload(): void</text></g><!--class Admin--><g id="elem_Admin"><rect codeLine="53" fill="#F1F1F1" height="96.8906" id="Admin" rx="2.5" ry="2.5" style="stroke:#181818;stroke-width:0.5;" width="170" x="495" y="542"/><ellipse cx="552.75" cy="558" fill="#ADD1B2" rx="11" ry="11" style="stroke:#181818;stroke-width:1.0;"/><path d="M555.0938,553.6719 C554.1563,553.2344 553.5625,553.0938 552.6875,553.0938 C550.0625,553.0938 548.0625,555.1719 548.0625,557.8906 L548.0625,559.0156 C548.0625,561.5938 550.1719,563.4844 553.0625,563.4844 C554.2813,563.4844 555.4375,563.1875 556.1875,562.6406 C556.7656,562.2344 557.0938,561.7813 557.0938,561.3906 C557.0938,560.9375 556.7031,560.5469 556.2344,560.5469 C556.0156,560.5469 555.8125,560.625 555.625,560.8125 C555.1719,561.2969 555.1719,561.2969 554.9844,561.3906 C554.5625,561.6563 553.875,561.7813 553.1094,561.7813 C551.0625,561.7813 549.7656,560.6875 549.7656,558.9844 L549.7656,557.8906 C549.7656,556.1094 551.0156,554.7969 552.75,554.7969 C553.3281,554.7969 553.9375,554.9531 554.4063,555.2031 C554.8906,555.4844 555.0625,555.7031 555.1563,556.1094 C555.2188,556.5156 555.25,556.6406 555.3906,556.7656 C555.5313,556.9063 555.7656,557.0156 555.9844,557.0156 C556.25,557.0156 556.5156,556.875 556.6875,556.6563 C556.7969,556.5 556.8281,556.3125 556.8281,555.8906 L556.8281,554.4688 C556.8281,554.0313 556.8125,553.9063 556.7188,553.75 C556.5625,553.4844 556.2813,553.3438 555.9844,553.3438 C555.6875,553.3438 555.4844,553.4375 555.2656,553.75 L555.0938,553.6719 Z " fill="#000000"/><text fill="#000000" font-family="sans-serif" font-size="14" lengthAdjust="spacing" textLength="46" x="573.25" y="562.8467">Admin</text><line style="stroke:#181818;stroke-width:0.5;" x1="496" x2="664" y1="574" y2="574"/><line style="stroke:#181818;stroke-width:0.5;" x1="496" x2="664" y1="582" y2="582"/><ellipse cx="506" cy="595.6484" fill="#84BE84" rx="3" ry="3" style="stroke:#038048;stroke-width:1.0;"/><text fill="#000000" font-family="sans-serif" font-size="14" lengthAdjust="spacing" textLength="144" x="515" y="598.9951">DeleteManga(): void</text><ellipse cx="506" cy="611.9453" fill="#84BE84" rx="3" ry="3" style="stroke:#038048;stroke-width:1.0;"/><text fill="#000000" font-family="sans-serif" font-size="14" lengthAdjust="spacing" textLength="139" x="515" y="615.292">WarningUser(): void</text><ellipse cx="506" cy="628.2422" fill="#84BE84" rx="3" ry="3" style="stroke:#038048;stroke-width:1.0;"/><text fill="#000000" font-family="sans-serif" font-size="14" lengthAdjust="spacing" textLength="129" x="515" y="631.5889">DeleteUser(): void</text></g><!--class coin--><g id="elem_coin"><rect codeLine="58" fill="#F1F1F1" height="145.7813" id="coin" rx="2.5" ry="2.5" style="stroke:#181818;stroke-width:0.5;" width="155" x="395.5" y="7"/><ellipse cx="445.25" cy="23" fill="#ADD1B2" rx="11" ry="11" style="stroke:#181818;stroke-width:1.0;"/><path d="M447.5938,18.6719 C446.6563,18.2344 446.0625,18.0938 445.1875,18.0938 C442.5625,18.0938 440.5625,20.1719 440.5625,22.8906 L440.5625,24.0156 C440.5625,26.5938 442.6719,28.4844 445.5625,28.4844 C446.7813,28.4844 447.9375,28.1875 448.6875,27.6406 C449.2656,27.2344 449.5938,26.7813 449.5938,26.3906 C449.5938,25.9375 449.2031,25.5469 448.7344,25.5469 C448.5156,25.5469 448.3125,25.625 448.125,25.8125 C447.6719,26.2969 447.6719,26.2969 447.4844,26.3906 C447.0625,26.6563 446.375,26.7813 445.6094,26.7813 C443.5625,26.7813 442.2656,25.6875 442.2656,23.9844 L442.2656,22.8906 C442.2656,21.1094 443.5156,19.7969 445.25,19.7969 C445.8281,19.7969 446.4375,19.9531 446.9063,20.2031 C447.3906,20.4844 447.5625,20.7031 447.6563,21.1094 C447.7188,21.5156 447.75,21.6406 447.8906,21.7656 C448.0313,21.9063 448.2656,22.0156 448.4844,22.0156 C448.75,22.0156 449.0156,21.875 449.1875,21.6563 C449.2969,21.5 449.3281,21.3125 449.3281,20.8906 L449.3281,19.4688 C449.3281,19.0313 449.3125,18.9063 449.2188,18.75 C449.0625,18.4844 448.7813,18.3438 448.4844,18.3438 C448.1875,18.3438 447.9844,18.4375 447.7656,18.75 L447.5938,18.6719 Z " fill="#000000"/><text fill="#000000" font-family="sans-serif" font-size="14" lengthAdjust="spacing" textLength="47" x="465.75" y="27.8467">O-coin</text><line style="stroke:#181818;stroke-width:0.5;" x1="396.5" x2="549.5" y1="39" y2="39"/><rect fill="none" height="6" style="stroke:#C82930;stroke-width:1.0;" width="6" x="403.5" y="49.6484"/><text fill="#000000" font-family="sans-serif" font-size="14" lengthAdjust="spacing" textLength="89" x="415.5" y="55.9951">quantity: int</text><line style="stroke:#181818;stroke-width:0.5;" x1="396.5" x2="549.5" y1="63.2969" y2="63.2969"/><ellipse cx="406.5" cy="76.9453" fill="#84BE84" rx="3" ry="3" style="stroke:#038048;stroke-width:1.0;"/><text fill="#000000" font-family="sans-serif" font-size="14" lengthAdjust="spacing" textLength="117" x="415.5" y="80.292">Withdraw(): void</text><ellipse cx="406.5" cy="93.2422" fill="#84BE84" rx="3" ry="3" style="stroke:#038048;stroke-width:1.0;"/><text fill="#000000" font-family="sans-serif" font-size="14" lengthAdjust="spacing" textLength="106" x="415.5" y="96.5889">Deposit(): void</text><ellipse cx="406.5" cy="109.5391" fill="#84BE84" rx="3" ry="3" style="stroke:#038048;stroke-width:1.0;"/><text fill="#000000" font-family="sans-serif" font-size="14" lengthAdjust="spacing" textLength="129" x="415.5" y="112.8857">ViewBalance(): int</text><ellipse cx="406.5" cy="125.8359" fill="#84BE84" rx="3" ry="3" style="stroke:#038048;stroke-width:1.0;"/><text fill="#000000" font-family="sans-serif" font-size="14" lengthAdjust="spacing" textLength="102" x="415.5" y="129.1826">Donate(): void</text><ellipse cx="406.5" cy="142.1328" fill="#84BE84" rx="3" ry="3" style="stroke:#038048;stroke-width:1.0;"/><text fill="#000000" font-family="sans-serif" font-size="14" lengthAdjust="spacing" textLength="128" x="415.5" y="145.4795">ViewToOcoin():int</text></g><!--class Artist--><g id="elem_Artist"><rect codeLine="66" fill="#F1F1F1" height="48" id="Artist" rx="2.5" ry="2.5" style="stroke:#181818;stroke-width:0.5;" width="73" x="700.5" y="566.5"/><ellipse cx="715.5" cy="582.5" fill="#ADD1B2" rx="11" ry="11" style="stroke:#181818;stroke-width:1.0;"/><path d="M717.8438,578.1719 C716.9063,577.7344 716.3125,577.5938 715.4375,577.5938 C712.8125,577.5938 710.8125,579.6719 710.8125,582.3906 L710.8125,583.5156 C710.8125,586.0938 712.9219,587.9844 715.8125,587.9844 C717.0313,587.9844 718.1875,587.6875 718.9375,587.1406 C719.5156,586.7344 719.8438,586.2813 719.8438,585.8906 C719.8438,585.4375 719.4531,585.0469 718.9844,585.0469 C718.7656,585.0469 718.5625,585.125 718.375,585.3125 C717.9219,585.7969 717.9219,585.7969 717.7344,585.8906 C717.3125,586.1563 716.625,586.2813 715.8594,586.2813 C713.8125,586.2813 712.5156,585.1875 712.5156,583.4844 L712.5156,582.3906 C712.5156,580.6094 713.7656,579.2969 715.5,579.2969 C716.0781,579.2969 716.6875,579.4531 717.1563,579.7031 C717.6406,579.9844 717.8125,580.2031 717.9063,580.6094 C717.9688,581.0156 718,581.1406 718.1406,581.2656 C718.2813,581.4063 718.5156,581.5156 718.7344,581.5156 C719,581.5156 719.2656,581.375 719.4375,581.1563 C719.5469,581 719.5781,580.8125 719.5781,580.3906 L719.5781,578.9688 C719.5781,578.5313 719.5625,578.4063 719.4688,578.25 C719.3125,577.9844 719.0313,577.8438 718.7344,577.8438 C718.4375,577.8438 718.2344,577.9375 718.0156,578.25 L717.8438,578.1719 Z " fill="#000000"/><text fill="#000000" font-family="sans-serif" font-size="14" lengthAdjust="spacing" textLength="41" x="729.5" y="587.3467">Artist</text><line style="stroke:#181818;stroke-width:0.5;" x1="701.5" x2="772.5" y1="598.5" y2="598.5"/><line style="stroke:#181818;stroke-width:0.5;" x1="701.5" x2="772.5" y1="606.5" y2="606.5"/></g><!--class Author--><g id="elem_Author"><rect codeLine="69" fill="#F1F1F1" height="48" id="Author" rx="2.5" ry="2.5" style="stroke:#181818;stroke-width:0.5;" width="81" x="808.5" y="566.5"/><ellipse cx="823.5" cy="582.5" fill="#ADD1B2" rx="11" ry="11" style="stroke:#181818;stroke-width:1.0;"/><path d="M825.8438,578.1719 C824.9063,577.7344 824.3125,577.5938 823.4375,577.5938 C820.8125,577.5938 818.8125,579.6719 818.8125,582.3906 L818.8125,583.5156 C818.8125,586.0938 820.9219,587.9844 823.8125,587.9844 C825.0313,587.9844 826.1875,587.6875 826.9375,587.1406 C827.5156,586.7344 827.8438,586.2813 827.8438,585.8906 C827.8438,585.4375 827.4531,585.0469 826.9844,585.0469 C826.7656,585.0469 826.5625,585.125 826.375,585.3125 C825.9219,585.7969 825.9219,585.7969 825.7344,585.8906 C825.3125,586.1563 824.625,586.2813 823.8594,586.2813 C821.8125,586.2813 820.5156,585.1875 820.5156,583.4844 L820.5156,582.3906 C820.5156,580.6094 821.7656,579.2969 823.5,579.2969 C824.0781,579.2969 824.6875,579.4531 825.1563,579.7031 C825.6406,579.9844 825.8125,580.2031 825.9063,580.6094 C825.9688,581.0156 826,581.1406 826.1406,581.2656 C826.2813,581.4063 826.5156,581.5156 826.7344,581.5156 C827,581.5156 827.2656,581.375 827.4375,581.1563 C827.5469,581 827.5781,580.8125 827.5781,580.3906 L827.5781,578.9688 C827.5781,578.5313 827.5625,578.4063 827.4688,578.25 C827.3125,577.9844 827.0313,577.8438 826.7344,577.8438 C826.4375,577.8438 826.2344,577.9375 826.0156,578.25 L825.8438,578.1719 Z " fill="#000000"/><text fill="#000000" font-family="sans-serif" font-size="14" lengthAdjust="spacing" textLength="49" x="837.5" y="587.3467">Author</text><line style="stroke:#181818;stroke-width:0.5;" x1="809.5" x2="888.5" y1="598.5" y2="598.5"/><line style="stroke:#181818;stroke-width:0.5;" x1="809.5" x2="888.5" y1="606.5" y2="606.5"/></g><!--link Artist to Manga--><g id="link_Artist_Manga"><path codeLine="72" d="M737,614.681 C737,642.323 737,690.016 737,731.588 " fill="none" id="Artist-Manga" style="stroke:#181818;stroke-width:1.0;"/><text fill="#000000" font-family="sans-serif" font-size="13" lengthAdjust="spacing" textLength="34" x="738" y="698.0669">Draw</text></g><!--link Author to Manga--><g id="link_Author_Manga"><path codeLine="73" d="M837.226,614.681 C823.185,642.323 798.96,690.016 777.844,731.588 " fill="none" id="Author-Manga" style="stroke:#181818;stroke-width:1.0;"/><text fill="#000000" font-family="sans-serif" font-size="13" lengthAdjust="spacing" textLength="34" x="800" y="698.0669">Write</text></g><!--link Account to User--><g id="link_Account_User"><path codeLine="74" d="M291.553,153.198 C300.905,176.846 311.547,203.756 321.858,229.826 " fill="none" id="Account-User" style="stroke:#181818;stroke-width:1.0;"/><text fill="#000000" font-family="sans-serif" font-size="13" lengthAdjust="spacing" textLength="24" x="311" y="196.0669">Has</text></g><!--link coin to User--><g id="link_coin_User"><path codeLine="75" d="M444.447,153.198 C435.095,176.846 424.453,203.756 414.142,229.826 " fill="none" id="coin-User" style="stroke:#181818;stroke-width:1.0;"/><text fill="#000000" font-family="sans-serif" font-size="13" lengthAdjust="spacing" textLength="24" x="431" y="196.0669">Has</text></g><!--reverse link User to Translator--><g id="link_User_Translator"><path codeLine="76" d="M366,466.5 C366,466.5 366.772,513.948 367.356,549.905 " fill="none" id="User-backto-Translator" style="stroke:#181818;stroke-width:1.0;"/></g><!--reverse link User to Admin--><g id="link_User_Admin"><path codeLine="77" d="M366,466.5 C366,466.5 428.488,498.078 477,526 C485.83,531.082 495.012,536.518 504.094,541.991 " fill="none" id="User-backto-Admin" style="stroke:#181818;stroke-width:1.0;"/></g><!--reverse link User to Reader--><g id="link_User_Reader"><path codeLine="78" d="M366,466.5 C366,466.5 302.872,498.585 241.101,529.982 " fill="none" id="User-backto-Reader" style="stroke:#181818;stroke-width:1.0;"/></g><!--reverse link Reader to Comment--><g id="link_Reader_Comment"><path codeLine="79" d="M124,667.278 C124,702.128 124,732.562 124,764.481 " fill="none" id="Reader-backto-Comment" style="stroke:#181818;stroke-width:1.0;"/><polygon fill="#181818" points="124,655.278,120,661.278,124,667.278,128,661.278,124,655.278" style="stroke:#181818;stroke-width:1.0;"/></g><!--reverse link Translator to Manga--><g id="link_Translator_Manga"><path codeLine="80" d="M444.697,637.3314 C505.597,673.7224 585.813,721.656 651.979,761.195 " fill="none" id="Translator-backto-Manga" style="stroke:#181818;stroke-width:1.0;"/><polygon fill="#181818" points="434.396,631.176,437.4947,637.6874,444.697,637.3314,441.5983,630.82,434.396,631.176" style="stroke:#181818;stroke-width:1.0;"/></g><!--reverse link Manga to Chapter--><g id="link_Manga_Chapter"><path codeLine="81" d="M737,906.207 C737,926.583 737,936.03 737,954.881 " fill="none" id="Manga-backto-Chapter" style="stroke:#181818;stroke-width:1.0;"/><polygon fill="#181818" points="737,894.207,733,900.207,737,906.207,741,900.207,737,894.207" style="stroke:#181818;stroke-width:1.0;"/></g><!--SRC=[XLHDRvmm4BtxLrWv9Osuv8YYI9jiaqRQV2ZDTizJR84LiAazx2hQzh_N1di1OxKSTk6zySoRDmFcGyWMD3IqrAfh7sN5jK2G1QTNX1Gr64DNHQ4wYKT2xPNHhU5QGiDp-XsraAM7NsteGMasWo_fHfL2db_aTAy4eoEeEWoe1- -LBXM6D15vLu4i-OByuoKwJK7VQWy8EgUF3PJSO_T26toUYAQUs40QVwsKvCzTyvFhcBe5-U4jEL7kyagtBGFaWuXq4sFg9E_a98b9uOK1JpO0WWCFNEf5Hpy4F-HKI0oMm5xPKVCfTgSayabRlloAiJv_fEeh4vZ2rxpcoETCq6axQN6SrLnKNyb796gbcQ5Qp8LwRnpOM2xqt6lBwKOOlExlRtmo5vvgwGtYXlnWLDDOmr9KgBMqO3XpF7dUFqRM_pz_EESRB-CoxngagG6Lx_vos95jMojWv_5wkHoUYXEjM2FayH-p7PWTQ6c5kpSnEQ4P4NAVlMI54lACWg7k9fZogmE90Z-dkx4JM34DXqNsLXaHVqpSOjr2xJvaZXcph9K4v8deT_NY55Z61P-QrsYNv4X6eCFAMMg1WQDPHlq-hQqwCWHCq9tR0ahyc-i8PmNDlu4Xhk8SwU-kVrji7E04x8SnUHxscmn_NxBJEf7nj4Lx9QJ_jKz-t7y1]--></g></svg>