<?xml version="1.0" encoding="UTF-8" standalone="no"?><svg xmlns="http://www.w3.org/2000/svg" xmlns:xlink="http://www.w3.org/1999/xlink" contentStyleType="text/css" height="1098px" preserveAspectRatio="none" style="width:1152px;height:1098px;background:#FFFFFF;" version="1.1" viewBox="0 0 1152 1098" width="1152px" zoomAndPan="magnify"><defs/><g><rect fill="#FFFFFF" height="914.3281" style="stroke:#181818;stroke-width:1.0;" width="10" x="32.5" y="92.6094"/><rect fill="#FFFFFF" height="914.3281" style="stroke:#181818;stroke-width:1.0;" width="10" x="380.5" y="92.6094"/><rect fill="#FFFFFF" height="702.4766" style="stroke:#181818;stroke-width:1.0;" width="10" x="653.5" y="304.4609"/><rect fill="#FFFFFF" height="672.125" style="stroke:#181818;stroke-width:1.0;" width="10" x="997.5" y="334.8125"/><rect fill="#FFFFFF" height="146.7578" style="stroke:#181818;stroke-width:1.0;" width="10" x="1086" y="676.0703"/><rect fill="none" height="114.7969" style="stroke:#000000;stroke-width:1.5;" width="1136" x="10" y="129.9609"/><rect fill="none" height="205.8516" style="stroke:#000000;stroke-width:1.5;" width="1136" x="10" y="349.8125"/><rect fill="none" height="109.4063" style="stroke:#000000;stroke-width:1.5;" width="1136" x="10" y="721.4219"/><line style="stroke:#181818;stroke-width:0.5;stroke-dasharray:5.0,5.0;" x1="37" x2="37" y1="82.6094" y2="1015.9375"/><line style="stroke:#181818;stroke-width:0.5;stroke-dasharray:5.0,5.0;" x1="385.5" x2="385.5" y1="82.6094" y2="1015.9375"/><line style="stroke:#181818;stroke-width:0.5;stroke-dasharray:5.0,5.0;" x1="658.5" x2="658.5" y1="82.6094" y2="1015.9375"/><line style="stroke:#181818;stroke-width:0.5;stroke-dasharray:5.0,5.0;" x1="1002" x2="1002" y1="82.6094" y2="1015.9375"/><line style="stroke:#181818;stroke-width:0.5;stroke-dasharray:5.0,5.0;" x1="1091" x2="1091" y1="82.6094" y2="1015.9375"/><text fill="#000000" font-family="sans-serif" font-size="14" lengthAdjust="spacing" textLength="29" x="20" y="79.5332">User</text><ellipse cx="37.5" cy="13.5" fill="#E2E2F0" rx="8" ry="8" style="stroke:#181818;stroke-width:0.5;"/><path d="M37.5,21.5 L37.5,48.5 M24.5,29.5 L50.5,29.5 M37.5,48.5 L24.5,63.5 M37.5,48.5 L50.5,63.5 " fill="none" style="stroke:#181818;stroke-width:0.5;"/><text fill="#000000" font-family="sans-serif" font-size="14" lengthAdjust="spacing" textLength="29" x="20" y="1029.4707">User</text><ellipse cx="37.5" cy="1041.0469" fill="#E2E2F0" rx="8" ry="8" style="stroke:#181818;stroke-width:0.5;"/><path d="M37.5,1049.0469 L37.5,1076.0469 M24.5,1057.0469 L50.5,1057.0469 M37.5,1076.0469 L24.5,1091.0469 M37.5,1076.0469 L50.5,1091.0469 " fill="none" style="stroke:#181818;stroke-width:0.5;"/><text fill="#000000" font-family="sans-serif" font-size="14" lengthAdjust="spacing" textLength="84" x="340.5" y="79.5332">UserInterface</text><path d="M365,37 L365,61 M365,49 L382,49 " fill="none" style="stroke:#181818;stroke-width:0.5;"/><ellipse cx="394" cy="49" fill="#E2E2F0" rx="12" ry="12" style="stroke:#181818;stroke-width:0.5;"/><text fill="#000000" font-family="sans-serif" font-size="14" lengthAdjust="spacing" textLength="84" x="340.5" y="1029.4707">UserInterface</text><path d="M365,1036.5469 L365,1060.5469 M365,1048.5469 L382,1048.5469 " fill="none" style="stroke:#181818;stroke-width:0.5;"/><ellipse cx="394" cy="1048.5469" fill="#E2E2F0" rx="12" ry="12" style="stroke:#181818;stroke-width:0.5;"/><text fill="#000000" font-family="sans-serif" font-size="14" lengthAdjust="spacing" textLength="64" x="623.5" y="79.5332">UserClass</text><ellipse cx="658.5" cy="49" fill="#E2E2F0" rx="12" ry="12" style="stroke:#181818;stroke-width:0.5;"/><line style="stroke:#181818;stroke-width:0.5;" x1="646.5" x2="670.5" y1="63" y2="63"/><text fill="#000000" font-family="sans-serif" font-size="14" lengthAdjust="spacing" textLength="64" x="623.5" y="1029.4707">UserClass</text><ellipse cx="658.5" cy="1048.5469" fill="#E2E2F0" rx="12" ry="12" style="stroke:#181818;stroke-width:0.5;"/><line style="stroke:#181818;stroke-width:0.5;" x1="646.5" x2="670.5" y1="1062.5469" y2="1062.5469"/><text fill="#000000" font-family="sans-serif" font-size="14" lengthAdjust="spacing" textLength="61" x="969" y="79.5332">Database</text><path d="M984.5,29 C984.5,19 1002.5,19 1002.5,19 C1002.5,19 1020.5,19 1020.5,29 L1020.5,55 C1020.5,65 1002.5,65 1002.5,65 C1002.5,65 984.5,65 984.5,55 L984.5,29 " fill="#E2E2F0" style="stroke:#181818;stroke-width:1.5;"/><path d="M984.5,29 C984.5,39 1002.5,39 1002.5,39 C1002.5,39 1020.5,39 1020.5,29 " fill="none" style="stroke:#181818;stroke-width:1.5;"/><text fill="#000000" font-family="sans-serif" font-size="14" lengthAdjust="spacing" textLength="61" x="969" y="1029.4707">Database</text><path d="M984.5,1042.5469 C984.5,1032.5469 1002.5,1032.5469 1002.5,1032.5469 C1002.5,1032.5469 1020.5,1032.5469 1020.5,1042.5469 L1020.5,1068.5469 C1020.5,1078.5469 1002.5,1078.5469 1002.5,1078.5469 C1002.5,1078.5469 984.5,1078.5469 984.5,1068.5469 L984.5,1042.5469 " fill="#E2E2F0" style="stroke:#181818;stroke-width:1.5;"/><path d="M984.5,1042.5469 C984.5,1052.5469 1002.5,1052.5469 1002.5,1052.5469 C1002.5,1052.5469 1020.5,1052.5469 1020.5,1042.5469 " fill="none" style="stroke:#181818;stroke-width:1.5;"/><text fill="#000000" font-family="sans-serif" font-size="14" lengthAdjust="spacing" textLength="84" x="1046" y="79.5332">Email System</text><ellipse cx="1091" cy="13.5" fill="#E2E2F0" rx="8" ry="8" style="stroke:#181818;stroke-width:0.5;"/><path d="M1091,21.5 L1091,48.5 M1078,29.5 L1104,29.5 M1091,48.5 L1078,63.5 M1091,48.5 L1104,63.5 " fill="none" style="stroke:#181818;stroke-width:0.5;"/><text fill="#000000" font-family="sans-serif" font-size="14" lengthAdjust="spacing" textLength="84" x="1046" y="1029.4707">Email System</text><ellipse cx="1091" cy="1041.0469" fill="#E2E2F0" rx="8" ry="8" style="stroke:#181818;stroke-width:0.5;"/><path d="M1091,1049.0469 L1091,1076.0469 M1078,1057.0469 L1104,1057.0469 M1091,1076.0469 L1078,1091.0469 M1091,1076.0469 L1104,1091.0469 " fill="none" style="stroke:#181818;stroke-width:0.5;"/><rect fill="#FFFFFF" height="914.3281" style="stroke:#181818;stroke-width:1.0;" width="10" x="32.5" y="92.6094"/><rect fill="#FFFFFF" height="914.3281" style="stroke:#181818;stroke-width:1.0;" width="10" x="380.5" y="92.6094"/><rect fill="#FFFFFF" height="702.4766" style="stroke:#181818;stroke-width:1.0;" width="10" x="653.5" y="304.4609"/><rect fill="#FFFFFF" height="672.125" style="stroke:#181818;stroke-width:1.0;" width="10" x="997.5" y="334.8125"/><rect fill="#FFFFFF" height="146.7578" style="stroke:#181818;stroke-width:1.0;" width="10" x="1086" y="676.0703"/><polygon fill="#181818" points="53.5,110.9609,43.5,114.9609,53.5,118.9609,49.5,114.9609" style="stroke:#181818;stroke-width:1.0;"/><line style="stroke:#181818;stroke-width:1.0;" x1="47.5" x2="379.5" y1="114.9609" y2="114.9609"/><text fill="#000000" font-family="sans-serif" font-size="13" font-weight="bold" lengthAdjust="spacing" textLength="11" x="59.5" y="110.1045">1:</text><text fill="#000000" font-family="sans-serif" font-size="13" lengthAdjust="spacing" textLength="201" x="74.5" y="110.1045">Display "forget password" interface</text><path d="M10,129.9609 L75,129.9609 L75,138.3125 L65,148.3125 L10,148.3125 L10,129.9609 " fill="#EEEEEE" style="stroke:#000000;stroke-width:1.5;"/><rect fill="none" height="114.7969" style="stroke:#000000;stroke-width:1.5;" width="1136" x="10" y="129.9609"/><text fill="#000000" font-family="sans-serif" font-size="13" font-weight="bold" lengthAdjust="spacing" textLength="20" x="25" y="144.4561">opt</text><text fill="#000000" font-family="sans-serif" font-size="11" font-weight="bold" lengthAdjust="spacing" textLength="187" x="90" y="143.3799">[The user clicks "Return to login"]</text><rect fill="none" height="41.4453" style="stroke:#000000;stroke-width:1.5;" width="1122" x="17" y="173.3125"/><path d="M17,173.3125 L79,173.3125 L79,181.3125 L69,191.3125 L17,191.3125 L17,173.3125 " fill="#EEEEEE" style="stroke:#000000;stroke-width:2.0;"/><text fill="#000000" font-family="sans-serif" font-size="13" font-weight="bold" lengthAdjust="spacing" textLength="17" x="30" y="188.8076">ref</text><text fill="#000000" font-family="sans-serif" font-size="12" lengthAdjust="spacing" textLength="78" x="539" y="207.7695">Login(UC_02)</text><polygon fill="#181818" points="368.5,270.1094,378.5,274.1094,368.5,278.1094,372.5,274.1094" style="stroke:#181818;stroke-width:1.0;"/><line style="stroke:#181818;stroke-width:1.0;" x1="42.5" x2="374.5" y1="274.1094" y2="274.1094"/><text fill="#000000" font-family="sans-serif" font-size="13" font-weight="bold" lengthAdjust="spacing" textLength="11" x="49.5" y="269.2529">2:</text><text fill="#000000" font-family="sans-serif" font-size="13" lengthAdjust="spacing" textLength="154" x="64.5" y="269.2529">Enter Email of the account</text><polygon fill="#181818" points="641.5,300.4609,651.5,304.4609,641.5,308.4609,645.5,304.4609" style="stroke:#181818;stroke-width:1.0;"/><line style="stroke:#181818;stroke-width:1.0;" x1="390.5" x2="647.5" y1="304.4609" y2="304.4609"/><text fill="#000000" font-family="sans-serif" font-size="13" font-weight="bold" lengthAdjust="spacing" textLength="11" x="397.5" y="299.6045">3:</text><text fill="#000000" font-family="sans-serif" font-size="13" lengthAdjust="spacing" textLength="104" x="412.5" y="299.6045">Sent User's Email</text><polygon fill="#181818" points="985.5,330.8125,995.5,334.8125,985.5,338.8125,989.5,334.8125" style="stroke:#181818;stroke-width:1.0;"/><line style="stroke:#181818;stroke-width:1.0;" x1="663.5" x2="991.5" y1="334.8125" y2="334.8125"/><text fill="#000000" font-family="sans-serif" font-size="13" font-weight="bold" lengthAdjust="spacing" textLength="11" x="670.5" y="329.9561">4:</text><text fill="#000000" font-family="sans-serif" font-size="13" lengthAdjust="spacing" textLength="107" x="685.5" y="329.9561">Sent Email adress</text><path d="M10,349.8125 L71,349.8125 L71,358.1641 L61,368.1641 L10,368.1641 L10,349.8125 " fill="#EEEEEE" style="stroke:#000000;stroke-width:1.5;"/><rect fill="none" height="205.8516" style="stroke:#000000;stroke-width:1.5;" width="1136" x="10" y="349.8125"/><text fill="#000000" font-family="sans-serif" font-size="13" font-weight="bold" lengthAdjust="spacing" textLength="16" x="25" y="364.3076">alt</text><text fill="#000000" font-family="sans-serif" font-size="11" font-weight="bold" lengthAdjust="spacing" textLength="194" x="86" y="363.2314">[Email or username does not exist]</text><polygon fill="#181818" points="674.5,386.5156,664.5,390.5156,674.5,394.5156,670.5,390.5156" style="stroke:#181818;stroke-width:1.0;"/><line style="stroke:#181818;stroke-width:1.0;" x1="668.5" x2="996.5" y1="390.5156" y2="390.5156"/><text fill="#000000" font-family="sans-serif" font-size="13" font-weight="bold" lengthAdjust="spacing" textLength="11" x="680.5" y="385.6592">5:</text><text fill="#000000" font-family="sans-serif" font-size="13" lengthAdjust="spacing" textLength="295" x="695.5" y="385.6592">Send unable to find Email or username in database</text><polygon fill="#181818" points="401.5,416.8672,391.5,420.8672,401.5,424.8672,397.5,420.8672" style="stroke:#181818;stroke-width:1.0;"/><line style="stroke:#181818;stroke-width:1.0;" x1="395.5" x2="652.5" y1="420.8672" y2="420.8672"/><text fill="#000000" font-family="sans-serif" font-size="13" font-weight="bold" lengthAdjust="spacing" textLength="11" x="407.5" y="416.0107">6:</text><text fill="#000000" font-family="sans-serif" font-size="13" lengthAdjust="spacing" textLength="224" x="422.5" y="416.0107">Send unable to find Email or username</text><polygon fill="#181818" points="53.5,447.2188,43.5,451.2188,53.5,455.2188,49.5,451.2188" style="stroke:#181818;stroke-width:1.0;"/><line style="stroke:#181818;stroke-width:1.0;" x1="47.5" x2="379.5" y1="451.2188" y2="451.2188"/><text fill="#000000" font-family="sans-serif" font-size="13" font-weight="bold" lengthAdjust="spacing" textLength="11" x="59.5" y="446.3623">7:</text><text fill="#000000" font-family="sans-serif" font-size="13" lengthAdjust="spacing" textLength="299" x="74.5" y="446.3623">Notify user that Email or Username cannot be found</text><rect fill="none" height="41.4453" style="stroke:#000000;stroke-width:1.5;" width="1122" x="17" y="484.2188"/><path d="M17,484.2188 L79,484.2188 L79,492.2188 L69,502.2188 L17,502.2188 L17,484.2188 " fill="#EEEEEE" style="stroke:#000000;stroke-width:2.0;"/><text fill="#000000" font-family="sans-serif" font-size="13" font-weight="bold" lengthAdjust="spacing" textLength="17" x="30" y="499.7139">ref</text><text fill="#000000" font-family="sans-serif" font-size="12" lengthAdjust="spacing" textLength="138" x="509" y="518.6758">ForgotPassword(UC_03)</text><polygon fill="#181818" points="674.5,581.0156,664.5,585.0156,674.5,589.0156,670.5,585.0156" style="stroke:#181818;stroke-width:1.0;"/><line style="stroke:#181818;stroke-width:1.0;" x1="668.5" x2="996.5" y1="585.0156" y2="585.0156"/><text fill="#000000" font-family="sans-serif" font-size="13" font-weight="bold" lengthAdjust="spacing" textLength="11" x="680.5" y="580.1592">5:</text><text fill="#000000" font-family="sans-serif" font-size="13" lengthAdjust="spacing" textLength="75" x="695.5" y="580.1592">Confirm User</text><polygon fill="#181818" points="401.5,611.3672,391.5,615.3672,401.5,619.3672,397.5,615.3672" style="stroke:#181818;stroke-width:1.0;"/><line style="stroke:#181818;stroke-width:1.0;" x1="395.5" x2="652.5" y1="615.3672" y2="615.3672"/><text fill="#000000" font-family="sans-serif" font-size="13" font-weight="bold" lengthAdjust="spacing" textLength="11" x="407.5" y="610.5107">6:</text><text fill="#000000" font-family="sans-serif" font-size="13" lengthAdjust="spacing" textLength="131" x="422.5" y="610.5107">Return User Confirmed</text><polygon fill="#181818" points="53.5,641.7188,43.5,645.7188,53.5,649.7188,49.5,645.7188" style="stroke:#181818;stroke-width:1.0;"/><line style="stroke:#181818;stroke-width:1.0;" x1="47.5" x2="379.5" y1="645.7188" y2="645.7188"/><text fill="#000000" font-family="sans-serif" font-size="13" font-weight="bold" lengthAdjust="spacing" textLength="11" x="59.5" y="640.8623">7:</text><text fill="#000000" font-family="sans-serif" font-size="13" lengthAdjust="spacing" textLength="247" x="74.5" y="640.8623">Display screen for enter "Verification code"</text><polygon fill="#181818" points="1074,672.0703,1084,676.0703,1074,680.0703,1078,676.0703" style="stroke:#181818;stroke-width:1.0;"/><line style="stroke:#181818;stroke-width:1.0;" x1="663.5" x2="1080" y1="676.0703" y2="676.0703"/><text fill="#000000" font-family="sans-serif" font-size="13" font-weight="bold" lengthAdjust="spacing" textLength="11" x="670.5" y="671.2139">8:</text><text fill="#000000" font-family="sans-serif" font-size="13" lengthAdjust="spacing" textLength="148" x="685.5" y="671.2139">Request Verification code</text><polygon fill="#181818" points="53.5,702.4219,43.5,706.4219,53.5,710.4219,49.5,706.4219" style="stroke:#181818;stroke-width:1.0;"/><line style="stroke:#181818;stroke-width:1.0;" x1="47.5" x2="1085" y1="706.4219" y2="706.4219"/><text fill="#000000" font-family="sans-serif" font-size="13" font-weight="bold" lengthAdjust="spacing" textLength="11" x="59.5" y="701.5654">9:</text><text fill="#000000" font-family="sans-serif" font-size="13" lengthAdjust="spacing" textLength="164" x="74.5" y="701.5654">Sent Verification code Email</text><path d="M10,721.4219 L83,721.4219 L83,729.7734 L73,739.7734 L10,739.7734 L10,721.4219 " fill="#EEEEEE" style="stroke:#000000;stroke-width:1.5;"/><rect fill="none" height="109.4063" style="stroke:#000000;stroke-width:1.5;" width="1136" x="10" y="721.4219"/><text fill="#000000" font-family="sans-serif" font-size="13" font-weight="bold" lengthAdjust="spacing" textLength="28" x="25" y="735.917">loop</text><text fill="#000000" font-family="sans-serif" font-size="11" font-weight="bold" lengthAdjust="spacing" textLength="247" x="98" y="734.8408">[Until User enters the right Verification code]</text><polygon fill="#181818" points="368.5,758.125,378.5,762.125,368.5,766.125,372.5,762.125" style="stroke:#181818;stroke-width:1.0;"/><line style="stroke:#181818;stroke-width:1.0;" x1="42.5" x2="374.5" y1="762.125" y2="762.125"/><text fill="#000000" font-family="sans-serif" font-size="13" font-weight="bold" lengthAdjust="spacing" textLength="18" x="49.5" y="757.2686">10:</text><text fill="#000000" font-family="sans-serif" font-size="13" lengthAdjust="spacing" textLength="131" x="71.5" y="757.2686">Enter Verification code</text><polygon fill="#181818" points="1074,788.4766,1084,792.4766,1074,796.4766,1078,792.4766" style="stroke:#181818;stroke-width:1.0;"/><line style="stroke:#181818;stroke-width:1.0;" x1="390.5" x2="1080" y1="792.4766" y2="792.4766"/><text fill="#000000" font-family="sans-serif" font-size="13" font-weight="bold" lengthAdjust="spacing" textLength="18" x="397.5" y="787.6201">11:</text><text fill="#000000" font-family="sans-serif" font-size="13" lengthAdjust="spacing" textLength="127" x="419.5" y="787.6201">Sent Verification code</text><polygon fill="#181818" points="401.5,818.8281,391.5,822.8281,401.5,826.8281,397.5,822.8281" style="stroke:#181818;stroke-width:1.0;"/><line style="stroke:#181818;stroke-width:1.0;" x1="395.5" x2="1090" y1="822.8281" y2="822.8281"/><text fill="#000000" font-family="sans-serif" font-size="13" font-weight="bold" lengthAdjust="spacing" textLength="18" x="407.5" y="817.9717">12:</text><text fill="#000000" font-family="sans-serif" font-size="13" lengthAdjust="spacing" textLength="144" x="429.5" y="817.9717">Confirm Verification code</text><polygon fill="#181818" points="53.5,856.1797,43.5,860.1797,53.5,864.1797,49.5,860.1797" style="stroke:#181818;stroke-width:1.0;"/><line style="stroke:#181818;stroke-width:1.0;" x1="47.5" x2="379.5" y1="860.1797" y2="860.1797"/><text fill="#000000" font-family="sans-serif" font-size="13" font-weight="bold" lengthAdjust="spacing" textLength="18" x="59.5" y="855.3232">13:</text><text fill="#000000" font-family="sans-serif" font-size="13" lengthAdjust="spacing" textLength="195" x="81.5" y="855.3232">Display Change password Screen</text><polygon fill="#181818" points="368.5,886.5313,378.5,890.5313,368.5,894.5313,372.5,890.5313" style="stroke:#181818;stroke-width:1.0;"/><line style="stroke:#181818;stroke-width:1.0;" x1="42.5" x2="374.5" y1="890.5313" y2="890.5313"/><text fill="#000000" font-family="sans-serif" font-size="13" font-weight="bold" lengthAdjust="spacing" textLength="18" x="49.5" y="885.6748">14:</text><text fill="#000000" font-family="sans-serif" font-size="13" lengthAdjust="spacing" textLength="117" x="71.5" y="885.6748">Enter new password</text><polygon fill="#181818" points="641.5,916.8828,651.5,920.8828,641.5,924.8828,645.5,920.8828" style="stroke:#181818;stroke-width:1.0;"/><line style="stroke:#181818;stroke-width:1.0;" x1="390.5" x2="647.5" y1="920.8828" y2="920.8828"/><text fill="#000000" font-family="sans-serif" font-size="13" font-weight="bold" lengthAdjust="spacing" textLength="18" x="397.5" y="916.0264">15:</text><text fill="#000000" font-family="sans-serif" font-size="13" lengthAdjust="spacing" textLength="158" x="419.5" y="916.0264">Update new User password</text><polygon fill="#181818" points="985.5,947.2344,995.5,951.2344,985.5,955.2344,989.5,951.2344" style="stroke:#181818;stroke-width:1.0;"/><line style="stroke:#181818;stroke-width:1.0;" x1="663.5" x2="991.5" y1="951.2344" y2="951.2344"/><text fill="#000000" font-family="sans-serif" font-size="13" font-weight="bold" lengthAdjust="spacing" textLength="18" x="670.5" y="946.3779">16:</text><text fill="#000000" font-family="sans-serif" font-size="13" lengthAdjust="spacing" textLength="158" x="692.5" y="946.3779">Update new User password</text><polygon fill="#181818" points="53.5,993.9375,43.5,997.9375,53.5,1001.9375,49.5,997.9375" style="stroke:#181818;stroke-width:1.0;"/><line style="stroke:#181818;stroke-width:1.0;" x1="47.5" x2="379.5" y1="997.9375" y2="997.9375"/><text fill="#000000" font-family="sans-serif" font-size="13" font-weight="bold" lengthAdjust="spacing" textLength="18" x="59.5" y="984.9053">17:</text><text fill="#000000" font-family="sans-serif" font-size="13" lengthAdjust="spacing" textLength="248" x="81.5" y="976.7295">Notify the user that the password has been</text><text fill="#000000" font-family="sans-serif" font-size="13" lengthAdjust="spacing" textLength="125" x="81.5" y="993.0811">changed successfully</text><!--MD5=[4174b623c622a4ba5e2154a6acc812a6]
@startuml
actor User
boundary UserInterface
entity UserClass
database Database 
actor "Email System" as Email
skinparam MaxMessageSize 300
autonumber "<b>0:"

activate User
UserInterface->User: Display "forget password" interface
opt The user clicks "Return to login"
|||
ref over User, Email: Login(UC_02)
|||
end
activate UserInterface
User->UserInterface: Enter Email of the account
UserInterface->UserClass:Sent User's Email
activate UserClass
UserClass->Database:Sent Email adress
activate Database
alt Email or username does not exist
Database->UserClass: Send unable to find Email or username in database
UserClass->UserInterface: Send unable to find Email or username
UserInterface->User: Notify user that Email or Username cannot be found
|||
ref over User, Email: ForgotPassword(UC_03)
|||
end
autonumber 5 "<b>0:"
Database->UserClass: Confirm User
UserClass->UserInterface:Return User Confirmed
UserInterface->User: Display screen for enter "Verification code"
UserClass->Email: Request Verification code
activate Email
Email-> User:Sent Verification code Email
loop Until User enters the right Verification code
User->UserInterface: Enter Verification code
UserInterface->Email: Sent Verification code
Email->UserInterface: Confirm Verification code
deactivate Email
end

UserInterface->User: Display Change password Screen
User->UserInterface: Enter new password
UserInterface->UserClass: Update new User password
UserClass->Database:Update new User password
UserInterface->User:Notify the user that the password has been changed successfully
@enduml

PlantUML version 1.2022.7(Tue Aug 23 00:01:30 ICT 2022)
(GPL source distribution)
Java Runtime: Java(TM) SE Runtime Environment
JVM: Java HotSpot(TM) 64-Bit Server VM
Default Encoding: Cp1252
Language: vi
Country: VN
--></g></svg>