<?xml version="1.0" encoding="UTF-8" standalone="no"?><svg xmlns="http://www.w3.org/2000/svg" xmlns:xlink="http://www.w3.org/1999/xlink" contentStyleType="text/css" height="1272px" preserveAspectRatio="none" style="width:1122px;height:1272px;background:#FFFFFF;" version="1.1" viewBox="0 0 1122 1272" width="1122px" zoomAndPan="magnify"><defs/><g><rect fill="#FFFFFF" height="1053.2188" style="stroke:#181818;stroke-width:1.0;" width="10" x="32.5" y="110.2188"/><rect fill="#FFFFFF" height="1030.8672" style="stroke:#181818;stroke-width:1.0;" width="10" x="384.5" y="132.5703"/><rect fill="#FFFFFF" height="91.0547" style="stroke:#181818;stroke-width:1.0;" width="10" x="631.5" y="273.9766"/><rect fill="#FFFFFF" height="91.0547" style="stroke:#181818;stroke-width:1.0;" width="10" x="631.5" y="629.3281"/><rect fill="#FFFFFF" height="91.0547" style="stroke:#181818;stroke-width:1.0;" width="10" x="631.5" y="984.6797"/><rect fill="#FFFFFF" height="30.3516" style="stroke:#181818;stroke-width:1.0;" width="10" x="878.5" y="304.3281"/><rect fill="#FFFFFF" height="30.3516" style="stroke:#181818;stroke-width:1.0;" width="10" x="878.5" y="659.6797"/><rect fill="#FFFFFF" height="30.3516" style="stroke:#181818;stroke-width:1.0;" width="10" x="878.5" y="1015.0313"/><rect fill="#FFFFFF" height="91.0547" style="stroke:#181818;stroke-width:1.0;" width="10" x="964" y="507.9219"/><rect fill="#FFFFFF" height="91.0547" style="stroke:#181818;stroke-width:1.0;" width="10" x="1058" y="863.2734"/><rect fill="none" height="977.5156" style="stroke:#000000;stroke-width:1.5;" width="1105" x="10" y="177.9219"/><line style="stroke:#181818;stroke-width:0.5;stroke-dasharray:5.0,5.0;" x1="37" x2="37" y1="100.2188" y2="1172.4375"/><line style="stroke:#181818;stroke-width:0.5;stroke-dasharray:5.0,5.0;" x1="389.5" x2="389.5" y1="100.2188" y2="1172.4375"/><line style="stroke:#181818;stroke-width:0.5;stroke-dasharray:5.0,5.0;" x1="636.5" x2="636.5" y1="100.2188" y2="1172.4375"/><line style="stroke:#181818;stroke-width:0.5;stroke-dasharray:5.0,5.0;" x1="883" x2="883" y1="100.2188" y2="1172.4375"/><line style="stroke:#181818;stroke-width:0.5;stroke-dasharray:5.0,5.0;" x1="969" x2="969" y1="100.2188" y2="1172.4375"/><line style="stroke:#181818;stroke-width:0.5;stroke-dasharray:5.0,5.0;" x1="1063" x2="1063" y1="100.2188" y2="1172.4375"/><text fill="#000000" font-family="sans-serif" font-size="14" lengthAdjust="spacing" textLength="29" x="20" y="97.1426">User</text><ellipse cx="37.5" cy="31.1094" fill="#E2E2F0" rx="8" ry="8" style="stroke:#181818;stroke-width:0.5;"/><path d="M37.5,39.1094 L37.5,66.1094 M24.5,47.1094 L50.5,47.1094 M37.5,66.1094 L24.5,81.1094 M37.5,66.1094 L50.5,81.1094 " fill="none" style="stroke:#181818;stroke-width:0.5;"/><text fill="#000000" font-family="sans-serif" font-size="14" lengthAdjust="spacing" textLength="29" x="20" y="1185.9707">User</text><ellipse cx="37.5" cy="1197.5469" fill="#E2E2F0" rx="8" ry="8" style="stroke:#181818;stroke-width:0.5;"/><path d="M37.5,1205.5469 L37.5,1232.5469 M24.5,1213.5469 L50.5,1213.5469 M37.5,1232.5469 L24.5,1247.5469 M37.5,1232.5469 L50.5,1247.5469 " fill="none" style="stroke:#181818;stroke-width:0.5;"/><text fill="#000000" font-family="sans-serif" font-size="14" lengthAdjust="spacing" textLength="84" x="344.5" y="97.1426">UserInterface</text><path d="M369,54.6094 L369,78.6094 M369,66.6094 L386,66.6094 " fill="none" style="stroke:#181818;stroke-width:0.5;"/><ellipse cx="398" cy="66.6094" fill="#E2E2F0" rx="12" ry="12" style="stroke:#181818;stroke-width:0.5;"/><text fill="#000000" font-family="sans-serif" font-size="14" lengthAdjust="spacing" textLength="84" x="344.5" y="1185.9707">UserInterface</text><path d="M369,1193.0469 L369,1217.0469 M369,1205.0469 L386,1205.0469 " fill="none" style="stroke:#181818;stroke-width:0.5;"/><ellipse cx="398" cy="1205.0469" fill="#E2E2F0" rx="12" ry="12" style="stroke:#181818;stroke-width:0.5;"/><text fill="#000000" font-family="sans-serif" font-size="14" lengthAdjust="spacing" textLength="64" x="601.5" y="97.1426">UserClass</text><ellipse cx="636.5" cy="66.6094" fill="#E2E2F0" rx="12" ry="12" style="stroke:#181818;stroke-width:0.5;"/><line style="stroke:#181818;stroke-width:0.5;" x1="624.5" x2="648.5" y1="80.6094" y2="80.6094"/><text fill="#000000" font-family="sans-serif" font-size="14" lengthAdjust="spacing" textLength="64" x="601.5" y="1185.9707">UserClass</text><ellipse cx="636.5" cy="1205.0469" fill="#E2E2F0" rx="12" ry="12" style="stroke:#181818;stroke-width:0.5;"/><line style="stroke:#181818;stroke-width:0.5;" x1="624.5" x2="648.5" y1="1219.0469" y2="1219.0469"/><text fill="#000000" font-family="sans-serif" font-size="14" lengthAdjust="spacing" textLength="61" x="850" y="97.1426">Database</text><path d="M865.5,46.6094 C865.5,36.6094 883.5,36.6094 883.5,36.6094 C883.5,36.6094 901.5,36.6094 901.5,46.6094 L901.5,72.6094 C901.5,82.6094 883.5,82.6094 883.5,82.6094 C883.5,82.6094 865.5,82.6094 865.5,72.6094 L865.5,46.6094 " fill="#E2E2F0" style="stroke:#181818;stroke-width:1.5;"/><path d="M865.5,46.6094 C865.5,56.6094 883.5,56.6094 883.5,56.6094 C883.5,56.6094 901.5,56.6094 901.5,46.6094 " fill="none" style="stroke:#181818;stroke-width:1.5;"/><text fill="#000000" font-family="sans-serif" font-size="14" lengthAdjust="spacing" textLength="61" x="850" y="1185.9707">Database</text><path d="M865.5,1199.0469 C865.5,1189.0469 883.5,1189.0469 883.5,1189.0469 C883.5,1189.0469 901.5,1189.0469 901.5,1199.0469 L901.5,1225.0469 C901.5,1235.0469 883.5,1235.0469 883.5,1235.0469 C883.5,1235.0469 865.5,1235.0469 865.5,1225.0469 L865.5,1199.0469 " fill="#E2E2F0" style="stroke:#181818;stroke-width:1.5;"/><path d="M865.5,1199.0469 C865.5,1209.0469 883.5,1209.0469 883.5,1209.0469 C883.5,1209.0469 901.5,1209.0469 901.5,1199.0469 " fill="none" style="stroke:#181818;stroke-width:1.5;"/><text fill="#000000" font-family="sans-serif" font-size="14" lengthAdjust="spacing" textLength="78" x="927" y="79.5332">&lt;&lt;System&gt;&gt;</text><text fill="#000000" font-family="sans-serif" font-size="14" lengthAdjust="spacing" textLength="63" x="934.5" y="97.1426">Facebook</text><ellipse cx="969" cy="13.5" fill="#E2E2F0" rx="8" ry="8" style="stroke:#181818;stroke-width:0.5;"/><path d="M969,21.5 L969,48.5 M956,29.5 L982,29.5 M969,48.5 L956,63.5 M969,48.5 L982,63.5 " fill="none" style="stroke:#181818;stroke-width:0.5;"/><text fill="#000000" font-family="sans-serif" font-size="14" lengthAdjust="spacing" textLength="78" x="927" y="1185.9707">&lt;&lt;System&gt;&gt;</text><text fill="#000000" font-family="sans-serif" font-size="14" lengthAdjust="spacing" textLength="63" x="934.5" y="1203.5801">Facebook</text><ellipse cx="969" cy="1215.1563" fill="#E2E2F0" rx="8" ry="8" style="stroke:#181818;stroke-width:0.5;"/><path d="M969,1223.1563 L969,1250.1563 M956,1231.1563 L982,1231.1563 M969,1250.1563 L956,1265.1563 M969,1250.1563 L982,1265.1563 " fill="none" style="stroke:#181818;stroke-width:0.5;"/><text fill="#000000" font-family="sans-serif" font-size="14" lengthAdjust="spacing" textLength="78" x="1021" y="79.5332">&lt;&lt;System&gt;&gt;</text><text fill="#000000" font-family="sans-serif" font-size="14" lengthAdjust="spacing" textLength="46" x="1037" y="97.1426">Google</text><ellipse cx="1063" cy="13.5" fill="#E2E2F0" rx="8" ry="8" style="stroke:#181818;stroke-width:0.5;"/><path d="M1063,21.5 L1063,48.5 M1050,29.5 L1076,29.5 M1063,48.5 L1050,63.5 M1063,48.5 L1076,63.5 " fill="none" style="stroke:#181818;stroke-width:0.5;"/><text fill="#000000" font-family="sans-serif" font-size="14" lengthAdjust="spacing" textLength="78" x="1021" y="1185.9707">&lt;&lt;System&gt;&gt;</text><text fill="#000000" font-family="sans-serif" font-size="14" lengthAdjust="spacing" textLength="46" x="1037" y="1203.5801">Google</text><ellipse cx="1063" cy="1215.1563" fill="#E2E2F0" rx="8" ry="8" style="stroke:#181818;stroke-width:0.5;"/><path d="M1063,1223.1563 L1063,1250.1563 M1050,1231.1563 L1076,1231.1563 M1063,1250.1563 L1050,1265.1563 M1063,1250.1563 L1076,1265.1563 " fill="none" style="stroke:#181818;stroke-width:0.5;"/><rect fill="#FFFFFF" height="1053.2188" style="stroke:#181818;stroke-width:1.0;" width="10" x="32.5" y="110.2188"/><rect fill="#FFFFFF" height="1030.8672" style="stroke:#181818;stroke-width:1.0;" width="10" x="384.5" y="132.5703"/><rect fill="#FFFFFF" height="91.0547" style="stroke:#181818;stroke-width:1.0;" width="10" x="631.5" y="273.9766"/><rect fill="#FFFFFF" height="91.0547" style="stroke:#181818;stroke-width:1.0;" width="10" x="631.5" y="629.3281"/><rect fill="#FFFFFF" height="91.0547" style="stroke:#181818;stroke-width:1.0;" width="10" x="631.5" y="984.6797"/><rect fill="#FFFFFF" height="30.3516" style="stroke:#181818;stroke-width:1.0;" width="10" x="878.5" y="304.3281"/><rect fill="#FFFFFF" height="30.3516" style="stroke:#181818;stroke-width:1.0;" width="10" x="878.5" y="659.6797"/><rect fill="#FFFFFF" height="30.3516" style="stroke:#181818;stroke-width:1.0;" width="10" x="878.5" y="1015.0313"/><rect fill="#FFFFFF" height="91.0547" style="stroke:#181818;stroke-width:1.0;" width="10" x="964" y="507.9219"/><rect fill="#FFFFFF" height="91.0547" style="stroke:#181818;stroke-width:1.0;" width="10" x="1058" y="863.2734"/><polygon fill="#181818" points="53.5,128.5703,43.5,132.5703,53.5,136.5703,49.5,132.5703" style="stroke:#181818;stroke-width:1.0;"/><line style="stroke:#181818;stroke-width:1.0;" x1="47.5" x2="383.5" y1="132.5703" y2="132.5703"/><text fill="#000000" font-family="sans-serif" font-size="13" font-weight="bold" lengthAdjust="spacing" textLength="11" x="59.5" y="127.7139">1:</text><text fill="#000000" font-family="sans-serif" font-size="13" lengthAdjust="spacing" textLength="131" x="74.5" y="127.7139">Display Login Interface</text><polygon fill="#181818" points="372.5,158.9219,382.5,162.9219,372.5,166.9219,376.5,162.9219" style="stroke:#181818;stroke-width:1.0;"/><line style="stroke:#181818;stroke-width:1.0;" x1="42.5" x2="378.5" y1="162.9219" y2="162.9219"/><text fill="#000000" font-family="sans-serif" font-size="13" font-weight="bold" lengthAdjust="spacing" textLength="11" x="49.5" y="158.0654">2:</text><text fill="#000000" font-family="sans-serif" font-size="13" lengthAdjust="spacing" textLength="126" x="64.5" y="158.0654">Choose Login method</text><path d="M10,177.9219 L71,177.9219 L71,186.2734 L61,196.2734 L10,196.2734 L10,177.9219 " fill="#EEEEEE" style="stroke:#000000;stroke-width:1.5;"/><rect fill="none" height="977.5156" style="stroke:#000000;stroke-width:1.5;" width="1105" x="10" y="177.9219"/><text fill="#000000" font-family="sans-serif" font-size="13" font-weight="bold" lengthAdjust="spacing" textLength="16" x="25" y="192.417">alt</text><text fill="#000000" font-family="sans-serif" font-size="11" font-weight="bold" lengthAdjust="spacing" textLength="293" x="86" y="191.3408">[User chooses "Web account" (Default) login method]</text><polygon fill="#181818" points="372.5,239.625,382.5,243.625,372.5,247.625,376.5,243.625" style="stroke:#181818;stroke-width:1.0;"/><line style="stroke:#181818;stroke-width:1.0;" x1="42.5" x2="378.5" y1="243.625" y2="243.625"/><text fill="#000000" font-family="sans-serif" font-size="13" font-weight="bold" lengthAdjust="spacing" textLength="11" x="49.5" y="238.7686">3:</text><text fill="#000000" font-family="sans-serif" font-size="13" lengthAdjust="spacing" textLength="279" x="64.5" y="238.7686">Enter Username and password and click "Login"</text><polygon fill="#181818" points="619.5,269.9766,629.5,273.9766,619.5,277.9766,623.5,273.9766" style="stroke:#181818;stroke-width:1.0;"/><line style="stroke:#181818;stroke-width:1.0;" x1="394.5" x2="625.5" y1="273.9766" y2="273.9766"/><text fill="#000000" font-family="sans-serif" font-size="13" font-weight="bold" lengthAdjust="spacing" textLength="11" x="401.5" y="269.1201">4:</text><text fill="#000000" font-family="sans-serif" font-size="13" lengthAdjust="spacing" textLength="143" x="416.5" y="269.1201">Username and password</text><polygon fill="#181818" points="866.5,300.3281,876.5,304.3281,866.5,308.3281,870.5,304.3281" style="stroke:#181818;stroke-width:1.0;"/><line style="stroke:#181818;stroke-width:1.0;" x1="641.5" x2="872.5" y1="304.3281" y2="304.3281"/><text fill="#000000" font-family="sans-serif" font-size="13" font-weight="bold" lengthAdjust="spacing" textLength="11" x="648.5" y="299.4717">5:</text><text fill="#000000" font-family="sans-serif" font-size="13" lengthAdjust="spacing" textLength="143" x="663.5" y="299.4717">Username and password</text><polygon fill="#181818" points="652.5,330.6797,642.5,334.6797,652.5,338.6797,648.5,334.6797" style="stroke:#181818;stroke-width:1.0;"/><line style="stroke:#181818;stroke-width:1.0;" x1="646.5" x2="882.5" y1="334.6797" y2="334.6797"/><text fill="#000000" font-family="sans-serif" font-size="13" font-weight="bold" lengthAdjust="spacing" textLength="11" x="658.5" y="329.8232">6:</text><text fill="#000000" font-family="sans-serif" font-size="13" lengthAdjust="spacing" textLength="198" x="673.5" y="329.8232">Confirm User and User information</text><polygon fill="#181818" points="405.5,361.0313,395.5,365.0313,405.5,369.0313,401.5,365.0313" style="stroke:#181818;stroke-width:1.0;"/><line style="stroke:#181818;stroke-width:1.0;" x1="399.5" x2="635.5" y1="365.0313" y2="365.0313"/><text fill="#000000" font-family="sans-serif" font-size="13" font-weight="bold" lengthAdjust="spacing" textLength="11" x="411.5" y="360.1748">7:</text><text fill="#000000" font-family="sans-serif" font-size="13" lengthAdjust="spacing" textLength="198" x="426.5" y="360.1748">Confirm User and User Information</text><polygon fill="#181818" points="53.5,407.7344,43.5,411.7344,53.5,415.7344,49.5,411.7344" style="stroke:#181818;stroke-width:1.0;"/><line style="stroke:#181818;stroke-width:1.0;" x1="47.5" x2="383.5" y1="411.7344" y2="411.7344"/><text fill="#000000" font-family="sans-serif" font-size="13" font-weight="bold" lengthAdjust="spacing" textLength="11" x="59.5" y="398.7021">8:</text><text fill="#000000" font-family="sans-serif" font-size="13" lengthAdjust="spacing" textLength="292" x="74.5" y="390.5264">Notify the user of successful login and transition to</text><text fill="#000000" font-family="sans-serif" font-size="13" lengthAdjust="spacing" textLength="93" x="74.5" y="406.8779">the main screen</text><line style="stroke:#000000;stroke-width:1.0;stroke-dasharray:2.0,2.0;" x1="10" x2="1115" y1="445.7344" y2="445.7344"/><text fill="#000000" font-family="sans-serif" font-size="11" font-weight="bold" lengthAdjust="spacing" textLength="227" x="15" y="457.1533">[User chooses "Facebook" login method]</text><polygon fill="#181818" points="952,503.9219,962,507.9219,952,511.9219,956,507.9219" style="stroke:#181818;stroke-width:1.0;"/><line style="stroke:#181818;stroke-width:1.0;" x1="394.5" x2="958" y1="507.9219" y2="507.9219"/><text fill="#000000" font-family="sans-serif" font-size="13" font-weight="bold" lengthAdjust="spacing" textLength="11" x="401.5" y="503.0654">3:</text><text fill="#000000" font-family="sans-serif" font-size="13" lengthAdjust="spacing" textLength="78" x="416.5" y="503.0654">Login request</text><polygon fill="#181818" points="53.5,534.2734,43.5,538.2734,53.5,542.2734,49.5,538.2734" style="stroke:#181818;stroke-width:1.0;"/><line style="stroke:#181818;stroke-width:1.0;" x1="47.5" x2="963" y1="538.2734" y2="538.2734"/><text fill="#000000" font-family="sans-serif" font-size="13" font-weight="bold" lengthAdjust="spacing" textLength="11" x="59.5" y="533.417">4:</text><text fill="#000000" font-family="sans-serif" font-size="13" lengthAdjust="spacing" textLength="117" x="74.5" y="533.417">Display login screen</text><polygon fill="#181818" points="952,564.625,962,568.625,952,572.625,956,568.625" style="stroke:#181818;stroke-width:1.0;"/><line style="stroke:#181818;stroke-width:1.0;" x1="42.5" x2="958" y1="568.625" y2="568.625"/><text fill="#000000" font-family="sans-serif" font-size="13" font-weight="bold" lengthAdjust="spacing" textLength="11" x="49.5" y="563.7686">5:</text><text fill="#000000" font-family="sans-serif" font-size="13" lengthAdjust="spacing" textLength="169" x="64.5" y="563.7686">Login with Facebook account</text><polygon fill="#181818" points="405.5,594.9766,395.5,598.9766,405.5,602.9766,401.5,598.9766" style="stroke:#181818;stroke-width:1.0;"/><line style="stroke:#181818;stroke-width:1.0;" x1="399.5" x2="968" y1="598.9766" y2="598.9766"/><text fill="#000000" font-family="sans-serif" font-size="13" font-weight="bold" lengthAdjust="spacing" textLength="11" x="411.5" y="594.1201">6:</text><text fill="#000000" font-family="sans-serif" font-size="13" lengthAdjust="spacing" textLength="145" x="426.5" y="594.1201">Confirm User with UserID</text><polygon fill="#181818" points="619.5,625.3281,629.5,629.3281,619.5,633.3281,623.5,629.3281" style="stroke:#181818;stroke-width:1.0;"/><line style="stroke:#181818;stroke-width:1.0;" x1="394.5" x2="625.5" y1="629.3281" y2="629.3281"/><text fill="#000000" font-family="sans-serif" font-size="13" font-weight="bold" lengthAdjust="spacing" textLength="11" x="401.5" y="624.4717">7:</text><text fill="#000000" font-family="sans-serif" font-size="13" lengthAdjust="spacing" textLength="39" x="416.5" y="624.4717">UserID</text><polygon fill="#181818" points="866.5,655.6797,876.5,659.6797,866.5,663.6797,870.5,659.6797" style="stroke:#181818;stroke-width:1.0;"/><line style="stroke:#181818;stroke-width:1.0;" x1="641.5" x2="872.5" y1="659.6797" y2="659.6797"/><text fill="#000000" font-family="sans-serif" font-size="13" font-weight="bold" lengthAdjust="spacing" textLength="11" x="648.5" y="654.8232">8:</text><text fill="#000000" font-family="sans-serif" font-size="13" lengthAdjust="spacing" textLength="39" x="663.5" y="654.8232">UserID</text><polygon fill="#181818" points="652.5,686.0313,642.5,690.0313,652.5,694.0313,648.5,690.0313" style="stroke:#181818;stroke-width:1.0;"/><line style="stroke:#181818;stroke-width:1.0;" x1="646.5" x2="882.5" y1="690.0313" y2="690.0313"/><text fill="#000000" font-family="sans-serif" font-size="13" font-weight="bold" lengthAdjust="spacing" textLength="11" x="658.5" y="685.1748">9:</text><text fill="#000000" font-family="sans-serif" font-size="13" lengthAdjust="spacing" textLength="94" x="673.5" y="685.1748">User Information</text><polygon fill="#181818" points="405.5,716.3828,395.5,720.3828,405.5,724.3828,401.5,720.3828" style="stroke:#181818;stroke-width:1.0;"/><line style="stroke:#181818;stroke-width:1.0;" x1="399.5" x2="635.5" y1="720.3828" y2="720.3828"/><text fill="#000000" font-family="sans-serif" font-size="13" font-weight="bold" lengthAdjust="spacing" textLength="18" x="411.5" y="715.5264">10:</text><text fill="#000000" font-family="sans-serif" font-size="13" lengthAdjust="spacing" textLength="94" x="433.5" y="715.5264">User Information</text><polygon fill="#181818" points="53.5,763.0859,43.5,767.0859,53.5,771.0859,49.5,767.0859" style="stroke:#181818;stroke-width:1.0;"/><line style="stroke:#181818;stroke-width:1.0;" x1="47.5" x2="383.5" y1="767.0859" y2="767.0859"/><text fill="#000000" font-family="sans-serif" font-size="13" font-weight="bold" lengthAdjust="spacing" textLength="18" x="59.5" y="754.0537">11:</text><text fill="#000000" font-family="sans-serif" font-size="13" lengthAdjust="spacing" textLength="292" x="81.5" y="745.8779">Notify the user of successful login and transition to</text><text fill="#000000" font-family="sans-serif" font-size="13" lengthAdjust="spacing" textLength="93" x="81.5" y="762.2295">the main screen</text><line style="stroke:#000000;stroke-width:1.0;stroke-dasharray:2.0,2.0;" x1="10" x2="1115" y1="801.0859" y2="801.0859"/><text fill="#000000" font-family="sans-serif" font-size="11" font-weight="bold" lengthAdjust="spacing" textLength="213" x="15" y="812.5049">[User chooses "Google" login method]</text><polygon fill="#181818" points="1046,859.2734,1056,863.2734,1046,867.2734,1050,863.2734" style="stroke:#181818;stroke-width:1.0;"/><line style="stroke:#181818;stroke-width:1.0;" x1="394.5" x2="1052" y1="863.2734" y2="863.2734"/><text fill="#000000" font-family="sans-serif" font-size="13" font-weight="bold" lengthAdjust="spacing" textLength="11" x="401.5" y="858.417">3:</text><text fill="#000000" font-family="sans-serif" font-size="13" lengthAdjust="spacing" textLength="78" x="416.5" y="858.417">Login request</text><polygon fill="#181818" points="53.5,889.625,43.5,893.625,53.5,897.625,49.5,893.625" style="stroke:#181818;stroke-width:1.0;"/><line style="stroke:#181818;stroke-width:1.0;" x1="47.5" x2="1057" y1="893.625" y2="893.625"/><text fill="#000000" font-family="sans-serif" font-size="13" font-weight="bold" lengthAdjust="spacing" textLength="11" x="59.5" y="888.7686">4:</text><text fill="#000000" font-family="sans-serif" font-size="13" lengthAdjust="spacing" textLength="117" x="74.5" y="888.7686">Display login screen</text><polygon fill="#181818" points="1046,919.9766,1056,923.9766,1046,927.9766,1050,923.9766" style="stroke:#181818;stroke-width:1.0;"/><line style="stroke:#181818;stroke-width:1.0;" x1="42.5" x2="1052" y1="923.9766" y2="923.9766"/><text fill="#000000" font-family="sans-serif" font-size="13" font-weight="bold" lengthAdjust="spacing" textLength="11" x="49.5" y="919.1201">5:</text><text fill="#000000" font-family="sans-serif" font-size="13" lengthAdjust="spacing" textLength="153" x="64.5" y="919.1201">Login with Google account</text><polygon fill="#181818" points="405.5,950.3281,395.5,954.3281,405.5,958.3281,401.5,954.3281" style="stroke:#181818;stroke-width:1.0;"/><line style="stroke:#181818;stroke-width:1.0;" x1="399.5" x2="1062" y1="954.3281" y2="954.3281"/><text fill="#000000" font-family="sans-serif" font-size="13" font-weight="bold" lengthAdjust="spacing" textLength="11" x="411.5" y="949.4717">6:</text><text fill="#000000" font-family="sans-serif" font-size="13" lengthAdjust="spacing" textLength="145" x="426.5" y="949.4717">Confirm User with UserID</text><polygon fill="#181818" points="619.5,980.6797,629.5,984.6797,619.5,988.6797,623.5,984.6797" style="stroke:#181818;stroke-width:1.0;"/><line style="stroke:#181818;stroke-width:1.0;" x1="394.5" x2="625.5" y1="984.6797" y2="984.6797"/><text fill="#000000" font-family="sans-serif" font-size="13" font-weight="bold" lengthAdjust="spacing" textLength="11" x="401.5" y="979.8232">7:</text><text fill="#000000" font-family="sans-serif" font-size="13" lengthAdjust="spacing" textLength="39" x="416.5" y="979.8232">UserID</text><polygon fill="#181818" points="866.5,1011.0313,876.5,1015.0313,866.5,1019.0313,870.5,1015.0313" style="stroke:#181818;stroke-width:1.0;"/><line style="stroke:#181818;stroke-width:1.0;" x1="641.5" x2="872.5" y1="1015.0313" y2="1015.0313"/><text fill="#000000" font-family="sans-serif" font-size="13" font-weight="bold" lengthAdjust="spacing" textLength="11" x="648.5" y="1010.1748">8:</text><text fill="#000000" font-family="sans-serif" font-size="13" lengthAdjust="spacing" textLength="39" x="663.5" y="1010.1748">UserID</text><polygon fill="#181818" points="652.5,1041.3828,642.5,1045.3828,652.5,1049.3828,648.5,1045.3828" style="stroke:#181818;stroke-width:1.0;"/><line style="stroke:#181818;stroke-width:1.0;" x1="646.5" x2="882.5" y1="1045.3828" y2="1045.3828"/><text fill="#000000" font-family="sans-serif" font-size="13" font-weight="bold" lengthAdjust="spacing" textLength="11" x="658.5" y="1040.5264">9:</text><text fill="#000000" font-family="sans-serif" font-size="13" lengthAdjust="spacing" textLength="94" x="673.5" y="1040.5264">User Information</text><polygon fill="#181818" points="405.5,1071.7344,395.5,1075.7344,405.5,1079.7344,401.5,1075.7344" style="stroke:#181818;stroke-width:1.0;"/><line style="stroke:#181818;stroke-width:1.0;" x1="399.5" x2="635.5" y1="1075.7344" y2="1075.7344"/><text fill="#000000" font-family="sans-serif" font-size="13" font-weight="bold" lengthAdjust="spacing" textLength="18" x="411.5" y="1070.8779">10:</text><text fill="#000000" font-family="sans-serif" font-size="13" lengthAdjust="spacing" textLength="94" x="433.5" y="1070.8779">User Information</text><polygon fill="#181818" points="53.5,1118.4375,43.5,1122.4375,53.5,1126.4375,49.5,1122.4375" style="stroke:#181818;stroke-width:1.0;"/><line style="stroke:#181818;stroke-width:1.0;" x1="47.5" x2="383.5" y1="1122.4375" y2="1122.4375"/><text fill="#000000" font-family="sans-serif" font-size="13" font-weight="bold" lengthAdjust="spacing" textLength="18" x="59.5" y="1109.4053">11:</text><text fill="#000000" font-family="sans-serif" font-size="13" lengthAdjust="spacing" textLength="292" x="81.5" y="1101.2295">Notify the user of successful login and transition to</text><text fill="#000000" font-family="sans-serif" font-size="13" lengthAdjust="spacing" textLength="93" x="81.5" y="1117.5811">the main screen</text><!--MD5=[a023e71ef4080651fcc28561452e65cd]
@startuml
actor User
boundary UserInterface
entity UserClass
database Database 

actor "<<System>>\nFacebook" as Facebook
actor "<<System>>\nGoogle"   as Google

skinparam MaxMessageSize 300
autonumber "<b>0:"
activate User
UserInterface->User:Display Login Interface
activate UserInterface
User->UserInterface: Choose Login method
alt User chooses "Web account" (Default) login method
|||
User->UserInterface:Enter Username and password and click "Login"
UserInterface->UserClass: Username and password
activate UserClass
UserClass->Database: Username and password
activate Database
Database->UserClass: Confirm User and User information
deactivate
UserClass->UserInterface: Confirm User and User Information
deactivate
UserInterface->User: Notify the user of successful login and transition to the main screen
|||
else User chooses "Facebook" login method
|||
autonumber 3 "<b>0:"
UserInterface->Facebook:Login request
activate Facebook
Facebook->User:Display login screen
User->Facebook:Login with Facebook account
Facebook->UserInterface: Confirm User with UserID
deactivate Facebook
UserInterface->UserClass: UserID
activate UserClass
UserClass->Database: UserID
activate Database
Database->UserClass: User Information
deactivate Database
UserClass->UserInterface: User Information
deactivate UserClass
UserInterface->User: Notify the user of successful login and transition to the main screen
|||
else User chooses "Google" login method
|||
autonumber 3 "<b>0:"
UserInterface->Google:Login request
activate Google
Google->User:Display login screen
User->Google:Login with Google account
Google->UserInterface: Confirm User with UserID
deactivate Google
UserInterface->UserClass: UserID
activate UserClass
UserClass->Database: UserID
activate Database
Database->UserClass: User Information
deactivate Database
UserClass->UserInterface: User Information
deactivate UserClass
UserInterface->User: Notify the user of successful login and transition to the main screen
|||
end
@enduml

PlantUML version 1.2022.7(Tue Aug 23 00:01:30 ICT 2022)
(GPL source distribution)
Java Runtime: Java(TM) SE Runtime Environment
JVM: Java HotSpot(TM) 64-Bit Server VM
Default Encoding: Cp1252
Language: vi
Country: VN
--></g></svg>