<?xml version="1.0" encoding="UTF-8" standalone="no"?><svg xmlns="http://www.w3.org/2000/svg" xmlns:xlink="http://www.w3.org/1999/xlink" contentStyleType="text/css" height="581px" preserveAspectRatio="none" style="width:966px;height:581px;background:#FFFFFF;" version="1.1" viewBox="0 0 966 581" width="966px" zoomAndPan="magnify"><defs/><g><rect fill="#FFFFFF" height="397.9219" style="stroke:#181818;stroke-width:1.0;" width="10" x="17.5" y="92.6094"/><rect fill="#FFFFFF" height="375.5703" style="stroke:#181818;stroke-width:1.0;" width="10" x="372.5" y="114.9609"/><rect fill="#FFFFFF" height="345.2188" style="stroke:#181818;stroke-width:1.0;" width="10" x="649.5" y="145.3125"/><rect fill="#FFFFFF" height="314.8672" style="stroke:#181818;stroke-width:1.0;" width="10" x="926.5" y="175.6641"/><line style="stroke:#181818;stroke-width:0.5;stroke-dasharray:5.0,5.0;" x1="22" x2="22" y1="82.6094" y2="499.5313"/><line style="stroke:#181818;stroke-width:0.5;stroke-dasharray:5.0,5.0;" x1="377.5" x2="377.5" y1="82.6094" y2="499.5313"/><line style="stroke:#181818;stroke-width:0.5;stroke-dasharray:5.0,5.0;" x1="654" x2="654" y1="82.6094" y2="499.5313"/><line style="stroke:#181818;stroke-width:0.5;stroke-dasharray:5.0,5.0;" x1="931" x2="931" y1="82.6094" y2="499.5313"/><text fill="#000000" font-family="sans-serif" font-size="14" lengthAdjust="spacing" textLength="29" x="5" y="79.5332">User</text><ellipse cx="22.5" cy="13.5" fill="#E2E2F0" rx="8" ry="8" style="stroke:#181818;stroke-width:0.5;"/><path d="M22.5,21.5 L22.5,48.5 M9.5,29.5 L35.5,29.5 M22.5,48.5 L9.5,63.5 M22.5,48.5 L35.5,63.5 " fill="none" style="stroke:#181818;stroke-width:0.5;"/><text fill="#000000" font-family="sans-serif" font-size="14" lengthAdjust="spacing" textLength="29" x="5" y="513.0645">User</text><ellipse cx="22.5" cy="524.6406" fill="#E2E2F0" rx="8" ry="8" style="stroke:#181818;stroke-width:0.5;"/><path d="M22.5,532.6406 L22.5,559.6406 M9.5,540.6406 L35.5,540.6406 M22.5,559.6406 L9.5,574.6406 M22.5,559.6406 L35.5,574.6406 " fill="none" style="stroke:#181818;stroke-width:0.5;"/><text fill="#000000" font-family="sans-serif" font-size="14" lengthAdjust="spacing" textLength="84" x="332.5" y="79.5332">UserInterface</text><path d="M357,37 L357,61 M357,49 L374,49 " fill="none" style="stroke:#181818;stroke-width:0.5;"/><ellipse cx="386" cy="49" fill="#E2E2F0" rx="12" ry="12" style="stroke:#181818;stroke-width:0.5;"/><text fill="#000000" font-family="sans-serif" font-size="14" lengthAdjust="spacing" textLength="84" x="332.5" y="513.0645">UserInterface</text><path d="M357,520.1406 L357,544.1406 M357,532.1406 L374,532.1406 " fill="none" style="stroke:#181818;stroke-width:0.5;"/><ellipse cx="386" cy="532.1406" fill="#E2E2F0" rx="12" ry="12" style="stroke:#181818;stroke-width:0.5;"/><text fill="#000000" font-family="sans-serif" font-size="14" lengthAdjust="spacing" textLength="59" x="622" y="79.5332">Controler</text><ellipse cx="654.5" cy="49" fill="#E2E2F0" rx="12" ry="12" style="stroke:#181818;stroke-width:0.5;"/><polygon fill="#181818" points="650.5,37,656.5,32,654.5,37,656.5,42,650.5,37" style="stroke:#181818;stroke-width:1.0;"/><text fill="#000000" font-family="sans-serif" font-size="14" lengthAdjust="spacing" textLength="59" x="622" y="513.0645">Controler</text><ellipse cx="654.5" cy="532.1406" fill="#E2E2F0" rx="12" ry="12" style="stroke:#181818;stroke-width:0.5;"/><polygon fill="#181818" points="650.5,520.1406,656.5,515.1406,654.5,520.1406,656.5,525.1406,650.5,520.1406" style="stroke:#181818;stroke-width:1.0;"/><text fill="#000000" font-family="sans-serif" font-size="14" lengthAdjust="spacing" textLength="61" x="898" y="79.5332">Database</text><path d="M913.5,29 C913.5,19 931.5,19 931.5,19 C931.5,19 949.5,19 949.5,29 L949.5,55 C949.5,65 931.5,65 931.5,65 C931.5,65 913.5,65 913.5,55 L913.5,29 " fill="#E2E2F0" style="stroke:#181818;stroke-width:1.5;"/><path d="M913.5,29 C913.5,39 931.5,39 931.5,39 C931.5,39 949.5,39 949.5,29 " fill="none" style="stroke:#181818;stroke-width:1.5;"/><text fill="#000000" font-family="sans-serif" font-size="14" lengthAdjust="spacing" textLength="61" x="898" y="513.0645">Database</text><path d="M913.5,526.1406 C913.5,516.1406 931.5,516.1406 931.5,516.1406 C931.5,516.1406 949.5,516.1406 949.5,526.1406 L949.5,552.1406 C949.5,562.1406 931.5,562.1406 931.5,562.1406 C931.5,562.1406 913.5,562.1406 913.5,552.1406 L913.5,526.1406 " fill="#E2E2F0" style="stroke:#181818;stroke-width:1.5;"/><path d="M913.5,526.1406 C913.5,536.1406 931.5,536.1406 931.5,536.1406 C931.5,536.1406 949.5,536.1406 949.5,526.1406 " fill="none" style="stroke:#181818;stroke-width:1.5;"/><rect fill="#FFFFFF" height="397.9219" style="stroke:#181818;stroke-width:1.0;" width="10" x="17.5" y="92.6094"/><rect fill="#FFFFFF" height="375.5703" style="stroke:#181818;stroke-width:1.0;" width="10" x="372.5" y="114.9609"/><rect fill="#FFFFFF" height="345.2188" style="stroke:#181818;stroke-width:1.0;" width="10" x="649.5" y="145.3125"/><rect fill="#FFFFFF" height="314.8672" style="stroke:#181818;stroke-width:1.0;" width="10" x="926.5" y="175.6641"/><polygon fill="#181818" points="360.5,110.9609,370.5,114.9609,360.5,118.9609,364.5,114.9609" style="stroke:#181818;stroke-width:1.0;"/><line style="stroke:#181818;stroke-width:1.0;" x1="27.5" x2="366.5" y1="114.9609" y2="114.9609"/><text fill="#000000" font-family="sans-serif" font-size="13" font-weight="bold" lengthAdjust="spacing" textLength="11" x="34.5" y="110.1045">1:</text><text fill="#000000" font-family="sans-serif" font-size="13" lengthAdjust="spacing" textLength="185" x="49.5" y="110.1045">Access "Account management"</text><polygon fill="#181818" points="637.5,141.3125,647.5,145.3125,637.5,149.3125,641.5,145.3125" style="stroke:#181818;stroke-width:1.0;"/><line style="stroke:#181818;stroke-width:1.0;" x1="382.5" x2="643.5" y1="145.3125" y2="145.3125"/><text fill="#000000" font-family="sans-serif" font-size="13" font-weight="bold" lengthAdjust="spacing" textLength="11" x="389.5" y="140.4561">2:</text><text fill="#000000" font-family="sans-serif" font-size="13" lengthAdjust="spacing" textLength="207" x="404.5" y="140.4561">Request User's Account Information</text><polygon fill="#181818" points="914.5,171.6641,924.5,175.6641,914.5,179.6641,918.5,175.6641" style="stroke:#181818;stroke-width:1.0;"/><line style="stroke:#181818;stroke-width:1.0;" x1="659.5" x2="920.5" y1="175.6641" y2="175.6641"/><text fill="#000000" font-family="sans-serif" font-size="13" font-weight="bold" lengthAdjust="spacing" textLength="11" x="666.5" y="170.8076">3:</text><text fill="#000000" font-family="sans-serif" font-size="13" lengthAdjust="spacing" textLength="207" x="681.5" y="170.8076">Request User's Account Information</text><polygon fill="#181818" points="670.5,202.0156,660.5,206.0156,670.5,210.0156,666.5,206.0156" style="stroke:#181818;stroke-width:1.0;"/><line style="stroke:#181818;stroke-width:1.0;" x1="664.5" x2="925.5" y1="206.0156" y2="206.0156"/><text fill="#000000" font-family="sans-serif" font-size="13" font-weight="bold" lengthAdjust="spacing" textLength="11" x="676.5" y="201.1592">4:</text><text fill="#000000" font-family="sans-serif" font-size="13" lengthAdjust="spacing" textLength="197" x="691.5" y="201.1592">Return User's Account Information</text><polygon fill="#181818" points="393.5,232.3672,383.5,236.3672,393.5,240.3672,389.5,236.3672" style="stroke:#181818;stroke-width:1.0;"/><line style="stroke:#181818;stroke-width:1.0;" x1="387.5" x2="648.5" y1="236.3672" y2="236.3672"/><text fill="#000000" font-family="sans-serif" font-size="13" font-weight="bold" lengthAdjust="spacing" textLength="11" x="399.5" y="231.5107">5:</text><text fill="#000000" font-family="sans-serif" font-size="13" lengthAdjust="spacing" textLength="197" x="414.5" y="231.5107">Return User's Account Information</text><polygon fill="#181818" points="38.5,279.0703,28.5,283.0703,38.5,287.0703,34.5,283.0703" style="stroke:#181818;stroke-width:1.0;"/><line style="stroke:#181818;stroke-width:1.0;" x1="32.5" x2="371.5" y1="283.0703" y2="283.0703"/><text fill="#000000" font-family="sans-serif" font-size="13" font-weight="bold" lengthAdjust="spacing" textLength="11" x="44.5" y="270.0381">6:</text><text fill="#000000" font-family="sans-serif" font-size="13" lengthAdjust="spacing" textLength="290" x="59.5" y="261.8623">Display "Account management" interface with that</text><text fill="#000000" font-family="sans-serif" font-size="13" lengthAdjust="spacing" textLength="155" x="59.5" y="278.2139">User's Account Information</text><polygon fill="#181818" points="360.5,309.4219,370.5,313.4219,360.5,317.4219,364.5,313.4219" style="stroke:#181818;stroke-width:1.0;"/><line style="stroke:#181818;stroke-width:1.0;" x1="27.5" x2="366.5" y1="313.4219" y2="313.4219"/><text fill="#000000" font-family="sans-serif" font-size="13" font-weight="bold" lengthAdjust="spacing" textLength="11" x="34.5" y="308.5654">7:</text><text fill="#000000" font-family="sans-serif" font-size="13" lengthAdjust="spacing" textLength="151" x="49.5" y="308.5654">Edit Account's information</text><polygon fill="#181818" points="637.5,339.7734,647.5,343.7734,637.5,347.7734,641.5,343.7734" style="stroke:#181818;stroke-width:1.0;"/><line style="stroke:#181818;stroke-width:1.0;" x1="382.5" x2="643.5" y1="343.7734" y2="343.7734"/><text fill="#000000" font-family="sans-serif" font-size="13" font-weight="bold" lengthAdjust="spacing" textLength="11" x="389.5" y="338.917">8:</text><text fill="#000000" font-family="sans-serif" font-size="13" lengthAdjust="spacing" textLength="228" x="404.5" y="338.917">Request edit with Account's information</text><polygon fill="#181818" points="914.5,370.125,924.5,374.125,914.5,378.125,918.5,374.125" style="stroke:#181818;stroke-width:1.0;"/><line style="stroke:#181818;stroke-width:1.0;" x1="659.5" x2="920.5" y1="374.125" y2="374.125"/><text fill="#000000" font-family="sans-serif" font-size="13" font-weight="bold" lengthAdjust="spacing" textLength="11" x="666.5" y="369.2686">9:</text><text fill="#000000" font-family="sans-serif" font-size="13" lengthAdjust="spacing" textLength="228" x="681.5" y="369.2686">Request edit with Account's information</text><polygon fill="#181818" points="670.5,400.4766,660.5,404.4766,670.5,408.4766,666.5,404.4766" style="stroke:#181818;stroke-width:1.0;"/><line style="stroke:#181818;stroke-width:1.0;" x1="664.5" x2="925.5" y1="404.4766" y2="404.4766"/><text fill="#000000" font-family="sans-serif" font-size="13" font-weight="bold" lengthAdjust="spacing" textLength="18" x="676.5" y="399.6201">10:</text><text fill="#000000" font-family="sans-serif" font-size="13" lengthAdjust="spacing" textLength="69" x="698.5" y="399.6201">Confirm edit</text><polygon fill="#181818" points="393.5,430.8281,383.5,434.8281,393.5,438.8281,389.5,434.8281" style="stroke:#181818;stroke-width:1.0;"/><line style="stroke:#181818;stroke-width:1.0;" x1="387.5" x2="648.5" y1="434.8281" y2="434.8281"/><text fill="#000000" font-family="sans-serif" font-size="13" font-weight="bold" lengthAdjust="spacing" textLength="18" x="399.5" y="429.9717">11:</text><text fill="#000000" font-family="sans-serif" font-size="13" lengthAdjust="spacing" textLength="69" x="421.5" y="429.9717">Confirm edit</text><polygon fill="#181818" points="38.5,477.5313,28.5,481.5313,38.5,485.5313,34.5,481.5313" style="stroke:#181818;stroke-width:1.0;"/><line style="stroke:#181818;stroke-width:1.0;" x1="32.5" x2="371.5" y1="481.5313" y2="481.5313"/><text fill="#000000" font-family="sans-serif" font-size="13" font-weight="bold" lengthAdjust="spacing" textLength="18" x="44.5" y="468.499">12:</text><text fill="#000000" font-family="sans-serif" font-size="13" lengthAdjust="spacing" textLength="299" x="66.5" y="460.3232">Notify notification that account information has been</text><text fill="#000000" font-family="sans-serif" font-size="13" lengthAdjust="spacing" textLength="35" x="66.5" y="476.6748">edited</text><!--MD5=[3012876357e6f71808eace38ecd9fa8a]
@startuml
actor User
boundary UserInterface
control Controler
database Database 
skinparam MaxMessageSize 300
autonumber "<b>0:"

activate User
User->UserInterface: Access "Account management"
activate UserInterface 
UserInterface->Controler: Request User's Account Information
activate Controler
Controler->Database: Request User's Account Information
activate Database
Database->Controler: Return User's Account Information
Controler->UserInterface: Return User's Account Information
UserInterface->User: Display "Account management" interface with that User's Account Information
User->UserInterface: Edit Account's information
UserInterface->Controler: Request edit with Account's information
Controler->Database: Request edit with Account's information
Database->Controler: Confirm edit
Controler->UserInterface: Confirm edit
UserInterface->User: Notify notification that account information has been edited
@enduml 

PlantUML version 1.2022.7(Tue Aug 23 00:01:30 ICT 2022)
(GPL source distribution)
Java Runtime: Java(TM) SE Runtime Environment
JVM: Java HotSpot(TM) 64-Bit Server VM
Default Encoding: Cp1252
Language: vi
Country: VN
--></g></svg>