<?xml version="1.0" encoding="UTF-8" standalone="no"?><svg xmlns="http://www.w3.org/2000/svg" xmlns:xlink="http://www.w3.org/1999/xlink" contentStyleType="text/css" height="609px" preserveAspectRatio="none" style="width:1128px;height:609px;background:#FFFFFF;" version="1.1" viewBox="0 0 1128 609" width="1128px" zoomAndPan="magnify"><defs/><g><rect fill="#FFFFFF" height="425.9219" style="stroke:#181818;stroke-width:1.0;" width="10" x="22.5" y="92.6094"/><rect fill="#FFFFFF" height="403.5703" style="stroke:#181818;stroke-width:1.0;" width="10" x="454.5" y="114.9609"/><rect fill="#FFFFFF" height="373.2188" style="stroke:#181818;stroke-width:1.0;" width="10" x="771.5" y="145.3125"/><rect fill="#FFFFFF" height="342.8672" style="stroke:#181818;stroke-width:1.0;" width="10" x="1088.5" y="175.6641"/><line style="stroke:#181818;stroke-width:0.5;stroke-dasharray:5.0,5.0;" x1="27" x2="27" y1="82.6094" y2="527.5313"/><line style="stroke:#181818;stroke-width:0.5;stroke-dasharray:5.0,5.0;" x1="459.5" x2="459.5" y1="82.6094" y2="527.5313"/><line style="stroke:#181818;stroke-width:0.5;stroke-dasharray:5.0,5.0;" x1="776.5" x2="776.5" y1="82.6094" y2="527.5313"/><line style="stroke:#181818;stroke-width:0.5;stroke-dasharray:5.0,5.0;" x1="1093" x2="1093" y1="82.6094" y2="527.5313"/><text fill="#000000" font-family="sans-serif" font-size="14" lengthAdjust="spacing" textLength="39" x="5" y="79.5332">Admin</text><ellipse cx="27.5" cy="13.5" fill="#E2E2F0" rx="8" ry="8" style="stroke:#181818;stroke-width:0.5;"/><path d="M27.5,21.5 L27.5,48.5 M14.5,29.5 L40.5,29.5 M27.5,48.5 L14.5,63.5 M27.5,48.5 L40.5,63.5 " fill="none" style="stroke:#181818;stroke-width:0.5;"/><text fill="#000000" font-family="sans-serif" font-size="14" lengthAdjust="spacing" textLength="39" x="5" y="541.0645">Admin</text><ellipse cx="27.5" cy="552.6406" fill="#E2E2F0" rx="8" ry="8" style="stroke:#181818;stroke-width:0.5;"/><path d="M27.5,560.6406 L27.5,587.6406 M14.5,568.6406 L40.5,568.6406 M27.5,587.6406 L14.5,602.6406 M27.5,587.6406 L40.5,602.6406 " fill="none" style="stroke:#181818;stroke-width:0.5;"/><text fill="#000000" font-family="sans-serif" font-size="14" lengthAdjust="spacing" textLength="84" x="414.5" y="79.5332">UserInterface</text><path d="M439,37 L439,61 M439,49 L456,49 " fill="none" style="stroke:#181818;stroke-width:0.5;"/><ellipse cx="468" cy="49" fill="#E2E2F0" rx="12" ry="12" style="stroke:#181818;stroke-width:0.5;"/><text fill="#000000" font-family="sans-serif" font-size="14" lengthAdjust="spacing" textLength="84" x="414.5" y="541.0645">UserInterface</text><path d="M439,548.1406 L439,572.1406 M439,560.1406 L456,560.1406 " fill="none" style="stroke:#181818;stroke-width:0.5;"/><ellipse cx="468" cy="560.1406" fill="#E2E2F0" rx="12" ry="12" style="stroke:#181818;stroke-width:0.5;"/><text fill="#000000" font-family="sans-serif" font-size="14" lengthAdjust="spacing" textLength="74" x="736.5" y="79.5332">AdminClass</text><ellipse cx="776.5" cy="49" fill="#E2E2F0" rx="12" ry="12" style="stroke:#181818;stroke-width:0.5;"/><line style="stroke:#181818;stroke-width:0.5;" x1="764.5" x2="788.5" y1="63" y2="63"/><text fill="#000000" font-family="sans-serif" font-size="14" lengthAdjust="spacing" textLength="74" x="736.5" y="541.0645">AdminClass</text><ellipse cx="776.5" cy="560.1406" fill="#E2E2F0" rx="12" ry="12" style="stroke:#181818;stroke-width:0.5;"/><line style="stroke:#181818;stroke-width:0.5;" x1="764.5" x2="788.5" y1="574.1406" y2="574.1406"/><text fill="#000000" font-family="sans-serif" font-size="14" lengthAdjust="spacing" textLength="61" x="1060" y="79.5332">Database</text><path d="M1075.5,29 C1075.5,19 1093.5,19 1093.5,19 C1093.5,19 1111.5,19 1111.5,29 L1111.5,55 C1111.5,65 1093.5,65 1093.5,65 C1093.5,65 1075.5,65 1075.5,55 L1075.5,29 " fill="#E2E2F0" style="stroke:#181818;stroke-width:1.5;"/><path d="M1075.5,29 C1075.5,39 1093.5,39 1093.5,39 C1093.5,39 1111.5,39 1111.5,29 " fill="none" style="stroke:#181818;stroke-width:1.5;"/><text fill="#000000" font-family="sans-serif" font-size="14" lengthAdjust="spacing" textLength="61" x="1060" y="541.0645">Database</text><path d="M1075.5,554.1406 C1075.5,544.1406 1093.5,544.1406 1093.5,544.1406 C1093.5,544.1406 1111.5,544.1406 1111.5,554.1406 L1111.5,580.1406 C1111.5,590.1406 1093.5,590.1406 1093.5,590.1406 C1093.5,590.1406 1075.5,590.1406 1075.5,580.1406 L1075.5,554.1406 " fill="#E2E2F0" style="stroke:#181818;stroke-width:1.5;"/><path d="M1075.5,554.1406 C1075.5,564.1406 1093.5,564.1406 1093.5,564.1406 C1093.5,564.1406 1111.5,564.1406 1111.5,554.1406 " fill="none" style="stroke:#181818;stroke-width:1.5;"/><rect fill="#FFFFFF" height="425.9219" style="stroke:#181818;stroke-width:1.0;" width="10" x="22.5" y="92.6094"/><rect fill="#FFFFFF" height="403.5703" style="stroke:#181818;stroke-width:1.0;" width="10" x="454.5" y="114.9609"/><rect fill="#FFFFFF" height="373.2188" style="stroke:#181818;stroke-width:1.0;" width="10" x="771.5" y="145.3125"/><rect fill="#FFFFFF" height="342.8672" style="stroke:#181818;stroke-width:1.0;" width="10" x="1088.5" y="175.6641"/><polygon fill="#181818" points="442.5,110.9609,452.5,114.9609,442.5,118.9609,446.5,114.9609" style="stroke:#181818;stroke-width:1.0;"/><line style="stroke:#181818;stroke-width:1.0;" x1="32.5" x2="448.5" y1="114.9609" y2="114.9609"/><text fill="#000000" font-family="sans-serif" font-size="13" font-weight="bold" lengthAdjust="spacing" textLength="11" x="39.5" y="110.1045">1:</text><text fill="#000000" font-family="sans-serif" font-size="13" lengthAdjust="spacing" textLength="208" x="54.5" y="110.1045">Access to Admin's Account screen.</text><polygon fill="#181818" points="759.5,141.3125,769.5,145.3125,759.5,149.3125,763.5,145.3125" style="stroke:#181818;stroke-width:1.0;"/><line style="stroke:#181818;stroke-width:1.0;" x1="464.5" x2="765.5" y1="145.3125" y2="145.3125"/><text fill="#000000" font-family="sans-serif" font-size="13" font-weight="bold" lengthAdjust="spacing" textLength="11" x="471.5" y="140.4561">2:</text><text fill="#000000" font-family="sans-serif" font-size="13" lengthAdjust="spacing" textLength="273" x="486.5" y="140.4561">Request User List and accounts's informations.</text><polygon fill="#181818" points="1076.5,171.6641,1086.5,175.6641,1076.5,179.6641,1080.5,175.6641" style="stroke:#181818;stroke-width:1.0;"/><line style="stroke:#181818;stroke-width:1.0;" x1="781.5" x2="1082.5" y1="175.6641" y2="175.6641"/><text fill="#000000" font-family="sans-serif" font-size="13" font-weight="bold" lengthAdjust="spacing" textLength="11" x="788.5" y="170.8076">3:</text><text fill="#000000" font-family="sans-serif" font-size="13" lengthAdjust="spacing" textLength="273" x="803.5" y="170.8076">Request User List and accounts's informations.</text><polygon fill="#181818" points="792.5,202.0156,782.5,206.0156,792.5,210.0156,788.5,206.0156" style="stroke:#181818;stroke-width:1.0;"/><line style="stroke:#181818;stroke-width:1.0;" x1="786.5" x2="1087.5" y1="206.0156" y2="206.0156"/><text fill="#000000" font-family="sans-serif" font-size="13" font-weight="bold" lengthAdjust="spacing" textLength="11" x="798.5" y="201.1592">4:</text><text fill="#000000" font-family="sans-serif" font-size="13" lengthAdjust="spacing" textLength="263" x="813.5" y="201.1592">Return User List and accounts's informations.</text><polygon fill="#181818" points="475.5,232.3672,465.5,236.3672,475.5,240.3672,471.5,236.3672" style="stroke:#181818;stroke-width:1.0;"/><line style="stroke:#181818;stroke-width:1.0;" x1="469.5" x2="770.5" y1="236.3672" y2="236.3672"/><text fill="#000000" font-family="sans-serif" font-size="13" font-weight="bold" lengthAdjust="spacing" textLength="11" x="481.5" y="231.5107">5:</text><text fill="#000000" font-family="sans-serif" font-size="13" lengthAdjust="spacing" textLength="263" x="496.5" y="231.5107">Return User List and accounts's informations.</text><polygon fill="#181818" points="43.5,262.7188,33.5,266.7188,43.5,270.7188,39.5,266.7188" style="stroke:#181818;stroke-width:1.0;"/><line style="stroke:#181818;stroke-width:1.0;" x1="37.5" x2="453.5" y1="266.7188" y2="266.7188"/><text fill="#000000" font-family="sans-serif" font-size="13" font-weight="bold" lengthAdjust="spacing" textLength="11" x="49.5" y="261.8623">6:</text><text fill="#000000" font-family="sans-serif" font-size="13" lengthAdjust="spacing" textLength="383" x="64.5" y="261.8623">Dislay Admin's Account screen with list of All account and its Info.</text><polygon fill="#181818" points="442.5,293.0703,452.5,297.0703,442.5,301.0703,446.5,297.0703" style="stroke:#181818;stroke-width:1.0;"/><line style="stroke:#181818;stroke-width:1.0;" x1="32.5" x2="448.5" y1="297.0703" y2="297.0703"/><text fill="#000000" font-family="sans-serif" font-size="13" font-weight="bold" lengthAdjust="spacing" textLength="11" x="39.5" y="292.2139">7:</text><text fill="#000000" font-family="sans-serif" font-size="13" lengthAdjust="spacing" textLength="292" x="54.5" y="292.2139">The admin enters the user account ID want to ban.</text><polygon fill="#181818" points="43.5,323.4219,33.5,327.4219,43.5,331.4219,39.5,327.4219" style="stroke:#181818;stroke-width:1.0;"/><line style="stroke:#181818;stroke-width:1.0;" x1="37.5" x2="453.5" y1="327.4219" y2="327.4219"/><text fill="#000000" font-family="sans-serif" font-size="13" font-weight="bold" lengthAdjust="spacing" textLength="11" x="49.5" y="322.5654">8:</text><text fill="#000000" font-family="sans-serif" font-size="13" lengthAdjust="spacing" textLength="161" x="64.5" y="322.5654">Confirms User to be banned</text><polygon fill="#181818" points="442.5,353.7734,452.5,357.7734,442.5,361.7734,446.5,357.7734" style="stroke:#181818;stroke-width:1.0;"/><line style="stroke:#181818;stroke-width:1.0;" x1="32.5" x2="448.5" y1="357.7734" y2="357.7734"/><text fill="#000000" font-family="sans-serif" font-size="13" font-weight="bold" lengthAdjust="spacing" textLength="11" x="39.5" y="352.917">9:</text><text fill="#000000" font-family="sans-serif" font-size="13" lengthAdjust="spacing" textLength="93" x="54.5" y="352.917">select "Confirm"</text><polygon fill="#181818" points="759.5,384.125,769.5,388.125,759.5,392.125,763.5,388.125" style="stroke:#181818;stroke-width:1.0;"/><line style="stroke:#181818;stroke-width:1.0;" x1="464.5" x2="765.5" y1="388.125" y2="388.125"/><text fill="#000000" font-family="sans-serif" font-size="13" font-weight="bold" lengthAdjust="spacing" textLength="18" x="471.5" y="383.2686">10:</text><text fill="#000000" font-family="sans-serif" font-size="13" lengthAdjust="spacing" textLength="248" x="493.5" y="383.2686">Request ban and sent banned account's ID</text><polygon fill="#181818" points="1076.5,414.4766,1086.5,418.4766,1076.5,422.4766,1080.5,418.4766" style="stroke:#181818;stroke-width:1.0;"/><line style="stroke:#181818;stroke-width:1.0;" x1="781.5" x2="1082.5" y1="418.4766" y2="418.4766"/><text fill="#000000" font-family="sans-serif" font-size="13" font-weight="bold" lengthAdjust="spacing" textLength="18" x="788.5" y="413.6201">11:</text><text fill="#000000" font-family="sans-serif" font-size="13" lengthAdjust="spacing" textLength="248" x="810.5" y="413.6201">Request ban and sent banned account's ID</text><polygon fill="#181818" points="792.5,444.8281,782.5,448.8281,792.5,452.8281,788.5,448.8281" style="stroke:#181818;stroke-width:1.0;"/><line style="stroke:#181818;stroke-width:1.0;" x1="786.5" x2="1087.5" y1="448.8281" y2="448.8281"/><text fill="#000000" font-family="sans-serif" font-size="13" font-weight="bold" lengthAdjust="spacing" textLength="18" x="798.5" y="443.9717">12:</text><text fill="#000000" font-family="sans-serif" font-size="13" lengthAdjust="spacing" textLength="248" x="820.5" y="443.9717">Confirm banned user whose id was entered</text><polygon fill="#181818" points="475.5,475.1797,465.5,479.1797,475.5,483.1797,471.5,479.1797" style="stroke:#181818;stroke-width:1.0;"/><line style="stroke:#181818;stroke-width:1.0;" x1="469.5" x2="770.5" y1="479.1797" y2="479.1797"/><text fill="#000000" font-family="sans-serif" font-size="13" font-weight="bold" lengthAdjust="spacing" textLength="18" x="481.5" y="474.3232">13:</text><text fill="#000000" font-family="sans-serif" font-size="13" lengthAdjust="spacing" textLength="248" x="503.5" y="474.3232">Confirm banned user whose id was entered</text><polygon fill="#181818" points="43.5,505.5313,33.5,509.5313,43.5,513.5313,39.5,509.5313" style="stroke:#181818;stroke-width:1.0;"/><line style="stroke:#181818;stroke-width:1.0;" x1="37.5" x2="453.5" y1="509.5313" y2="509.5313"/><text fill="#000000" font-family="sans-serif" font-size="13" font-weight="bold" lengthAdjust="spacing" textLength="18" x="49.5" y="504.6748">14:</text><text fill="#000000" font-family="sans-serif" font-size="13" lengthAdjust="spacing" textLength="179" x="71.5" y="504.6748">Display Ban User Successfully</text><!--MD5=[f18cf09759b9bfdc93a895cbc3aa17f9]
@startuml UC_14_1
actor Admin
boundary UserInterface
entity AdminClass
database Database 
autonumber "<b>0:"

activate Admin
Admin -> UserInterface: Access to Admin's Account screen.
activate UserInterface
UserInterface->AdminClass: Request User List and accounts's informations.
activate AdminClass
AdminClass -> Database: Request User List and accounts's informations.
activate Database 
Database -> AdminClass: Return User List and accounts's informations.
AdminClass -> UserInterface: Return User List and accounts's informations.
UserInterface -> Admin: Dislay Admin's Account screen with list of All account and its Info.
Admin -> UserInterface: The admin enters the user account ID want to ban.
UserInterface -> Admin: Confirms User to be banned
Admin -> UserInterface: select "Confirm"
UserInterface -> AdminClass: Request ban and sent banned account's ID 
AdminClass -> Database: Request ban and sent banned account's ID 
Database -> AdminClass: Confirm banned user whose id was entered 
AdminClass -> UserInterface: Confirm banned user whose id was entered 
UserInterface -> Admin: Display Ban User Successfully

@enduml

PlantUML version 1.2022.7(Tue Aug 23 00:01:30 ICT 2022)
(GPL source distribution)
Java Runtime: Java(TM) SE Runtime Environment
JVM: Java HotSpot(TM) 64-Bit Server VM
Default Encoding: Cp1252
Language: vi
Country: VN
--></g></svg>