<?xml version="1.0" encoding="UTF-8" standalone="no"?><svg xmlns="http://www.w3.org/2000/svg" xmlns:xlink="http://www.w3.org/1999/xlink" contentStyleType="text/css" height="445px" preserveAspectRatio="none" style="width:1022px;height:445px;background:#FFFFFF;" version="1.1" viewBox="0 0 1022 445" width="1022px" zoomAndPan="magnify"><defs/><g><rect fill="#FFFFFF" height="262.2578" style="stroke:#181818;stroke-width:1.0;" width="10" x="26.5" y="92.6094"/><rect fill="#FFFFFF" height="193.4609" style="stroke:#181818;stroke-width:1.0;" width="10" x="300.5" y="161.4063"/><rect fill="#FFFFFF" height="107.4063" style="stroke:#181818;stroke-width:1.0;" width="10" x="631.5" y="208.1094"/><rect fill="#FFFFFF" height="30.3516" style="stroke:#181818;stroke-width:1.0;" width="10" x="974.5" y="254.8125"/><line style="stroke:#181818;stroke-width:0.5;stroke-dasharray:5.0,5.0;" x1="31" x2="31" y1="82.6094" y2="363.8672"/><line style="stroke:#181818;stroke-width:0.5;stroke-dasharray:5.0,5.0;" x1="305.5" x2="305.5" y1="82.6094" y2="363.8672"/><line style="stroke:#181818;stroke-width:0.5;stroke-dasharray:5.0,5.0;" x1="636" x2="636" y1="82.6094" y2="363.8672"/><line style="stroke:#181818;stroke-width:0.5;stroke-dasharray:5.0,5.0;" x1="979" x2="979" y1="82.6094" y2="363.8672"/><text fill="#000000" font-family="sans-serif" font-size="14" lengthAdjust="spacing" textLength="47" x="5" y="79.5332">Reader</text><ellipse cx="31.5" cy="13.5" fill="#E2E2F0" rx="8" ry="8" style="stroke:#181818;stroke-width:0.5;"/><path d="M31.5,21.5 L31.5,48.5 M18.5,29.5 L44.5,29.5 M31.5,48.5 L18.5,63.5 M31.5,48.5 L44.5,63.5 " fill="none" style="stroke:#181818;stroke-width:0.5;"/><text fill="#000000" font-family="sans-serif" font-size="14" lengthAdjust="spacing" textLength="47" x="5" y="377.4004">Reader</text><ellipse cx="31.5" cy="388.9766" fill="#E2E2F0" rx="8" ry="8" style="stroke:#181818;stroke-width:0.5;"/><path d="M31.5,396.9766 L31.5,423.9766 M18.5,404.9766 L44.5,404.9766 M31.5,423.9766 L18.5,438.9766 M31.5,423.9766 L44.5,438.9766 " fill="none" style="stroke:#181818;stroke-width:0.5;"/><text fill="#000000" font-family="sans-serif" font-size="14" lengthAdjust="spacing" textLength="84" x="260.5" y="79.5332">UserInterface</text><path d="M285,37 L285,61 M285,49 L302,49 " fill="none" style="stroke:#181818;stroke-width:0.5;"/><ellipse cx="314" cy="49" fill="#E2E2F0" rx="12" ry="12" style="stroke:#181818;stroke-width:0.5;"/><text fill="#000000" font-family="sans-serif" font-size="14" lengthAdjust="spacing" textLength="84" x="260.5" y="377.4004">UserInterface</text><path d="M285,384.4766 L285,408.4766 M285,396.4766 L302,396.4766 " fill="none" style="stroke:#181818;stroke-width:0.5;"/><ellipse cx="314" cy="396.4766" fill="#E2E2F0" rx="12" ry="12" style="stroke:#181818;stroke-width:0.5;"/><text fill="#000000" font-family="sans-serif" font-size="14" lengthAdjust="spacing" textLength="59" x="604" y="79.5332">Controler</text><ellipse cx="636.5" cy="49" fill="#E2E2F0" rx="12" ry="12" style="stroke:#181818;stroke-width:0.5;"/><polygon fill="#181818" points="632.5,37,638.5,32,636.5,37,638.5,42,632.5,37" style="stroke:#181818;stroke-width:1.0;"/><text fill="#000000" font-family="sans-serif" font-size="14" lengthAdjust="spacing" textLength="59" x="604" y="377.4004">Controler</text><ellipse cx="636.5" cy="396.4766" fill="#E2E2F0" rx="12" ry="12" style="stroke:#181818;stroke-width:0.5;"/><polygon fill="#181818" points="632.5,384.4766,638.5,379.4766,636.5,384.4766,638.5,389.4766,632.5,384.4766" style="stroke:#181818;stroke-width:1.0;"/><text fill="#000000" font-family="sans-serif" font-size="14" lengthAdjust="spacing" textLength="61" x="946" y="79.5332">Database</text><path d="M961.5,29 C961.5,19 979.5,19 979.5,19 C979.5,19 997.5,19 997.5,29 L997.5,55 C997.5,65 979.5,65 979.5,65 C979.5,65 961.5,65 961.5,55 L961.5,29 " fill="#E2E2F0" style="stroke:#181818;stroke-width:1.5;"/><path d="M961.5,29 C961.5,39 979.5,39 979.5,39 C979.5,39 997.5,39 997.5,29 " fill="none" style="stroke:#181818;stroke-width:1.5;"/><text fill="#000000" font-family="sans-serif" font-size="14" lengthAdjust="spacing" textLength="61" x="946" y="377.4004">Database</text><path d="M961.5,390.4766 C961.5,380.4766 979.5,380.4766 979.5,380.4766 C979.5,380.4766 997.5,380.4766 997.5,390.4766 L997.5,416.4766 C997.5,426.4766 979.5,426.4766 979.5,426.4766 C979.5,426.4766 961.5,426.4766 961.5,416.4766 L961.5,390.4766 " fill="#E2E2F0" style="stroke:#181818;stroke-width:1.5;"/><path d="M961.5,390.4766 C961.5,400.4766 979.5,400.4766 979.5,400.4766 C979.5,400.4766 997.5,400.4766 997.5,390.4766 " fill="none" style="stroke:#181818;stroke-width:1.5;"/><rect fill="#FFFFFF" height="262.2578" style="stroke:#181818;stroke-width:1.0;" width="10" x="26.5" y="92.6094"/><rect fill="#FFFFFF" height="193.4609" style="stroke:#181818;stroke-width:1.0;" width="10" x="300.5" y="161.4063"/><rect fill="#FFFFFF" height="107.4063" style="stroke:#181818;stroke-width:1.0;" width="10" x="631.5" y="208.1094"/><rect fill="#FFFFFF" height="30.3516" style="stroke:#181818;stroke-width:1.0;" width="10" x="974.5" y="254.8125"/><rect fill="none" height="41.4453" style="stroke:#000000;stroke-width:1.5;" width="1014" x="2" y="92.6094"/><path d="M2,92.6094 L64,92.6094 L64,100.6094 L54,110.6094 L2,110.6094 L2,92.6094 " fill="#EEEEEE" style="stroke:#000000;stroke-width:2.0;"/><text fill="#000000" font-family="sans-serif" font-size="13" font-weight="bold" lengthAdjust="spacing" textLength="17" x="15" y="108.1045">ref</text><text fill="#000000" font-family="sans-serif" font-size="12" lengthAdjust="spacing" textLength="106" x="456" y="127.0664">ListComic (UC_04)</text><polygon fill="#181818" points="288.5,157.4063,298.5,161.4063,288.5,165.4063,292.5,161.4063" style="stroke:#181818;stroke-width:1.0;"/><line style="stroke:#181818;stroke-width:1.0;" x1="36.5" x2="294.5" y1="161.4063" y2="161.4063"/><text fill="#000000" font-family="sans-serif" font-size="13" font-weight="bold" lengthAdjust="spacing" textLength="11" x="43.5" y="156.5498">1:</text><text fill="#000000" font-family="sans-serif" font-size="13" lengthAdjust="spacing" textLength="212" x="58.5" y="156.5498">Click "Next" in top reading comic list</text><polygon fill="#181818" points="619.5,204.1094,629.5,208.1094,619.5,212.1094,623.5,208.1094" style="stroke:#181818;stroke-width:1.0;"/><line style="stroke:#181818;stroke-width:1.0;" x1="310.5" x2="625.5" y1="208.1094" y2="208.1094"/><text fill="#000000" font-family="sans-serif" font-size="13" font-weight="bold" lengthAdjust="spacing" textLength="11" x="317.5" y="195.0771">2:</text><text fill="#000000" font-family="sans-serif" font-size="13" lengthAdjust="spacing" textLength="283" x="332.5" y="186.9014">Request next page of top reading comic in comic</text><text fill="#000000" font-family="sans-serif" font-size="13" lengthAdjust="spacing" textLength="17" x="332.5" y="203.2529">list</text><polygon fill="#181818" points="962.5,250.8125,972.5,254.8125,962.5,258.8125,966.5,254.8125" style="stroke:#181818;stroke-width:1.0;"/><line style="stroke:#181818;stroke-width:1.0;" x1="641.5" x2="968.5" y1="254.8125" y2="254.8125"/><text fill="#000000" font-family="sans-serif" font-size="13" font-weight="bold" lengthAdjust="spacing" textLength="11" x="648.5" y="241.7803">3:</text><text fill="#000000" font-family="sans-serif" font-size="13" lengthAdjust="spacing" textLength="283" x="663.5" y="233.6045">Request next page of top reading comic in comic</text><text fill="#000000" font-family="sans-serif" font-size="13" lengthAdjust="spacing" textLength="17" x="663.5" y="249.9561">list</text><polygon fill="#181818" points="652.5,281.1641,642.5,285.1641,652.5,289.1641,648.5,285.1641" style="stroke:#181818;stroke-width:1.0;"/><line style="stroke:#181818;stroke-width:1.0;" x1="646.5" x2="978.5" y1="285.1641" y2="285.1641"/><text fill="#000000" font-family="sans-serif" font-size="13" font-weight="bold" lengthAdjust="spacing" textLength="11" x="658.5" y="280.3076">4:</text><text fill="#000000" font-family="sans-serif" font-size="13" lengthAdjust="spacing" textLength="294" x="673.5" y="280.3076">Return next page of top reading comic in comic list</text><polygon fill="#181818" points="321.5,311.5156,311.5,315.5156,321.5,319.5156,317.5,315.5156" style="stroke:#181818;stroke-width:1.0;"/><line style="stroke:#181818;stroke-width:1.0;" x1="315.5" x2="635.5" y1="315.5156" y2="315.5156"/><text fill="#000000" font-family="sans-serif" font-size="13" font-weight="bold" lengthAdjust="spacing" textLength="11" x="327.5" y="310.6592">5:</text><text fill="#000000" font-family="sans-serif" font-size="13" lengthAdjust="spacing" textLength="220" x="342.5" y="310.6592">Return next page of top reading comic</text><polygon fill="#181818" points="47.5,341.8672,37.5,345.8672,47.5,349.8672,43.5,345.8672" style="stroke:#181818;stroke-width:1.0;"/><line style="stroke:#181818;stroke-width:1.0;" x1="41.5" x2="299.5" y1="345.8672" y2="345.8672"/><text fill="#000000" font-family="sans-serif" font-size="13" font-weight="bold" lengthAdjust="spacing" textLength="11" x="53.5" y="341.0107">6:</text><text fill="#000000" font-family="sans-serif" font-size="13" lengthAdjust="spacing" textLength="225" x="68.5" y="341.0107">Display next page of top reading comic</text><!--MD5=[57c3633d27b716907ed514d32843b770]
@startuml
actor Reader
boundary UserInterface
control Controler
database Database 
skinparam MaxMessageSize 300
autonumber "<b>0:"

activate Reader
ref over Reader,Database: ListComic (UC_04)
Reader->UserInterface: Click "Next" in top reading comic list
activate UserInterface 
UserInterface->Controler: Request next page of top reading comic in comic list
activate Controler
Controler->Database: Request next page of top reading comic in comic list

activate Database
Database->Controler: Return next page of top reading comic in comic list
deactivate Database
Controler->UserInterface: Return next page of top reading comic
deactivate Controler
UserInterface->Reader: Display next page of top reading comic
@enduml 

PlantUML version 1.2022.7(Tue Aug 23 00:01:30 ICT 2022)
(GPL source distribution)
Java Runtime: Java(TM) SE Runtime Environment
JVM: Java HotSpot(TM) 64-Bit Server VM
Default Encoding: Cp1252
Language: vi
Country: VN
--></g></svg>