<?xml version="1.0" encoding="us-ascii" standalone="no"?><svg xmlns="http://www.w3.org/2000/svg" xmlns:xlink="http://www.w3.org/1999/xlink" contentStyleType="text/css" height="338px" preserveAspectRatio="none" style="width:722px;height:338px;background:#FFFFFF;" version="1.1" viewBox="0 0 722 338" width="722px" zoomAndPan="magnify"><defs/><g><rect fill="none" height="20.9531" style="stroke:none;stroke-width:1.0;" width="689" x="15" y="12.7451"/><ellipse cx="96.5" cy="48.6982" fill="#222222" rx="10" ry="10" style="stroke:#222222;stroke-width:1.0;"/><rect fill="#F1F1F1" height="33.9688" rx="12.5" ry="12.5" style="stroke:#181818;stroke-width:0.5;" width="151" x="21" y="78.6982"/><text fill="#000000" font-family="sans-serif" font-size="12" lengthAdjust="spacing" textLength="131" x="31" y="99.8369">Ch&#7885;n th&#234;m m&#7899;i truy&#7879;n</text><rect fill="#F1F1F1" height="33.9688" rx="12.5" ry="12.5" style="stroke:#181818;stroke-width:0.5;" width="147" x="23" y="132.667"/><text fill="#000000" font-family="sans-serif" font-size="12" lengthAdjust="spacing" textLength="127" x="33" y="153.8057">Nh&#7853;p n&#7897;i dung truy&#7879;n</text><line style="stroke:#000000;stroke-width:1.5;" x1="15" x2="15" y1="12.7451" y2="326.6045"/><polygon fill="#F1F1F1" points="395,186.6357,490,186.6357,502,198.6357,490,210.6357,395,210.6357,383,198.6357,395,186.6357" style="stroke:#181818;stroke-width:0.5;"/><text fill="#000000" font-family="sans-serif" font-size="11" lengthAdjust="spacing" textLength="95" x="395" y="202.4438">&#272;&#7847;y &#273;&#7911; th&#244;ng tin</text><text fill="#000000" font-family="sans-serif" font-size="11" lengthAdjust="spacing" textLength="21" x="362" y="196.0415">yes</text><text fill="#000000" font-family="sans-serif" font-size="11" lengthAdjust="spacing" textLength="14" x="502" y="196.0415">no</text><rect fill="#F1F1F1" height="33.9688" rx="12.5" ry="12.5" style="stroke:#181818;stroke-width:0.5;" width="253" x="182" y="220.6357"/><text fill="#000000" font-family="sans-serif" font-size="12" lengthAdjust="spacing" textLength="233" x="192" y="241.7744">C&#7853;p nh&#7853;t th&#244;ng tin truy&#7879;n v&#224;o h&#7879; th&#7889;ng</text><rect fill="#F1F1F1" height="33.9688" rx="12.5" ry="12.5" style="stroke:#181818;stroke-width:0.5;" width="243" x="455" y="220.6357"/><text fill="#000000" font-family="sans-serif" font-size="12" lengthAdjust="spacing" textLength="223" x="465" y="241.7744">Th&#244;ng b&#225;o c&#7847;n nh&#7853;p &#273;&#7847;y &#273;&#7911; th&#244;ng tin</text><polygon fill="#F1F1F1" points="442.5,260.6045,454.5,272.6045,442.5,284.6045,430.5,272.6045,442.5,260.6045" style="stroke:#181818;stroke-width:0.5;"/><ellipse cx="442.5" cy="315.6045" fill="none" rx="11" ry="11" style="stroke:#222222;stroke-width:1.0;"/><ellipse cx="442.5" cy="315.6045" fill="#222222" rx="6" ry="6" style="stroke:#222222;stroke-width:1.0;"/><line style="stroke:#000000;stroke-width:1.5;" x1="176" x2="176" y1="12.7451" y2="326.6045"/><line style="stroke:#000000;stroke-width:1.5;" x1="702" x2="702" y1="12.7451" y2="326.6045"/><line style="stroke:#181818;stroke-width:1.0;" x1="96.5" x2="96.5" y1="58.6982" y2="78.6982"/><polygon fill="#181818" points="92.5,68.6982,96.5,78.6982,100.5,68.6982,96.5,72.6982" style="stroke:#181818;stroke-width:1.0;"/><line style="stroke:#181818;stroke-width:1.0;" x1="96.5" x2="96.5" y1="112.667" y2="132.667"/><polygon fill="#181818" points="92.5,122.667,96.5,132.667,100.5,122.667,96.5,126.667" style="stroke:#181818;stroke-width:1.0;"/><line style="stroke:#181818;stroke-width:1.0;" x1="383" x2="308.5" y1="198.6357" y2="198.6357"/><line style="stroke:#181818;stroke-width:1.0;" x1="308.5" x2="308.5" y1="198.6357" y2="220.6357"/><polygon fill="#181818" points="304.5,210.6357,308.5,220.6357,312.5,210.6357,308.5,214.6357" style="stroke:#181818;stroke-width:1.0;"/><line style="stroke:#181818;stroke-width:1.0;" x1="502" x2="576.5" y1="198.6357" y2="198.6357"/><line style="stroke:#181818;stroke-width:1.0;" x1="576.5" x2="576.5" y1="198.6357" y2="220.6357"/><polygon fill="#181818" points="572.5,210.6357,576.5,220.6357,580.5,210.6357,576.5,214.6357" style="stroke:#181818;stroke-width:1.0;"/><line style="stroke:#181818;stroke-width:1.0;" x1="308.5" x2="308.5" y1="254.6045" y2="272.6045"/><line style="stroke:#181818;stroke-width:1.0;" x1="308.5" x2="430.5" y1="272.6045" y2="272.6045"/><polygon fill="#181818" points="420.5,268.6045,430.5,272.6045,420.5,276.6045,424.5,272.6045" style="stroke:#181818;stroke-width:1.0;"/><line style="stroke:#181818;stroke-width:1.0;" x1="576.5" x2="576.5" y1="254.6045" y2="272.6045"/><line style="stroke:#181818;stroke-width:1.0;" x1="576.5" x2="454.5" y1="272.6045" y2="272.6045"/><polygon fill="#181818" points="464.5,268.6045,454.5,272.6045,464.5,276.6045,460.5,272.6045" style="stroke:#181818;stroke-width:1.0;"/><line style="stroke:#181818;stroke-width:1.0;" x1="442.5" x2="442.5" y1="284.6045" y2="304.6045"/><polygon fill="#181818" points="438.5,294.6045,442.5,304.6045,446.5,294.6045,442.5,298.6045" style="stroke:#181818;stroke-width:1.0;"/><line style="stroke:#181818;stroke-width:1.0;" x1="96.5" x2="96.5" y1="166.6357" y2="171.6357"/><line style="stroke:#181818;stroke-width:1.0;" x1="96.5" x2="442.5" y1="171.6357" y2="171.6357"/><line style="stroke:#181818;stroke-width:1.0;" x1="442.5" x2="442.5" y1="171.6357" y2="186.6357"/><polygon fill="#181818" points="438.5,176.6357,442.5,186.6357,446.5,176.6357,442.5,180.6357" style="stroke:#181818;stroke-width:1.0;"/><text fill="#000000" font-family="sans-serif" font-size="18" lengthAdjust="spacing" textLength="98" x="46.5" y="29.4531">Ng&#432;&#7901;i d&#7883;ch</text><text fill="#000000" font-family="sans-serif" font-size="18" lengthAdjust="spacing" textLength="85" x="396.5" y="29.4531">H&#7879; th&#7889;ng</text><!--SRC=[ROyz2i9044RxFSMKoHMIqiOgbHVG_Es2cOHa8mJIMuXWIX51gu0WM5XbomJlCJTnGa1IMCt0VEzzJEt5dnUPguA0pC6NjIZqEjV2MKWoHmGj-qS22PcB0fsN5PazkiBn97NF393CcSaIuzcnNl9aa4o3SIrKP0qdwjeAXePCEnhVOrwXpNk8O5LXONFXP1p5UXRwYM7NtrAGCxShmcqHWeKfuwk9sFJt57okmqcLZQt_oXd605J4_wRP5m00]--></g></svg>