<?xml version="1.0" encoding="us-ascii" standalone="no"?><svg xmlns="http://www.w3.org/2000/svg" xmlns:xlink="http://www.w3.org/1999/xlink" contentStyleType="text/css" height="450px" preserveAspectRatio="none" style="width:696px;height:450px;background:#FFFFFF;" version="1.1" viewBox="0 0 696 450" width="696px" zoomAndPan="magnify"><defs/><g><rect fill="none" height="20.9531" style="stroke:none;stroke-width:1.0;" width="663" x="15" y="12.7451"/><rect fill="#F1F1F1" height="33.9688" rx="12.5" ry="12.5" style="stroke:#181818;stroke-width:0.5;" width="144" x="21" y="38.6982"/><text fill="#000000" font-family="sans-serif" font-size="12" lengthAdjust="spacing" textLength="124" x="31" y="59.8369">&#272;&#259;ng truy&#7879;n vi ph&#7841;m</text><rect fill="#F1F1F1" height="33.9688" rx="12.5" ry="12.5" style="stroke:#181818;stroke-width:0.5;" width="119" x="33.5" y="254.5732"/><text fill="#000000" font-family="sans-serif" font-size="12" lengthAdjust="spacing" textLength="99" x="43.5" y="275.7119">Ti&#7871;p t&#7909;c vi ph&#7841;m</text><line style="stroke:#000000;stroke-width:1.5;" x1="15" x2="15" y1="12.7451" y2="438.4795"/><rect fill="#F1F1F1" height="33.9688" rx="12.5" ry="12.5" style="stroke:#181818;stroke-width:0.5;" width="85" x="220" y="92.667"/><text fill="#000000" font-family="sans-serif" font-size="12" lengthAdjust="spacing" textLength="65" x="230" y="113.8057">X&#243;a truy&#7879;n</text><rect fill="#F1F1F1" height="33.9688" rx="12.5" ry="12.5" style="stroke:#181818;stroke-width:0.5;" width="146" x="189.5" y="146.6357"/><text fill="#000000" font-family="sans-serif" font-size="12" lengthAdjust="spacing" textLength="126" x="199.5" y="167.7744">C&#7843;nh c&#225;o ng&#432;&#7901;i d&#249;ng</text><rect fill="#F1F1F1" height="33.9688" rx="12.5" ry="12.5" style="stroke:#181818;stroke-width:0.5;" width="175" x="175" y="308.542"/><text fill="#000000" font-family="sans-serif" font-size="12" lengthAdjust="spacing" textLength="155" x="185" y="329.6807">C&#7845;m t&#224;i kho&#7843;n ng&#432;&#7901;i d&#249;ng</text><line style="stroke:#000000;stroke-width:1.5;" x1="169" x2="169" y1="12.7451" y2="438.4795"/><rect fill="#F1F1F1" height="33.9688" rx="12.5" ry="12.5" style="stroke:#181818;stroke-width:0.5;" width="228" x="402" y="200.6045"/><text fill="#000000" font-family="sans-serif" font-size="12" lengthAdjust="spacing" textLength="208" x="412" y="221.7432">Th&#244;ng b&#225;o &#273;&#7871;n ng&#432;&#7901;i d&#7883;ch vi ph&#7841;m</text><rect fill="#F1F1F1" height="33.9688" rx="12.5" ry="12.5" style="stroke:#181818;stroke-width:0.5;" width="312" x="360" y="362.5107"/><text fill="#000000" font-family="sans-serif" font-size="12" lengthAdjust="spacing" textLength="292" x="370" y="383.6494">C&#7853;p nh&#7853;t t&#224;i kho&#7843;n ng&#432;&#7901;i d&#249;ng v&#7899;i tr&#7841;ng th&#225;i c&#7845;m</text><ellipse cx="516" cy="427.4795" fill="none" rx="11" ry="11" style="stroke:#222222;stroke-width:1.0;"/><ellipse cx="516" cy="427.4795" fill="#222222" rx="6" ry="6" style="stroke:#222222;stroke-width:1.0;"/><line style="stroke:#000000;stroke-width:1.5;" x1="354" x2="354" y1="12.7451" y2="438.4795"/><line style="stroke:#000000;stroke-width:1.5;" x1="676" x2="676" y1="12.7451" y2="438.4795"/><line style="stroke:#181818;stroke-width:1.0;" x1="262.5" x2="262.5" y1="126.6357" y2="146.6357"/><polygon fill="#181818" points="258.5,136.6357,262.5,146.6357,266.5,136.6357,262.5,140.6357" style="stroke:#181818;stroke-width:1.0;"/><line style="stroke:#181818;stroke-width:1.0;" x1="516" x2="516" y1="396.4795" y2="416.4795"/><polygon fill="#181818" points="512,406.4795,516,416.4795,520,406.4795,516,410.4795" style="stroke:#181818;stroke-width:1.0;"/><line style="stroke:#181818;stroke-width:1.0;" x1="93" x2="93" y1="72.667" y2="77.667"/><line style="stroke:#181818;stroke-width:1.0;" x1="93" x2="262.5" y1="77.667" y2="77.667"/><line style="stroke:#181818;stroke-width:1.0;" x1="262.5" x2="262.5" y1="77.667" y2="92.667"/><polygon fill="#181818" points="258.5,82.667,262.5,92.667,266.5,82.667,262.5,86.667" style="stroke:#181818;stroke-width:1.0;"/><line style="stroke:#181818;stroke-width:1.0;" x1="262.5" x2="262.5" y1="180.6045" y2="185.6045"/><line style="stroke:#181818;stroke-width:1.0;" x1="262.5" x2="516" y1="185.6045" y2="185.6045"/><line style="stroke:#181818;stroke-width:1.0;" x1="516" x2="516" y1="185.6045" y2="200.6045"/><polygon fill="#181818" points="512,190.6045,516,200.6045,520,190.6045,516,194.6045" style="stroke:#181818;stroke-width:1.0;"/><line style="stroke:#181818;stroke-width:1.0;" x1="516" x2="516" y1="234.5732" y2="239.5732"/><line style="stroke:#181818;stroke-width:1.0;" x1="516" x2="93" y1="239.5732" y2="239.5732"/><line style="stroke:#181818;stroke-width:1.0;" x1="93" x2="93" y1="239.5732" y2="254.5732"/><polygon fill="#181818" points="89,244.5732,93,254.5732,97,244.5732,93,248.5732" style="stroke:#181818;stroke-width:1.0;"/><line style="stroke:#181818;stroke-width:1.0;" x1="93" x2="93" y1="288.542" y2="293.542"/><line style="stroke:#181818;stroke-width:1.0;" x1="93" x2="262.5" y1="293.542" y2="293.542"/><line style="stroke:#181818;stroke-width:1.0;" x1="262.5" x2="262.5" y1="293.542" y2="308.542"/><polygon fill="#181818" points="258.5,298.542,262.5,308.542,266.5,298.542,262.5,302.542" style="stroke:#181818;stroke-width:1.0;"/><line style="stroke:#181818;stroke-width:1.0;" x1="262.5" x2="262.5" y1="342.5107" y2="347.5107"/><line style="stroke:#181818;stroke-width:1.0;" x1="262.5" x2="516" y1="347.5107" y2="347.5107"/><line style="stroke:#181818;stroke-width:1.0;" x1="516" x2="516" y1="347.5107" y2="362.5107"/><polygon fill="#181818" points="512,352.5107,516,362.5107,520,352.5107,516,356.5107" style="stroke:#181818;stroke-width:1.0;"/><text fill="#000000" font-family="sans-serif" font-size="18" lengthAdjust="spacing" textLength="98" x="43" y="29.4531">Ng&#432;&#7901;i d&#7883;ch</text><text fill="#000000" font-family="sans-serif" font-size="18" lengthAdjust="spacing" textLength="58" x="232.5" y="29.4531">Admin</text><text fill="#000000" font-family="sans-serif" font-size="18" lengthAdjust="spacing" textLength="85" x="472.5" y="29.4531">H&#7879; th&#7889;ng</text><!--SRC=[XP0n2i9044NxFSMS8wd4niegXQqca5qaaw1hG4XdOM5ZQX4CaZ8WQ6EsiDZWFUOcJYo2ecZ_t_zl9Xk6znEPlOA0pCQNcN2QRRF24FHiiIIpHaWL99Bg8d95rWiYXPmPsVEuIxZ2wLDzH0c-BMB0hj5UCMHem27GaaoE8REUj1VkdxJP9gVwXY_8K-9jybFGKmmbeCcK_bSxjYaZqFQWO2hZLksl52DL0iXDbVv5Gafcf_XqdcoV96sXm6_tN37NSV80]--></g></svg>