<?xml version="1.0" encoding="us-ascii" standalone="no"?><svg xmlns="http://www.w3.org/2000/svg" xmlns:xlink="http://www.w3.org/1999/xlink" contentStyleType="text/css" height="367px" preserveAspectRatio="none" style="width:405px;height:367px;background:#FFFFFF;" version="1.1" viewBox="0 0 405 367" width="405px" zoomAndPan="magnify"><defs/><g><rect fill="none" height="20.9531" style="stroke:none;stroke-width:1.0;" width="372" x="15" y="12.7451"/><ellipse cx="98" cy="48.6982" fill="#222222" rx="10" ry="10" style="stroke:#222222;stroke-width:1.0;"/><rect fill="#F1F1F1" height="33.9688" rx="12.5" ry="12.5" style="stroke:#181818;stroke-width:0.5;" width="154" x="21" y="78.6982"/><text fill="#000000" font-family="sans-serif" font-size="12" lengthAdjust="spacing" textLength="134" x="31" y="99.8369">Ch&#7885;n truy&#7879;n mu&#7889;n x&#243;a</text><rect fill="#F1F1F1" height="33.9688" rx="12.5" ry="12.5" style="stroke:#181818;stroke-width:0.5;" width="117" x="39.5" y="132.667"/><text fill="#000000" font-family="sans-serif" font-size="12" lengthAdjust="spacing" textLength="97" x="49.5" y="153.8057">Ch&#7885;n x&#243;a truy&#7879;n</text><line style="stroke:#000000;stroke-width:1.5;" x1="15" x2="15" y1="12.7451" y2="355.0068"/><rect fill="#F1F1F1" height="33.9688" rx="12.5" ry="12.5" style="stroke:#181818;stroke-width:0.5;" width="171" x="185" y="235.0381"/><text fill="#000000" font-family="sans-serif" font-size="12" lengthAdjust="spacing" textLength="151" x="195" y="256.1768">X&#243;a truy&#7879;n kh&#7887;i h&#7879; th&#7889;ng</text><polygon fill="#F1F1F1" points="211,186.6357,330,186.6357,342,198.6357,330,210.6357,211,210.6357,199,198.6357,211,186.6357" style="stroke:#181818;stroke-width:0.5;"/><text fill="#000000" font-family="sans-serif" font-size="11" lengthAdjust="spacing" textLength="21" x="274.5" y="220.8462">yes</text><text fill="#000000" font-family="sans-serif" font-size="11" lengthAdjust="spacing" textLength="119" x="211" y="202.4438">X&#225;c nh&#7853;n x&#243;a truy&#7879;n</text><text fill="#000000" font-family="sans-serif" font-size="11" lengthAdjust="spacing" textLength="14" x="342" y="196.0415">no</text><polygon fill="#F1F1F1" points="270.5,289.0068,282.5,301.0068,270.5,313.0068,258.5,301.0068,270.5,289.0068" style="stroke:#181818;stroke-width:0.5;"/><ellipse cx="270.5" cy="344.0068" fill="none" rx="11" ry="11" style="stroke:#222222;stroke-width:1.0;"/><ellipse cx="270.5" cy="344.0068" fill="#222222" rx="6" ry="6" style="stroke:#222222;stroke-width:1.0;"/><line style="stroke:#000000;stroke-width:1.5;" x1="179" x2="179" y1="12.7451" y2="355.0068"/><line style="stroke:#000000;stroke-width:1.5;" x1="385" x2="385" y1="12.7451" y2="355.0068"/><line style="stroke:#181818;stroke-width:1.0;" x1="98" x2="98" y1="58.6982" y2="78.6982"/><polygon fill="#181818" points="94,68.6982,98,78.6982,102,68.6982,98,72.6982" style="stroke:#181818;stroke-width:1.0;"/><line style="stroke:#181818;stroke-width:1.0;" x1="98" x2="98" y1="112.667" y2="132.667"/><polygon fill="#181818" points="94,122.667,98,132.667,102,122.667,98,126.667" style="stroke:#181818;stroke-width:1.0;"/><line style="stroke:#181818;stroke-width:1.0;" x1="270.5" x2="270.5" y1="210.6357" y2="235.0381"/><polygon fill="#181818" points="266.5,225.0381,270.5,235.0381,274.5,225.0381,270.5,229.0381" style="stroke:#181818;stroke-width:1.0;"/><line style="stroke:#181818;stroke-width:1.0;" x1="342" x2="366" y1="198.6357" y2="198.6357"/><polygon fill="#181818" points="362,242.0225,366,252.0225,370,242.0225,366,246.0225" style="stroke:#181818;stroke-width:1.0;"/><line style="stroke:#181818;stroke-width:1.0;" x1="366" x2="366" y1="198.6357" y2="301.0068"/><line style="stroke:#181818;stroke-width:1.0;" x1="366" x2="282.5" y1="301.0068" y2="301.0068"/><polygon fill="#181818" points="292.5,297.0068,282.5,301.0068,292.5,305.0068,288.5,301.0068" style="stroke:#181818;stroke-width:1.0;"/><line style="stroke:#181818;stroke-width:1.0;" x1="270.5" x2="270.5" y1="269.0068" y2="289.0068"/><polygon fill="#181818" points="266.5,279.0068,270.5,289.0068,274.5,279.0068,270.5,283.0068" style="stroke:#181818;stroke-width:1.0;"/><line style="stroke:#181818;stroke-width:1.0;" x1="270.5" x2="270.5" y1="313.0068" y2="333.0068"/><polygon fill="#181818" points="266.5,323.0068,270.5,333.0068,274.5,323.0068,270.5,327.0068" style="stroke:#181818;stroke-width:1.0;"/><line style="stroke:#181818;stroke-width:1.0;" x1="98" x2="98" y1="166.6357" y2="171.6357"/><line style="stroke:#181818;stroke-width:1.0;" x1="98" x2="270.5" y1="171.6357" y2="171.6357"/><line style="stroke:#181818;stroke-width:1.0;" x1="270.5" x2="270.5" y1="171.6357" y2="186.6357"/><polygon fill="#181818" points="266.5,176.6357,270.5,186.6357,274.5,176.6357,270.5,180.6357" style="stroke:#181818;stroke-width:1.0;"/><text fill="#000000" font-family="sans-serif" font-size="18" lengthAdjust="spacing" textLength="98" x="48" y="29.4531">Ng&#432;&#7901;i d&#7883;ch</text><text fill="#000000" font-family="sans-serif" font-size="18" lengthAdjust="spacing" textLength="85" x="239.5" y="29.4531">H&#7879; th&#7889;ng</text><!--SRC=[g_5BFxRXuUwvcGef3tTt9sVKS1MN91QLS5avPppStPkdK59KMlbmTtkUGcxfmzqJynGg3czEj8RBWdXm9TPSDHv0Mg4a0wGolOOhCqqZul32P8MyZ8Uxrg8frWGgIyrJqAXCBTRaief0bbB81XhGdwcGWMIODLTgJd6gWaPUlYPNQbwAGcOQq9tv1G00]--></g></svg>