<?xml version="1.0" encoding="us-ascii" standalone="no"?><svg xmlns="http://www.w3.org/2000/svg" xmlns:xlink="http://www.w3.org/1999/xlink" contentStyleType="text/css" height="1157px" preserveAspectRatio="none" style="width:1717px;height:1157px;background:#FFFFFF;" version="1.1" viewBox="0 0 1717 1157" width="1717px" zoomAndPan="magnify"><defs/><g><rect fill="none" height="20.9531" style="stroke:none;stroke-width:1.0;" width="1684.5" x="15" y="12.7451"/><ellipse cx="112.5" cy="48.6982" fill="#222222" rx="10" ry="10" style="stroke:#222222;stroke-width:1.0;"/><rect fill="#F1F1F1" height="33.9688" rx="12.5" ry="12.5" style="stroke:#181818;stroke-width:0.5;" width="69" x="78" y="78.6982"/><text fill="#000000" font-family="sans-serif" font-size="12" lengthAdjust="spacing" textLength="49" x="88" y="99.8369">N&#7841;p ti&#7873;n</text><rect fill="#F1F1F1" height="33.9688" rx="12.5" ry="12.5" style="stroke:#181818;stroke-width:0.5;" width="74" x="75.5" y="186.6357"/><text fill="#000000" font-family="sans-serif" font-size="12" lengthAdjust="spacing" textLength="54" x="85.5" y="207.7744">X&#225;c nh&#7853;n</text><rect fill="#F1F1F1" height="33.9688" rx="12.5" ry="12.5" style="stroke:#181818;stroke-width:0.5;" width="183" x="21" y="400.542"/><text fill="#000000" font-family="sans-serif" font-size="12" lengthAdjust="spacing" textLength="163" x="31" y="421.6807">Ch&#7885;n d&#7883;ch gi&#7843; mu&#7889;n donate</text><rect fill="#F1F1F1" height="33.9688" rx="12.5" ry="12.5" style="stroke:#181818;stroke-width:0.5;" width="178" x="23.5" y="454.5107"/><text fill="#000000" font-family="sans-serif" font-size="12" lengthAdjust="spacing" textLength="158" x="33.5" y="475.6494">Nh&#7853;p s&#7889; ti&#7873;n mu&#7889;n donate</text><rect fill="#F1F1F1" height="33.9688" rx="12.5" ry="12.5" style="stroke:#181818;stroke-width:0.5;" width="74" x="75.5" y="508.4795"/><text fill="#000000" font-family="sans-serif" font-size="12" lengthAdjust="spacing" textLength="54" x="85.5" y="529.6182">X&#225;c nh&#7853;n</text><line style="stroke:#000000;stroke-width:1.5;" x1="15" x2="15" y1="12.7451" y2="1145.6631"/><rect fill="#F1F1F1" height="33.9688" rx="12.5" ry="12.5" style="stroke:#181818;stroke-width:0.5;" width="126" x="394" y="132.667"/><text fill="#000000" font-family="sans-serif" font-size="12" lengthAdjust="spacing" textLength="106" x="404" y="153.8057">X&#225;c nh&#7853;n n&#7841;p ti&#7873;n</text><rect fill="#F1F1F1" height="33.9688" rx="12.5" ry="12.5" style="stroke:#181818;stroke-width:0.5;" width="181" x="366.5" y="240.6045"/><text fill="#000000" font-family="sans-serif" font-size="12" lengthAdjust="spacing" textLength="161" x="376.5" y="261.7432">Chuy&#7875;n ti&#7873;n v&#224;o trang web</text><rect fill="#F1F1F1" height="33.9688" rx="12.5" ry="12.5" style="stroke:#181818;stroke-width:0.5;" width="226" x="214" y="922.7256"/><text fill="#000000" font-family="sans-serif" font-size="12" lengthAdjust="spacing" textLength="206" x="224" y="943.8643">Chuy&#7875;n ti&#7873;n &#273;&#7871;n t&#224;i kho&#7843;n d&#7883;ch gi&#7843;</text><line style="stroke:#000000;stroke-width:1.5;" x1="208" x2="208" y1="12.7451" y2="1145.6631"/><rect fill="#555555" height="6" rx="2.5" ry="2.5" style="stroke:#555555;stroke-width:1.0;" width="496" x="557.5" y="294.5732"/><rect fill="#F1F1F1" height="33.9688" rx="12.5" ry="12.5" style="stroke:#181818;stroke-width:0.5;" width="207" x="569.5" y="320.5732"/><text fill="#000000" font-family="sans-serif" font-size="12" lengthAdjust="spacing" textLength="187" x="579.5" y="341.7119">Th&#244;ng b&#225;o O-coin &#273;&#227; &#273;&#432;&#7907;c n&#7841;p</text><rect fill="#F1F1F1" height="33.9688" rx="12.5" ry="12.5" style="stroke:#181818;stroke-width:0.5;" width="237" x="804.5" y="320.5732"/><text fill="#000000" font-family="sans-serif" font-size="12" lengthAdjust="spacing" textLength="217" x="814.5" y="341.7119">T&#259;ng s&#7889; l&#432;&#7907;ng O-coin c&#7911;a ng&#432;&#7901;i &#273;&#7885;c</text><rect fill="#555555" height="6" rx="2.5" ry="2.5" style="stroke:#555555;stroke-width:1.0;" width="496" x="557.5" y="374.542"/><rect fill="#F1F1F1" height="33.9688" rx="12.5" ry="12.5" style="stroke:#181818;stroke-width:0.5;" width="97" x="757" y="722.3857"/><text fill="#000000" font-family="sans-serif" font-size="12" lengthAdjust="spacing" textLength="77" x="767" y="743.5244">Ki&#7875;m tra STK</text><polygon fill="#F1F1F1" points="775.5,776.3545,835.5,776.3545,847.5,788.3545,835.5,800.3545,775.5,800.3545,763.5,788.3545,775.5,776.3545" style="stroke:#181818;stroke-width:0.5;"/><text fill="#000000" font-family="sans-serif" font-size="11" lengthAdjust="spacing" textLength="60" x="775.5" y="792.1626">O-coin &gt; 0</text><text fill="#000000" font-family="sans-serif" font-size="11" lengthAdjust="spacing" textLength="21" x="742.5" y="785.7603">yes</text><text fill="#000000" font-family="sans-serif" font-size="11" lengthAdjust="spacing" textLength="14" x="847.5" y="785.7603">no</text><rect fill="#F1F1F1" height="33.9688" rx="12.5" ry="12.5" style="stroke:#181818;stroke-width:0.5;" width="187" x="582" y="820.3545"/><text fill="#000000" font-family="sans-serif" font-size="12" lengthAdjust="spacing" textLength="167" x="592" y="841.4932">Th&#244;ng b&#225;o x&#225;c nh&#7853;n r&#250;t ti&#7873;n</text><rect fill="#F1F1F1" height="33.9688" rx="12.5" ry="12.5" style="stroke:#181818;stroke-width:0.5;" width="210" x="570.5" y="991.6943"/><text fill="#000000" font-family="sans-serif" font-size="12" lengthAdjust="spacing" textLength="190" x="580.5" y="1012.833">Th&#244;ng b&#225;o ti&#7873;n &#273;&#227; &#273;&#432;&#7907;c chuy&#7875;n</text><rect fill="#F1F1F1" height="33.9688" rx="12.5" ry="12.5" style="stroke:#181818;stroke-width:0.5;" width="210" x="830.5" y="820.3545"/><text fill="#000000" font-family="sans-serif" font-size="12" lengthAdjust="spacing" textLength="190" x="840.5" y="841.4932">Th&#244;ng b&#225;o kh&#244;ng &#273;&#7911; ti&#7873;n &#273;&#7875; r&#250;t</text><polygon fill="#F1F1F1" points="805.5,1079.6631,817.5,1091.6631,805.5,1103.6631,793.5,1091.6631,805.5,1079.6631" style="stroke:#181818;stroke-width:0.5;"/><ellipse cx="805.5" cy="1134.6631" fill="none" rx="11" ry="11" style="stroke:#222222;stroke-width:1.0;"/><ellipse cx="805.5" cy="1134.6631" fill="#222222" rx="6" ry="6" style="stroke:#222222;stroke-width:1.0;"/><line style="stroke:#000000;stroke-width:1.5;" x1="551.5" x2="551.5" y1="12.7451" y2="1145.6631"/><rect fill="#555555" height="6" rx="2.5" ry="2.5" style="stroke:#555555;stroke-width:1.0;" width="446" x="1063.5" y="562.4482"/><rect fill="#F1F1F1" height="33.9688" rx="12.5" ry="12.5" style="stroke:#181818;stroke-width:0.5;" width="149" x="1075.5" y="588.4482"/><text fill="#000000" font-family="sans-serif" font-size="12" lengthAdjust="spacing" textLength="129" x="1085.5" y="609.5869">Th&#244;ng b&#225;o &#273;&#227; donate</text><rect fill="#F1F1F1" height="33.9688" rx="12.5" ry="12.5" style="stroke:#181818;stroke-width:0.5;" width="263" x="1234.5" y="588.4482"/><text fill="#000000" font-family="sans-serif" font-size="12" lengthAdjust="spacing" textLength="243" x="1244.5" y="609.5869">Chuy&#7875;n s&#7889; O-coin &#273;&#7871;n t&#224;i kho&#7843;n d&#7883;ch gi&#7843;</text><rect fill="#555555" height="6" rx="2.5" ry="2.5" style="stroke:#555555;stroke-width:1.0;" width="446" x="1063.5" y="642.417"/><line style="stroke:#000000;stroke-width:1.5;" x1="1057.5" x2="1057.5" y1="12.7451" y2="1145.6631"/><rect fill="#F1F1F1" height="33.9688" rx="12.5" ry="12.5" style="stroke:#181818;stroke-width:0.5;" width="64" x="1629.5" y="668.417"/><text fill="#000000" font-family="sans-serif" font-size="12" lengthAdjust="spacing" textLength="44" x="1639.5" y="689.5557">R&#250;t ti&#7873;n</text><polygon fill="#F1F1F1" points="1540.5,874.3232,1593.5,874.3232,1605.5,886.3232,1593.5,898.3232,1540.5,898.3232,1528.5,886.3232,1540.5,874.3232" style="stroke:#181818;stroke-width:0.5;"/><text fill="#000000" font-family="sans-serif" font-size="11" lengthAdjust="spacing" textLength="21" x="1571" y="908.5337">yes</text><text fill="#000000" font-family="sans-serif" font-size="11" lengthAdjust="spacing" textLength="53" x="1540.5" y="890.1313">X&#225;c nh&#7853;n</text><text fill="#000000" font-family="sans-serif" font-size="11" lengthAdjust="spacing" textLength="14" x="1605.5" y="883.729">no</text><polygon fill="#F1F1F1" points="1567,1045.6631,1579,1057.6631,1567,1069.6631,1555,1057.6631,1567,1045.6631" style="stroke:#181818;stroke-width:0.5;"/><line style="stroke:#000000;stroke-width:1.5;" x1="1513.5" x2="1513.5" y1="12.7451" y2="1145.6631"/><line style="stroke:#000000;stroke-width:1.5;" x1="1697.5" x2="1697.5" y1="12.7451" y2="1145.6631"/><line style="stroke:#181818;stroke-width:1.0;" x1="112.5" x2="112.5" y1="58.6982" y2="78.6982"/><polygon fill="#181818" points="108.5,68.6982,112.5,78.6982,116.5,68.6982,112.5,72.6982" style="stroke:#181818;stroke-width:1.0;"/><line style="stroke:#181818;stroke-width:1.0;" x1="112.5" x2="112.5" y1="434.5107" y2="454.5107"/><polygon fill="#181818" points="108.5,444.5107,112.5,454.5107,116.5,444.5107,112.5,448.5107" style="stroke:#181818;stroke-width:1.0;"/><line style="stroke:#181818;stroke-width:1.0;" x1="112.5" x2="112.5" y1="488.4795" y2="508.4795"/><polygon fill="#181818" points="108.5,498.4795,112.5,508.4795,116.5,498.4795,112.5,502.4795" style="stroke:#181818;stroke-width:1.0;"/><line style="stroke:#181818;stroke-width:1.0;" x1="673" x2="673" y1="300.5732" y2="320.5732"/><polygon fill="#181818" points="669,310.5732,673,320.5732,677,310.5732,673,314.5732" style="stroke:#181818;stroke-width:1.0;"/><line style="stroke:#181818;stroke-width:1.0;" x1="923" x2="923" y1="300.5732" y2="320.5732"/><polygon fill="#181818" points="919,310.5732,923,320.5732,927,310.5732,923,314.5732" style="stroke:#181818;stroke-width:1.0;"/><line style="stroke:#181818;stroke-width:1.0;" x1="673" x2="673" y1="354.542" y2="374.542"/><polygon fill="#181818" points="669,364.542,673,374.542,677,364.542,673,368.542" style="stroke:#181818;stroke-width:1.0;"/><line style="stroke:#181818;stroke-width:1.0;" x1="923" x2="923" y1="354.542" y2="374.542"/><polygon fill="#181818" points="919,364.542,923,374.542,927,364.542,923,368.542" style="stroke:#181818;stroke-width:1.0;"/><line style="stroke:#181818;stroke-width:1.0;" x1="763.5" x2="675.5" y1="788.3545" y2="788.3545"/><line style="stroke:#181818;stroke-width:1.0;" x1="675.5" x2="675.5" y1="788.3545" y2="820.3545"/><polygon fill="#181818" points="671.5,810.3545,675.5,820.3545,679.5,810.3545,675.5,814.3545" style="stroke:#181818;stroke-width:1.0;"/><line style="stroke:#181818;stroke-width:1.0;" x1="847.5" x2="935.5" y1="788.3545" y2="788.3545"/><line style="stroke:#181818;stroke-width:1.0;" x1="935.5" x2="935.5" y1="788.3545" y2="820.3545"/><polygon fill="#181818" points="931.5,810.3545,935.5,820.3545,939.5,810.3545,935.5,814.3545" style="stroke:#181818;stroke-width:1.0;"/><line style="stroke:#181818;stroke-width:1.0;" x1="935.5" x2="935.5" y1="854.3232" y2="1091.6631"/><line style="stroke:#181818;stroke-width:1.0;" x1="935.5" x2="817.5" y1="1091.6631" y2="1091.6631"/><polygon fill="#181818" points="827.5,1087.6631,817.5,1091.6631,827.5,1095.6631,823.5,1091.6631" style="stroke:#181818;stroke-width:1.0;"/><line style="stroke:#181818;stroke-width:1.0;" x1="805.5" x2="805.5" y1="756.3545" y2="776.3545"/><polygon fill="#181818" points="801.5,766.3545,805.5,776.3545,809.5,766.3545,805.5,770.3545" style="stroke:#181818;stroke-width:1.0;"/><line style="stroke:#181818;stroke-width:1.0;" x1="805.5" x2="805.5" y1="1103.6631" y2="1123.6631"/><polygon fill="#181818" points="801.5,1113.6631,805.5,1123.6631,809.5,1113.6631,805.5,1117.6631" style="stroke:#181818;stroke-width:1.0;"/><line style="stroke:#181818;stroke-width:1.0;" x1="1150" x2="1150" y1="568.4482" y2="588.4482"/><polygon fill="#181818" points="1146,578.4482,1150,588.4482,1154,578.4482,1150,582.4482" style="stroke:#181818;stroke-width:1.0;"/><line style="stroke:#181818;stroke-width:1.0;" x1="1366" x2="1366" y1="568.4482" y2="588.4482"/><polygon fill="#181818" points="1362,578.4482,1366,588.4482,1370,578.4482,1366,582.4482" style="stroke:#181818;stroke-width:1.0;"/><line style="stroke:#181818;stroke-width:1.0;" x1="1150" x2="1150" y1="622.417" y2="642.417"/><polygon fill="#181818" points="1146,632.417,1150,642.417,1154,632.417,1150,636.417" style="stroke:#181818;stroke-width:1.0;"/><line style="stroke:#181818;stroke-width:1.0;" x1="1366" x2="1366" y1="622.417" y2="642.417"/><polygon fill="#181818" points="1362,632.417,1366,642.417,1370,632.417,1366,636.417" style="stroke:#181818;stroke-width:1.0;"/><line style="stroke:#181818;stroke-width:1.0;" x1="1605.5" x2="1654.5" y1="886.3232" y2="886.3232"/><polygon fill="#181818" points="1650.5,964.1943,1654.5,974.1943,1658.5,964.1943,1654.5,968.1943" style="stroke:#181818;stroke-width:1.0;"/><line style="stroke:#181818;stroke-width:1.0;" x1="1654.5" x2="1654.5" y1="886.3232" y2="1057.6631"/><line style="stroke:#181818;stroke-width:1.0;" x1="1654.5" x2="1579" y1="1057.6631" y2="1057.6631"/><polygon fill="#181818" points="1589,1053.6631,1579,1057.6631,1589,1061.6631,1585,1057.6631" style="stroke:#181818;stroke-width:1.0;"/><line style="stroke:#181818;stroke-width:1.0;" x1="112.5" x2="112.5" y1="112.667" y2="117.667"/><line style="stroke:#181818;stroke-width:1.0;" x1="112.5" x2="457" y1="117.667" y2="117.667"/><line style="stroke:#181818;stroke-width:1.0;" x1="457" x2="457" y1="117.667" y2="132.667"/><polygon fill="#181818" points="453,122.667,457,132.667,461,122.667,457,126.667" style="stroke:#181818;stroke-width:1.0;"/><line style="stroke:#181818;stroke-width:1.0;" x1="457" x2="457" y1="166.6357" y2="171.6357"/><line style="stroke:#181818;stroke-width:1.0;" x1="457" x2="112.5" y1="171.6357" y2="171.6357"/><line style="stroke:#181818;stroke-width:1.0;" x1="112.5" x2="112.5" y1="171.6357" y2="186.6357"/><polygon fill="#181818" points="108.5,176.6357,112.5,186.6357,116.5,176.6357,112.5,180.6357" style="stroke:#181818;stroke-width:1.0;"/><line style="stroke:#181818;stroke-width:1.0;" x1="112.5" x2="112.5" y1="220.6045" y2="225.6045"/><line style="stroke:#181818;stroke-width:1.0;" x1="112.5" x2="457" y1="225.6045" y2="225.6045"/><line style="stroke:#181818;stroke-width:1.0;" x1="457" x2="457" y1="225.6045" y2="240.6045"/><polygon fill="#181818" points="453,230.6045,457,240.6045,461,230.6045,457,234.6045" style="stroke:#181818;stroke-width:1.0;"/><line style="stroke:#181818;stroke-width:1.0;" x1="457" x2="457" y1="274.5732" y2="279.5732"/><line style="stroke:#181818;stroke-width:1.0;" x1="457" x2="805.5" y1="279.5732" y2="279.5732"/><line style="stroke:#181818;stroke-width:1.0;" x1="805.5" x2="805.5" y1="279.5732" y2="294.5732"/><polygon fill="#181818" points="801.5,284.5732,805.5,294.5732,809.5,284.5732,805.5,288.5732" style="stroke:#181818;stroke-width:1.0;"/><line style="stroke:#181818;stroke-width:1.0;" x1="805.5" x2="805.5" y1="380.542" y2="385.542"/><line style="stroke:#181818;stroke-width:1.0;" x1="805.5" x2="112.5" y1="385.542" y2="385.542"/><line style="stroke:#181818;stroke-width:1.0;" x1="112.5" x2="112.5" y1="385.542" y2="400.542"/><polygon fill="#181818" points="108.5,390.542,112.5,400.542,116.5,390.542,112.5,394.542" style="stroke:#181818;stroke-width:1.0;"/><line style="stroke:#181818;stroke-width:1.0;" x1="112.5" x2="112.5" y1="542.4482" y2="547.4482"/><line style="stroke:#181818;stroke-width:1.0;" x1="112.5" x2="1277.5" y1="547.4482" y2="547.4482"/><line style="stroke:#181818;stroke-width:1.0;" x1="1277.5" x2="1277.5" y1="547.4482" y2="562.4482"/><polygon fill="#181818" points="1273.5,552.4482,1277.5,562.4482,1281.5,552.4482,1277.5,556.4482" style="stroke:#181818;stroke-width:1.0;"/><line style="stroke:#181818;stroke-width:1.0;" x1="1277.5" x2="1277.5" y1="648.417" y2="653.417"/><line style="stroke:#181818;stroke-width:1.0;" x1="1277.5" x2="1661.5" y1="653.417" y2="653.417"/><line style="stroke:#181818;stroke-width:1.0;" x1="1661.5" x2="1661.5" y1="653.417" y2="668.417"/><polygon fill="#181818" points="1657.5,658.417,1661.5,668.417,1665.5,658.417,1661.5,662.417" style="stroke:#181818;stroke-width:1.0;"/><line style="stroke:#181818;stroke-width:1.0;" x1="1661.5" x2="1661.5" y1="702.3857" y2="707.3857"/><line style="stroke:#181818;stroke-width:1.0;" x1="1661.5" x2="805.5" y1="707.3857" y2="707.3857"/><line style="stroke:#181818;stroke-width:1.0;" x1="805.5" x2="805.5" y1="707.3857" y2="722.3857"/><polygon fill="#181818" points="801.5,712.3857,805.5,722.3857,809.5,712.3857,805.5,716.3857" style="stroke:#181818;stroke-width:1.0;"/><line style="stroke:#181818;stroke-width:1.0;" x1="327" x2="327" y1="956.6943" y2="974.1943"/><line style="stroke:#181818;stroke-width:1.0;" x1="327" x2="675.5" y1="974.1943" y2="974.1943"/><line style="stroke:#181818;stroke-width:1.0;" x1="675.5" x2="675.5" y1="974.1943" y2="991.6943"/><polygon fill="#181818" points="671.5,981.6943,675.5,991.6943,679.5,981.6943,675.5,985.6943" style="stroke:#181818;stroke-width:1.0;"/><line style="stroke:#181818;stroke-width:1.0;" x1="1567" x2="1567" y1="898.3232" y2="910.5244"/><line style="stroke:#181818;stroke-width:1.0;" x1="1567" x2="327" y1="910.5244" y2="910.5244"/><line style="stroke:#181818;stroke-width:1.0;" x1="327" x2="327" y1="910.5244" y2="922.7256"/><polygon fill="#181818" points="323,912.7256,327,922.7256,331,912.7256,327,916.7256" style="stroke:#181818;stroke-width:1.0;"/><line style="stroke:#181818;stroke-width:1.0;" x1="675.5" x2="675.5" y1="1025.6631" y2="1033.4619"/><line style="stroke:#181818;stroke-width:1.0;" x1="675.5" x2="1567" y1="1033.4619" y2="1033.4619"/><line style="stroke:#181818;stroke-width:1.0;" x1="1567" x2="1567" y1="1033.4619" y2="1045.6631"/><polygon fill="#181818" points="1563,1035.6631,1567,1045.6631,1571,1035.6631,1567,1039.6631" style="stroke:#181818;stroke-width:1.0;"/><line style="stroke:#181818;stroke-width:1.0;" x1="675.5" x2="675.5" y1="854.3232" y2="859.3232"/><line style="stroke:#181818;stroke-width:1.0;" x1="675.5" x2="1567" y1="859.3232" y2="859.3232"/><line style="stroke:#181818;stroke-width:1.0;" x1="1567" x2="1567" y1="859.3232" y2="874.3232"/><polygon fill="#181818" points="1563,864.3232,1567,874.3232,1571,864.3232,1567,868.3232" style="stroke:#181818;stroke-width:1.0;"/><line style="stroke:#181818;stroke-width:1.0;" x1="1567" x2="1567" y1="1069.6631" y2="1073.6631"/><line style="stroke:#181818;stroke-width:1.0;" x1="1567" x2="775.5" y1="1073.6631" y2="1073.6631"/><line style="stroke:#181818;stroke-width:1.0;" x1="775.5" x2="775.5" y1="1073.6631" y2="1091.6631"/><line style="stroke:#181818;stroke-width:1.0;" x1="775.5" x2="793.5" y1="1091.6631" y2="1091.6631"/><polygon fill="#181818" points="783.5,1087.6631,793.5,1091.6631,783.5,1095.6631,787.5,1091.6631" style="stroke:#181818;stroke-width:1.0;"/><text fill="#000000" font-family="sans-serif" font-size="18" lengthAdjust="spacing" textLength="92" x="65.5" y="29.4531">Ng&#432;&#7901;i &#273;&#7885;c</text><text fill="#000000" font-family="sans-serif" font-size="18" lengthAdjust="spacing" textLength="189" x="285.25" y="29.4531">H&#7879; th&#7889;ng ng&#226;n h&#224;ng</text><text fill="#000000" font-family="sans-serif" font-size="18" lengthAdjust="spacing" textLength="85" x="762" y="29.4531">H&#7879; th&#7889;ng</text><text fill="#000000" font-family="sans-serif" font-size="18" lengthAdjust="spacing" textLength="83" x="1244" y="29.4531">h&#7879; th&#7889;ng</text><text fill="#000000" font-family="sans-serif" font-size="18" lengthAdjust="spacing" textLength="74" x="1568.5" y="29.4531">D&#7883;ch gi&#7843;</text><!--SRC=[bL8zJy906DxlLxnZ6KoSQUA2Wma99ihWMahRku1NqXQLf8lfu60O-04c80EJYODJRt0uul-uV-BR3_2k4enBqzuzx_FLD-q5N-zAl33OBfIOkocGE76YXBHxAbzD865AF7ARf1TAF452bLZm07WWNpbGkUH1IjetSkK2fof_uy3DgIQx0JxEsg7JcH8PhydWJYv3I287WVVUe36R4Z-CHa3QVIe_436Ggn0kJzoGSPIMQtmKHjPkPT2ku4xWu3qERJESYP49nYKCl-fXLucDWywC63Rn-10AYaC9EsXfpc6enBDB8M0gNyFjjB09mv0xYMTZkKK1aqgopjU4c4NHNs7Dh6N8tUnFEAt6KcjVYSe_iLcvP32Y8Jeq_Ue1pxLpJ7Sby-JmLk1b5y-ps-8lmNM_QnFcMxNY6Pos4EXni6PUt3BDFsWB51dyfZZpmT9gCGZ_iqf_nsy6qztkIVIrSci9R6uSUs3ni5Lso7pju1Zhg7eljcYZ-HHPsOYz8ukJSF8D]--></g></svg>