<?xml version="1.0" encoding="us-ascii" standalone="no"?><svg xmlns="http://www.w3.org/2000/svg" xmlns:xlink="http://www.w3.org/1999/xlink" contentStyleType="text/css" height="740px" preserveAspectRatio="none" style="width:1155px;height:740px;background:#FFFFFF;" version="1.1" viewBox="0 0 1155 740" width="1155px" zoomAndPan="magnify"><defs/><g><rect fill="none" height="20.9531" style="stroke:none;stroke-width:1.0;" width="1122" x="15" y="12.7451"/><ellipse cx="289" cy="48.6982" fill="#222222" rx="10" ry="10" style="stroke:#222222;stroke-width:1.0;"/><rect fill="#F1F1F1" height="33.9688" rx="12.5" ry="12.5" style="stroke:#181818;stroke-width:0.5;" width="110" x="234" y="78.6982"/><text fill="#000000" font-family="sans-serif" font-size="12" lengthAdjust="spacing" textLength="90" x="244" y="99.8369">Qu&#234;n m&#7853;t kh&#7849;u</text><rect fill="#F1F1F1" height="33.9688" rx="12.5" ry="12.5" style="stroke:#181818;stroke-width:0.5;" width="200" x="189" y="132.667"/><text fill="#000000" font-family="sans-serif" font-size="12" lengthAdjust="spacing" textLength="180" x="199" y="153.8057">Nh&#7853;p &#273;&#7883;a ch&#7881; email &#273;&#227; &#273;&#259;ng k&#253;</text><rect fill="#F1F1F1" height="33.9688" rx="12.5" ry="12.5" style="stroke:#181818;stroke-width:0.5;" width="145" x="27.5" y="284.6045"/><text fill="#000000" font-family="sans-serif" font-size="12" lengthAdjust="spacing" textLength="125" x="37.5" y="305.7432">Ki&#7875;m tra h&#7897;p th&#432; &#273;&#7871;n</text><rect fill="#F1F1F1" height="33.9688" rx="12.5" ry="12.5" style="stroke:#181818;stroke-width:0.5;" width="154" x="23" y="338.5732"/><text fill="#000000" font-family="sans-serif" font-size="12" lengthAdjust="spacing" textLength="134" x="33" y="359.7119">Nh&#7845;n v&#224;o link ph&#7909;c h&#7891;i</text><rect fill="#F1F1F1" height="33.9688" rx="12.5" ry="12.5" style="stroke:#181818;stroke-width:0.5;" width="134" x="33" y="392.542"/><text fill="#000000" font-family="sans-serif" font-size="12" lengthAdjust="spacing" textLength="114" x="43" y="413.6807">Nh&#7853;p m&#7853;t kh&#7849;u m&#7899;i</text><rect fill="#F1F1F1" height="33.9688" rx="12.5" ry="12.5" style="stroke:#181818;stroke-width:0.5;" width="158" x="21" y="446.5107"/><text fill="#000000" font-family="sans-serif" font-size="12" lengthAdjust="spacing" textLength="138" x="31" y="467.6494">X&#225;c nh&#7853;n m&#7853;t kh&#7849;u m&#7899;i</text><line style="stroke:#000000;stroke-width:1.5;" x1="15" x2="15" y1="12.7451" y2="728.417"/><polygon fill="#F1F1F1" points="769,186.6357,846,186.6357,858,198.6357,846,210.6357,769,210.6357,757,198.6357,769,186.6357" style="stroke:#181818;stroke-width:0.5;"/><text fill="#000000" font-family="sans-serif" font-size="11" lengthAdjust="spacing" textLength="77" x="769" y="202.4438">Email h&#7907;p l&#7879;?</text><text fill="#000000" font-family="sans-serif" font-size="11" lengthAdjust="spacing" textLength="21" x="736" y="196.0415">yes</text><text fill="#000000" font-family="sans-serif" font-size="11" lengthAdjust="spacing" textLength="14" x="858" y="196.0415">no</text><rect fill="#F1F1F1" height="33.9688" rx="12.5" ry="12.5" style="stroke:#181818;stroke-width:0.5;" width="188" x="503.5" y="230.6357"/><text fill="#000000" font-family="sans-serif" font-size="12" lengthAdjust="spacing" textLength="168" x="513.5" y="251.7744">G&#7917;i email ph&#7909;c h&#7891;i t&#224;i kho&#7843;n</text><polygon fill="#F1F1F1" points="549,500.4795,646,500.4795,658,512.4795,646,524.4795,549,524.4795,537,512.4795,549,500.4795" style="stroke:#181818;stroke-width:0.5;"/><text fill="#000000" font-family="sans-serif" font-size="11" lengthAdjust="spacing" textLength="97" x="549" y="516.2876">M&#7853;t kh&#7849;u h&#7907;p l&#7879;?</text><text fill="#000000" font-family="sans-serif" font-size="11" lengthAdjust="spacing" textLength="21" x="516" y="509.8853">yes</text><text fill="#000000" font-family="sans-serif" font-size="11" lengthAdjust="spacing" textLength="14" x="658" y="509.8853">no</text><rect fill="#F1F1F1" height="33.9688" rx="12.5" ry="12.5" style="stroke:#181818;stroke-width:0.5;" width="124" x="414.5" y="534.4795"/><text fill="#000000" font-family="sans-serif" font-size="12" lengthAdjust="spacing" textLength="104" x="424.5" y="555.6182">L&#432;u m&#7853;t kh&#7849;u m&#7899;i</text><rect fill="#F1F1F1" height="33.9688" rx="12.5" ry="12.5" style="stroke:#181818;stroke-width:0.5;" width="155" x="399" y="588.4482"/><text fill="#000000" font-family="sans-serif" font-size="12" lengthAdjust="spacing" textLength="135" x="409" y="609.5869">Th&#244;ng b&#225;o ng&#432;&#7901;i d&#249;ng</text><rect fill="#F1F1F1" height="33.9688" rx="12.5" ry="12.5" style="stroke:#181818;stroke-width:0.5;" width="289" x="574" y="534.4795"/><text fill="#000000" font-family="sans-serif" font-size="12" lengthAdjust="spacing" textLength="269" x="584" y="555.6182">Hi&#7875;n th&#7883; th&#244;ng b&#225;o l&#7895;i m&#7853;t kh&#7849;u kh&#244;ng h&#7907;p l&#7879;</text><polygon fill="#F1F1F1" points="597.5,628.417,609.5,640.417,597.5,652.417,585.5,640.417,597.5,628.417" style="stroke:#181818;stroke-width:0.5;"/><rect fill="#F1F1F1" height="33.9688" rx="12.5" ry="12.5" style="stroke:#181818;stroke-width:0.5;" width="249" x="882" y="230.6357"/><text fill="#000000" font-family="sans-serif" font-size="12" lengthAdjust="spacing" textLength="229" x="892" y="251.7744">Hi&#7875;n th&#7883; th&#244;ng b&#225;o email kh&#244;ng h&#7907;p l&#7879;</text><polygon fill="#F1F1F1" points="807.5,662.417,819.5,674.417,807.5,686.417,795.5,674.417,807.5,662.417" style="stroke:#181818;stroke-width:0.5;"/><ellipse cx="807.5" cy="717.417" fill="none" rx="11" ry="11" style="stroke:#222222;stroke-width:1.0;"/><ellipse cx="807.5" cy="717.417" fill="#222222" rx="6" ry="6" style="stroke:#222222;stroke-width:1.0;"/><line style="stroke:#000000;stroke-width:1.5;" x1="393" x2="393" y1="12.7451" y2="728.417"/><line style="stroke:#000000;stroke-width:1.5;" x1="1135" x2="1135" y1="12.7451" y2="728.417"/><line style="stroke:#181818;stroke-width:1.0;" x1="289" x2="289" y1="58.6982" y2="78.6982"/><polygon fill="#181818" points="285,68.6982,289,78.6982,293,68.6982,289,72.6982" style="stroke:#181818;stroke-width:1.0;"/><line style="stroke:#181818;stroke-width:1.0;" x1="289" x2="289" y1="112.667" y2="132.667"/><polygon fill="#181818" points="285,122.667,289,132.667,293,122.667,289,126.667" style="stroke:#181818;stroke-width:1.0;"/><line style="stroke:#181818;stroke-width:1.0;" x1="100" x2="100" y1="318.5732" y2="338.5732"/><polygon fill="#181818" points="96,328.5732,100,338.5732,104,328.5732,100,332.5732" style="stroke:#181818;stroke-width:1.0;"/><line style="stroke:#181818;stroke-width:1.0;" x1="100" x2="100" y1="372.542" y2="392.542"/><polygon fill="#181818" points="96,382.542,100,392.542,104,382.542,100,386.542" style="stroke:#181818;stroke-width:1.0;"/><line style="stroke:#181818;stroke-width:1.0;" x1="100" x2="100" y1="426.5107" y2="446.5107"/><polygon fill="#181818" points="96,436.5107,100,446.5107,104,436.5107,100,440.5107" style="stroke:#181818;stroke-width:1.0;"/><line style="stroke:#181818;stroke-width:1.0;" x1="476.5" x2="476.5" y1="568.4482" y2="588.4482"/><polygon fill="#181818" points="472.5,578.4482,476.5,588.4482,480.5,578.4482,476.5,582.4482" style="stroke:#181818;stroke-width:1.0;"/><line style="stroke:#181818;stroke-width:1.0;" x1="537" x2="476.5" y1="512.4795" y2="512.4795"/><line style="stroke:#181818;stroke-width:1.0;" x1="476.5" x2="476.5" y1="512.4795" y2="534.4795"/><polygon fill="#181818" points="472.5,524.4795,476.5,534.4795,480.5,524.4795,476.5,528.4795" style="stroke:#181818;stroke-width:1.0;"/><line style="stroke:#181818;stroke-width:1.0;" x1="658" x2="718.5" y1="512.4795" y2="512.4795"/><line style="stroke:#181818;stroke-width:1.0;" x1="718.5" x2="718.5" y1="512.4795" y2="534.4795"/><polygon fill="#181818" points="714.5,524.4795,718.5,534.4795,722.5,524.4795,718.5,528.4795" style="stroke:#181818;stroke-width:1.0;"/><line style="stroke:#181818;stroke-width:1.0;" x1="476.5" x2="476.5" y1="622.417" y2="640.417"/><line style="stroke:#181818;stroke-width:1.0;" x1="476.5" x2="585.5" y1="640.417" y2="640.417"/><polygon fill="#181818" points="575.5,636.417,585.5,640.417,575.5,644.417,579.5,640.417" style="stroke:#181818;stroke-width:1.0;"/><line style="stroke:#181818;stroke-width:1.0;" x1="718.5" x2="718.5" y1="568.4482" y2="640.417"/><line style="stroke:#181818;stroke-width:1.0;" x1="718.5" x2="609.5" y1="640.417" y2="640.417"/><polygon fill="#181818" points="619.5,636.417,609.5,640.417,619.5,644.417,615.5,640.417" style="stroke:#181818;stroke-width:1.0;"/><line style="stroke:#181818;stroke-width:1.0;" x1="757" x2="597.5" y1="198.6357" y2="198.6357"/><line style="stroke:#181818;stroke-width:1.0;" x1="597.5" x2="597.5" y1="198.6357" y2="230.6357"/><polygon fill="#181818" points="593.5,220.6357,597.5,230.6357,601.5,220.6357,597.5,224.6357" style="stroke:#181818;stroke-width:1.0;"/><line style="stroke:#181818;stroke-width:1.0;" x1="858" x2="1006.5" y1="198.6357" y2="198.6357"/><line style="stroke:#181818;stroke-width:1.0;" x1="1006.5" x2="1006.5" y1="198.6357" y2="230.6357"/><polygon fill="#181818" points="1002.5,220.6357,1006.5,230.6357,1010.5,220.6357,1006.5,224.6357" style="stroke:#181818;stroke-width:1.0;"/><line style="stroke:#181818;stroke-width:1.0;" x1="597.5" x2="597.5" y1="652.417" y2="674.417"/><line style="stroke:#181818;stroke-width:1.0;" x1="597.5" x2="795.5" y1="674.417" y2="674.417"/><polygon fill="#181818" points="785.5,670.417,795.5,674.417,785.5,678.417,789.5,674.417" style="stroke:#181818;stroke-width:1.0;"/><line style="stroke:#181818;stroke-width:1.0;" x1="1006.5" x2="1006.5" y1="264.6045" y2="674.417"/><line style="stroke:#181818;stroke-width:1.0;" x1="1006.5" x2="819.5" y1="674.417" y2="674.417"/><polygon fill="#181818" points="829.5,670.417,819.5,674.417,829.5,678.417,825.5,674.417" style="stroke:#181818;stroke-width:1.0;"/><line style="stroke:#181818;stroke-width:1.0;" x1="807.5" x2="807.5" y1="686.417" y2="706.417"/><polygon fill="#181818" points="803.5,696.417,807.5,706.417,811.5,696.417,807.5,700.417" style="stroke:#181818;stroke-width:1.0;"/><line style="stroke:#181818;stroke-width:1.0;" x1="597.5" x2="597.5" y1="264.6045" y2="269.6045"/><line style="stroke:#181818;stroke-width:1.0;" x1="597.5" x2="100" y1="269.6045" y2="269.6045"/><line style="stroke:#181818;stroke-width:1.0;" x1="100" x2="100" y1="269.6045" y2="284.6045"/><polygon fill="#181818" points="96,274.6045,100,284.6045,104,274.6045,100,278.6045" style="stroke:#181818;stroke-width:1.0;"/><line style="stroke:#181818;stroke-width:1.0;" x1="100" x2="100" y1="480.4795" y2="485.4795"/><line style="stroke:#181818;stroke-width:1.0;" x1="100" x2="597.5" y1="485.4795" y2="485.4795"/><line style="stroke:#181818;stroke-width:1.0;" x1="597.5" x2="597.5" y1="485.4795" y2="500.4795"/><polygon fill="#181818" points="593.5,490.4795,597.5,500.4795,601.5,490.4795,597.5,494.4795" style="stroke:#181818;stroke-width:1.0;"/><line style="stroke:#181818;stroke-width:1.0;" x1="289" x2="289" y1="166.6357" y2="171.6357"/><line style="stroke:#181818;stroke-width:1.0;" x1="289" x2="807.5" y1="171.6357" y2="171.6357"/><line style="stroke:#181818;stroke-width:1.0;" x1="807.5" x2="807.5" y1="171.6357" y2="186.6357"/><polygon fill="#181818" points="803.5,176.6357,807.5,186.6357,811.5,176.6357,807.5,180.6357" style="stroke:#181818;stroke-width:1.0;"/><text fill="#000000" font-family="sans-serif" font-size="18" lengthAdjust="spacing" textLength="106" x="151" y="29.4531">Ng&#432;&#7901;i d&#249;ng</text><text fill="#000000" font-family="sans-serif" font-size="18" lengthAdjust="spacing" textLength="85" x="721.5" y="29.4531">H&#7879; th&#7889;ng</text><!--SRC=[TL4_IyD05D_pATwOVeLaS18BQa7eu1hRj3cIl8JcAWZPEeXqAWuY8hI43Wg532xc48Sh_HxtJNoNY4rZinoN-_tUxyzBsXllSYLU6Gpb9uvJ8-7EX1lMrLI-8uIgs73mFLMyJMt3wj5b4yDseSJSWO6dn0EueSC2Uf8P7TiPZi6NNxQHTfMu1qwKXLPb8p1FIoQzP344X9vq27SHp3itwHW0rfaI6_Oh61DlFT3iHmPSBXcbY5IHeKtCj1cQXi-P4hCG-CJHGyynQUzo7RNuBcVAy6k4MxcC863e7rZyCQXUlJHzY9SAlPQh0Q2cu55Aep60xdnP9xPNfqhDQNAysENJbZI4zZtvGTk-aQi8y60Vck06YGicHfMwrTNRmL9_JkT-aj8yiKCJluBtQKiz7BAHKLVzbxZTfFgbHtGR6fL9mgFu1m00]--></g></svg>