<?xml version="1.0" encoding="us-ascii" standalone="no"?><svg xmlns="http://www.w3.org/2000/svg" xmlns:xlink="http://www.w3.org/1999/xlink" contentStyleType="text/css" height="766px" preserveAspectRatio="none" style="width:1565px;height:766px;background:#FFFFFF;" version="1.1" viewBox="0 0 1565 766" width="1565px" zoomAndPan="magnify"><defs/><g><rect fill="none" height="20.9531" style="stroke:none;stroke-width:1.0;" width="1532.5" x="15" y="12.7451"/><ellipse cx="67" cy="48.6982" fill="#222222" rx="10" ry="10" style="stroke:#222222;stroke-width:1.0;"/><rect fill="#F1F1F1" height="33.9688" rx="12.5" ry="12.5" style="stroke:#181818;stroke-width:0.5;" width="84" x="25" y="78.6982"/><text fill="#000000" font-family="sans-serif" font-size="12" lengthAdjust="spacing" textLength="64" x="35" y="99.8369">&#273;&#7885;c truy&#7879;n</text><line style="stroke:#000000;stroke-width:1.5;" x1="15" x2="15" y1="12.7451" y2="754.8506"/><rect fill="#F1F1F1" height="33.9688" rx="12.5" ry="12.5" style="stroke:#181818;stroke-width:0.5;" width="182" x="408.75" y="132.667"/><text fill="#000000" font-family="sans-serif" font-size="12" lengthAdjust="spacing" textLength="162" x="418.75" y="153.8057">T&#259;ng 1 O-Coin cho d&#7883;ch gi&#7843;</text><rect fill="#F1F1F1" height="33.9688" rx="12.5" ry="12.5" style="stroke:#181818;stroke-width:0.5;" width="97" x="451.25" y="240.6045"/><text fill="#000000" font-family="sans-serif" font-size="12" lengthAdjust="spacing" textLength="77" x="461.25" y="261.7432">Ki&#7875;m tra STK</text><polygon fill="#F1F1F1" points="469.75,294.5732,529.75,294.5732,541.75,306.5732,529.75,318.5732,469.75,318.5732,457.75,306.5732,469.75,294.5732" style="stroke:#181818;stroke-width:0.5;"/><text fill="#000000" font-family="sans-serif" font-size="11" lengthAdjust="spacing" textLength="60" x="469.75" y="310.3813">O-coin &gt; 0</text><text fill="#000000" font-family="sans-serif" font-size="11" lengthAdjust="spacing" textLength="21" x="436.75" y="303.979">yes</text><text fill="#000000" font-family="sans-serif" font-size="11" lengthAdjust="spacing" textLength="14" x="541.75" y="303.979">no</text><rect fill="#F1F1F1" height="33.9688" rx="12.5" ry="12.5" style="stroke:#181818;stroke-width:0.5;" width="187" x="231" y="338.5732"/><text fill="#000000" font-family="sans-serif" font-size="12" lengthAdjust="spacing" textLength="167" x="241" y="359.7119">Th&#244;ng b&#225;o x&#225;c nh&#7853;n r&#250;t ti&#7873;n</text><rect fill="#555555" height="6" rx="2.5" ry="2.5" style="stroke:#555555;stroke-width:1.0;" width="405" x="123" y="548.8818"/><rect fill="#F1F1F1" height="33.9688" rx="12.5" ry="12.5" style="stroke:#181818;stroke-width:0.5;" width="210" x="135" y="574.8818"/><text fill="#000000" font-family="sans-serif" font-size="12" lengthAdjust="spacing" textLength="190" x="145" y="596.0205">Th&#244;ng b&#225;o ti&#7873;n &#273;&#227; &#273;&#432;&#7907;c chuy&#7875;n</text><rect fill="#F1F1F1" height="33.9688" rx="12.5" ry="12.5" style="stroke:#181818;stroke-width:0.5;" width="141" x="373" y="574.8818"/><text fill="#000000" font-family="sans-serif" font-size="12" lengthAdjust="spacing" textLength="121" x="383" y="596.0205">gi&#7843;m O-coin hi&#7879;n c&#243;</text><rect fill="#555555" height="6" rx="2.5" ry="2.5" style="stroke:#555555;stroke-width:1.0;" width="405" x="123" y="628.8506"/><rect fill="#F1F1F1" height="33.9688" rx="12.5" ry="12.5" style="stroke:#181818;stroke-width:0.5;" width="210" x="570" y="338.5732"/><text fill="#000000" font-family="sans-serif" font-size="12" lengthAdjust="spacing" textLength="190" x="580" y="359.7119">Th&#244;ng b&#225;o kh&#244;ng &#273;&#7911; ti&#7873;n &#273;&#7875; r&#250;t</text><polygon fill="#F1F1F1" points="499.75,688.8506,511.75,700.8506,499.75,712.8506,487.75,700.8506,499.75,688.8506" style="stroke:#181818;stroke-width:0.5;"/><ellipse cx="499.75" cy="743.8506" fill="none" rx="11" ry="11" style="stroke:#222222;stroke-width:1.0;"/><ellipse cx="499.75" cy="743.8506" fill="#222222" rx="6" ry="6" style="stroke:#222222;stroke-width:1.0;"/><line style="stroke:#000000;stroke-width:1.5;" x1="117" x2="117" y1="12.7451" y2="754.8506"/><rect fill="#F1F1F1" height="33.9688" rx="12.5" ry="12.5" style="stroke:#181818;stroke-width:0.5;" width="64" x="1107.25" y="186.6357"/><text fill="#000000" font-family="sans-serif" font-size="12" lengthAdjust="spacing" textLength="44" x="1117.25" y="207.7744">R&#250;t ti&#7873;n</text><rect fill="#F1F1F1" height="33.9688" rx="12.5" ry="12.5" style="stroke:#181818;stroke-width:0.5;" width="348" x="790" y="392.542"/><text fill="#000000" font-family="sans-serif" font-size="12" lengthAdjust="spacing" textLength="328" x="800" y="413.6807">ch&#7885;n s&#7889; O-coin mu&#7889;n r&#250;t (m&#7895;i O-coin t&#432;&#417;ng &#7913;ng 1VND)</text><polygon fill="#F1F1F1" points="937.5,446.5107,990.5,446.5107,1002.5,458.5107,990.5,470.5107,937.5,470.5107,925.5,458.5107,937.5,446.5107" style="stroke:#181818;stroke-width:0.5;"/><text fill="#000000" font-family="sans-serif" font-size="11" lengthAdjust="spacing" textLength="21" x="968" y="480.7212">yes</text><text fill="#000000" font-family="sans-serif" font-size="11" lengthAdjust="spacing" textLength="53" x="937.5" y="462.3188">X&#225;c nh&#7853;n</text><text fill="#000000" font-family="sans-serif" font-size="11" lengthAdjust="spacing" textLength="14" x="1002.5" y="455.9165">no</text><polygon fill="#F1F1F1" points="964,654.8506,976,666.8506,964,678.8506,952,666.8506,964,654.8506" style="stroke:#181818;stroke-width:0.5;"/><line style="stroke:#000000;stroke-width:1.5;" x1="784" x2="784" y1="12.7451" y2="754.8506"/><rect fill="#F1F1F1" height="33.9688" rx="12.5" ry="12.5" style="stroke:#181818;stroke-width:0.5;" width="339" x="1202.5" y="494.9131"/><text fill="#000000" font-family="sans-serif" font-size="12" lengthAdjust="spacing" textLength="319" x="1212.5" y="516.0518">Chuy&#7875;n ti&#7873;n t&#7915; t&#224;i kho&#7843;n admin &#273;&#7871;n t&#224;i kho&#7843;n d&#7883;ch gi&#7843;</text><line style="stroke:#000000;stroke-width:1.5;" x1="1196.5" x2="1196.5" y1="12.7451" y2="754.8506"/><line style="stroke:#000000;stroke-width:1.5;" x1="1545.5" x2="1545.5" y1="12.7451" y2="754.8506"/><line style="stroke:#181818;stroke-width:1.0;" x1="67" x2="67" y1="58.6982" y2="78.6982"/><polygon fill="#181818" points="63,68.6982,67,78.6982,71,68.6982,67,72.6982" style="stroke:#181818;stroke-width:1.0;"/><line style="stroke:#181818;stroke-width:1.0;" x1="240" x2="240" y1="554.8818" y2="574.8818"/><polygon fill="#181818" points="236,564.8818,240,574.8818,244,564.8818,240,568.8818" style="stroke:#181818;stroke-width:1.0;"/><line style="stroke:#181818;stroke-width:1.0;" x1="443.5" x2="443.5" y1="554.8818" y2="574.8818"/><polygon fill="#181818" points="439.5,564.8818,443.5,574.8818,447.5,564.8818,443.5,568.8818" style="stroke:#181818;stroke-width:1.0;"/><line style="stroke:#181818;stroke-width:1.0;" x1="240" x2="240" y1="608.8506" y2="628.8506"/><polygon fill="#181818" points="236,618.8506,240,628.8506,244,618.8506,240,622.8506" style="stroke:#181818;stroke-width:1.0;"/><line style="stroke:#181818;stroke-width:1.0;" x1="443.5" x2="443.5" y1="608.8506" y2="628.8506"/><polygon fill="#181818" points="439.5,618.8506,443.5,628.8506,447.5,618.8506,443.5,622.8506" style="stroke:#181818;stroke-width:1.0;"/><line style="stroke:#181818;stroke-width:1.0;" x1="457.75" x2="324.5" y1="306.5732" y2="306.5732"/><line style="stroke:#181818;stroke-width:1.0;" x1="324.5" x2="324.5" y1="306.5732" y2="338.5732"/><polygon fill="#181818" points="320.5,328.5732,324.5,338.5732,328.5,328.5732,324.5,332.5732" style="stroke:#181818;stroke-width:1.0;"/><line style="stroke:#181818;stroke-width:1.0;" x1="541.75" x2="675" y1="306.5732" y2="306.5732"/><line style="stroke:#181818;stroke-width:1.0;" x1="675" x2="675" y1="306.5732" y2="338.5732"/><polygon fill="#181818" points="671,328.5732,675,338.5732,679,328.5732,675,332.5732" style="stroke:#181818;stroke-width:1.0;"/><line style="stroke:#181818;stroke-width:1.0;" x1="675" x2="675" y1="372.542" y2="700.8506"/><line style="stroke:#181818;stroke-width:1.0;" x1="675" x2="511.75" y1="700.8506" y2="700.8506"/><polygon fill="#181818" points="521.75,696.8506,511.75,700.8506,521.75,704.8506,517.75,700.8506" style="stroke:#181818;stroke-width:1.0;"/><line style="stroke:#181818;stroke-width:1.0;" x1="499.75" x2="499.75" y1="274.5732" y2="294.5732"/><polygon fill="#181818" points="495.75,284.5732,499.75,294.5732,503.75,284.5732,499.75,288.5732" style="stroke:#181818;stroke-width:1.0;"/><line style="stroke:#181818;stroke-width:1.0;" x1="499.75" x2="499.75" y1="712.8506" y2="732.8506"/><polygon fill="#181818" points="495.75,722.8506,499.75,732.8506,503.75,722.8506,499.75,726.8506" style="stroke:#181818;stroke-width:1.0;"/><line style="stroke:#181818;stroke-width:1.0;" x1="1002.5" x2="1177.5" y1="458.5107" y2="458.5107"/><polygon fill="#181818" points="1173.5,547.3818,1177.5,557.3818,1181.5,547.3818,1177.5,551.3818" style="stroke:#181818;stroke-width:1.0;"/><line style="stroke:#181818;stroke-width:1.0;" x1="1177.5" x2="1177.5" y1="458.5107" y2="666.8506"/><line style="stroke:#181818;stroke-width:1.0;" x1="1177.5" x2="976" y1="666.8506" y2="666.8506"/><polygon fill="#181818" points="986,662.8506,976,666.8506,986,670.8506,982,666.8506" style="stroke:#181818;stroke-width:1.0;"/><line style="stroke:#181818;stroke-width:1.0;" x1="964" x2="964" y1="426.5107" y2="446.5107"/><polygon fill="#181818" points="960,436.5107,964,446.5107,968,436.5107,964,440.5107" style="stroke:#181818;stroke-width:1.0;"/><line style="stroke:#181818;stroke-width:1.0;" x1="67" x2="67" y1="112.667" y2="117.667"/><line style="stroke:#181818;stroke-width:1.0;" x1="67" x2="499.75" y1="117.667" y2="117.667"/><line style="stroke:#181818;stroke-width:1.0;" x1="499.75" x2="499.75" y1="117.667" y2="132.667"/><polygon fill="#181818" points="495.75,122.667,499.75,132.667,503.75,122.667,499.75,126.667" style="stroke:#181818;stroke-width:1.0;"/><line style="stroke:#181818;stroke-width:1.0;" x1="499.75" x2="499.75" y1="166.6357" y2="171.6357"/><line style="stroke:#181818;stroke-width:1.0;" x1="499.75" x2="1139.25" y1="171.6357" y2="171.6357"/><line style="stroke:#181818;stroke-width:1.0;" x1="1139.25" x2="1139.25" y1="171.6357" y2="186.6357"/><polygon fill="#181818" points="1135.25,176.6357,1139.25,186.6357,1143.25,176.6357,1139.25,180.6357" style="stroke:#181818;stroke-width:1.0;"/><line style="stroke:#181818;stroke-width:1.0;" x1="1139.25" x2="1139.25" y1="220.6045" y2="225.6045"/><line style="stroke:#181818;stroke-width:1.0;" x1="1139.25" x2="499.75" y1="225.6045" y2="225.6045"/><line style="stroke:#181818;stroke-width:1.0;" x1="499.75" x2="499.75" y1="225.6045" y2="240.6045"/><polygon fill="#181818" points="495.75,230.6045,499.75,240.6045,503.75,230.6045,499.75,234.6045" style="stroke:#181818;stroke-width:1.0;"/><line style="stroke:#181818;stroke-width:1.0;" x1="324.5" x2="324.5" y1="372.542" y2="377.542"/><line style="stroke:#181818;stroke-width:1.0;" x1="324.5" x2="964" y1="377.542" y2="377.542"/><line style="stroke:#181818;stroke-width:1.0;" x1="964" x2="964" y1="377.542" y2="392.542"/><polygon fill="#181818" points="960,382.542,964,392.542,968,382.542,964,386.542" style="stroke:#181818;stroke-width:1.0;"/><line style="stroke:#181818;stroke-width:1.0;" x1="1372" x2="1372" y1="528.8818" y2="533.8818"/><line style="stroke:#181818;stroke-width:1.0;" x1="1372" x2="324.5" y1="533.8818" y2="533.8818"/><line style="stroke:#181818;stroke-width:1.0;" x1="324.5" x2="324.5" y1="533.8818" y2="548.8818"/><polygon fill="#181818" points="320.5,538.8818,324.5,548.8818,328.5,538.8818,324.5,542.8818" style="stroke:#181818;stroke-width:1.0;"/><line style="stroke:#181818;stroke-width:1.0;" x1="964" x2="964" y1="470.5107" y2="482.7119"/><line style="stroke:#181818;stroke-width:1.0;" x1="964" x2="1372" y1="482.7119" y2="482.7119"/><line style="stroke:#181818;stroke-width:1.0;" x1="1372" x2="1372" y1="482.7119" y2="494.9131"/><polygon fill="#181818" points="1368,484.9131,1372,494.9131,1376,484.9131,1372,488.9131" style="stroke:#181818;stroke-width:1.0;"/><line style="stroke:#181818;stroke-width:1.0;" x1="324.5" x2="324.5" y1="634.8506" y2="642.6494"/><line style="stroke:#181818;stroke-width:1.0;" x1="324.5" x2="964" y1="642.6494" y2="642.6494"/><line style="stroke:#181818;stroke-width:1.0;" x1="964" x2="964" y1="642.6494" y2="654.8506"/><polygon fill="#181818" points="960,644.8506,964,654.8506,968,644.8506,964,648.8506" style="stroke:#181818;stroke-width:1.0;"/><line style="stroke:#181818;stroke-width:1.0;" x1="964" x2="964" y1="678.8506" y2="682.8506"/><line style="stroke:#181818;stroke-width:1.0;" x1="964" x2="469.75" y1="682.8506" y2="682.8506"/><line style="stroke:#181818;stroke-width:1.0;" x1="469.75" x2="469.75" y1="682.8506" y2="700.8506"/><line style="stroke:#181818;stroke-width:1.0;" x1="469.75" x2="487.75" y1="700.8506" y2="700.8506"/><polygon fill="#181818" points="477.75,696.8506,487.75,700.8506,477.75,704.8506,481.75,700.8506" style="stroke:#181818;stroke-width:1.0;"/><text fill="#000000" font-family="sans-serif" font-size="18" lengthAdjust="spacing" textLength="92" x="20" y="29.4531">Ng&#432;&#7901;i &#273;&#7885;c</text><text fill="#000000" font-family="sans-serif" font-size="18" lengthAdjust="spacing" textLength="85" x="408" y="29.4531">H&#7879; th&#7889;ng</text><text fill="#000000" font-family="sans-serif" font-size="18" lengthAdjust="spacing" textLength="74" x="953.25" y="29.4531">D&#7883;ch gi&#7843;</text><text fill="#000000" font-family="sans-serif" font-size="18" lengthAdjust="spacing" textLength="189" x="1276.5" y="29.4531">H&#7879; th&#7889;ng ng&#226;n h&#224;ng</text><!--SRC=[RP8nIyD05CVtV8et9aD17HjmQGUbq88MSOtND7V4l9Ja2XQwI0S7wT39IMZj82A2e5DkSBZIxt7Vn9UafKqrGv9xT-__-x_tRjmErfz6FGjOpOoQiZ5OgVGIQTNBDSXaE3Bg0LrhV4PVaDoe6GPZgzvTJJ20O-ZK6h50O3o6db6FZ4CWJBQaXERUaX8kT2P12gFk_r5hKNmI4Sw3osxBjKJVxjHOBdmAHmuTz17iaPyw1ERwcyWtUX73dLumG6wo3uIaedy0PqIQ8gJ4WurmDCpXPPeT6VKajZjo_RbU4CAejxp4gtRJoHs1VRt3LJnLgW4Cz0i2r_EYiWRFEpZ1ZJMGHhs3r7C18O_978BNYmXA3Sz-iBfpqD1gp_fn4bQxiI6iPdf9htomIqQ3AVbkaG1Uu0cqweLaj2sOYtp6mFINQ_dOWqBQlqrzi35sYf3exmN-t8Kz4s7vdz-VrvqZSb1qsjsAfJ8UMFIaeS21btWH14ay79mZznCXFMG-dFm2]--></g></svg>