<?xml version="1.0" encoding="us-ascii" standalone="no"?><svg xmlns="http://www.w3.org/2000/svg" xmlns:xlink="http://www.w3.org/1999/xlink" contentStyleType="text/css" height="328px" preserveAspectRatio="none" style="width:467px;height:328px;background:#FFFFFF;" version="1.1" viewBox="0 0 467 328" width="467px" zoomAndPan="magnify"><defs/><g><rect fill="none" height="20.9531" style="stroke:none;stroke-width:1.0;" width="434" x="15" y="12.7451"/><ellipse cx="122" cy="48.6982" fill="#222222" rx="10" ry="10" style="stroke:#222222;stroke-width:1.0;"/><rect fill="#F1F1F1" height="33.9688" rx="12.5" ry="12.5" style="stroke:#181818;stroke-width:0.5;" width="154" x="45" y="78.6982"/><text fill="#000000" font-family="sans-serif" font-size="12" lengthAdjust="spacing" textLength="134" x="55" y="99.8369">Ch&#7885;n truy&#7879;n mu&#7889;n &#273;&#7885;c</text><rect fill="#F1F1F1" height="33.9688" rx="12.5" ry="12.5" style="stroke:#181818;stroke-width:0.5;" width="202" x="21" y="186.6357"/><text fill="#000000" font-family="sans-serif" font-size="12" lengthAdjust="spacing" textLength="182" x="31" y="207.7744">Ch&#7885;n ch&#432;&#417;ng truy&#7879;n mu&#7889;n &#273;&#7885;c</text><line style="stroke:#000000;stroke-width:1.5;" x1="15" x2="15" y1="12.7451" y2="316.5732"/><rect fill="#F1F1F1" height="33.9688" rx="12.5" ry="12.5" style="stroke:#181818;stroke-width:0.5;" width="163" x="256.5" y="132.667"/><text fill="#000000" font-family="sans-serif" font-size="12" lengthAdjust="spacing" textLength="143" x="266.5" y="153.8057">Hi&#7875;n th&#7883; th&#244;ng tin truy&#7879;n</text><rect fill="#F1F1F1" height="33.9688" rx="12.5" ry="12.5" style="stroke:#181818;stroke-width:0.5;" width="210" x="233" y="240.6045"/><text fill="#000000" font-family="sans-serif" font-size="12" lengthAdjust="spacing" textLength="190" x="243" y="261.7432">Hi&#7875;n th&#7883; n&#7897;i dung ch&#432;&#417;ng truy&#7879;n</text><ellipse cx="338" cy="305.5732" fill="none" rx="11" ry="11" style="stroke:#222222;stroke-width:1.0;"/><ellipse cx="338" cy="305.5732" fill="#222222" rx="6" ry="6" style="stroke:#222222;stroke-width:1.0;"/><line style="stroke:#000000;stroke-width:1.5;" x1="227" x2="227" y1="12.7451" y2="316.5732"/><line style="stroke:#000000;stroke-width:1.5;" x1="447" x2="447" y1="12.7451" y2="316.5732"/><line style="stroke:#181818;stroke-width:1.0;" x1="122" x2="122" y1="58.6982" y2="78.6982"/><polygon fill="#181818" points="118,68.6982,122,78.6982,126,68.6982,122,72.6982" style="stroke:#181818;stroke-width:1.0;"/><line style="stroke:#181818;stroke-width:1.0;" x1="338" x2="338" y1="274.5732" y2="294.5732"/><polygon fill="#181818" points="334,284.5732,338,294.5732,342,284.5732,338,288.5732" style="stroke:#181818;stroke-width:1.0;"/><line style="stroke:#181818;stroke-width:1.0;" x1="122" x2="122" y1="112.667" y2="117.667"/><line style="stroke:#181818;stroke-width:1.0;" x1="122" x2="338" y1="117.667" y2="117.667"/><line style="stroke:#181818;stroke-width:1.0;" x1="338" x2="338" y1="117.667" y2="132.667"/><polygon fill="#181818" points="334,122.667,338,132.667,342,122.667,338,126.667" style="stroke:#181818;stroke-width:1.0;"/><line style="stroke:#181818;stroke-width:1.0;" x1="338" x2="338" y1="166.6357" y2="171.6357"/><line style="stroke:#181818;stroke-width:1.0;" x1="338" x2="122" y1="171.6357" y2="171.6357"/><line style="stroke:#181818;stroke-width:1.0;" x1="122" x2="122" y1="171.6357" y2="186.6357"/><polygon fill="#181818" points="118,176.6357,122,186.6357,126,176.6357,122,180.6357" style="stroke:#181818;stroke-width:1.0;"/><line style="stroke:#181818;stroke-width:1.0;" x1="122" x2="122" y1="220.6045" y2="225.6045"/><line style="stroke:#181818;stroke-width:1.0;" x1="122" x2="338" y1="225.6045" y2="225.6045"/><line style="stroke:#181818;stroke-width:1.0;" x1="338" x2="338" y1="225.6045" y2="240.6045"/><polygon fill="#181818" points="334,230.6045,338,240.6045,342,230.6045,338,234.6045" style="stroke:#181818;stroke-width:1.0;"/><text fill="#000000" font-family="sans-serif" font-size="18" lengthAdjust="spacing" textLength="106" x="68" y="29.4531">Ng&#432;&#7901;i d&#249;ng</text><text fill="#000000" font-family="sans-serif" font-size="18" lengthAdjust="spacing" textLength="85" x="294.5" y="29.4531">H&#7879; th&#7889;ng</text><!--SRC=[g_5BFxRXuUwvcGefXtVcfTTm5PSa5fLmMJbdFDpTcwTGKbHQ-N1tUvv2Rkd3tHFp58vC10edMtFLU0155KeoG890JLOUcGztD-U11Rg1vE4jUUaA9Pa8_K0Tw1R1h4ZEEBRXs4AGUdBiodkuUoRGo5AWVWo3hBc0lial0000]--></g></svg>