<?xml version="1.0" encoding="us-ascii" standalone="no"?><svg xmlns="http://www.w3.org/2000/svg" xmlns:xlink="http://www.w3.org/1999/xlink" contentStyleType="text/css" height="406px" preserveAspectRatio="none" style="width:757px;height:406px;background:#FFFFFF;" version="1.1" viewBox="0 0 757 406" width="757px" zoomAndPan="magnify"><defs/><g><rect fill="none" height="20.9531" style="stroke:none;stroke-width:1.0;" width="724.75" x="15" y="12.7451"/><ellipse cx="200.25" cy="48.6982" fill="#222222" rx="10" ry="10" style="stroke:#222222;stroke-width:1.0;"/><rect fill="#F1F1F1" height="33.9688" rx="12.5" ry="12.5" style="stroke:#181818;stroke-width:0.5;" width="114" x="143.25" y="78.6982"/><text fill="#000000" font-family="sans-serif" font-size="12" lengthAdjust="spacing" textLength="94" x="153.25" y="99.8369">C&#7853;p nh&#7853;t truy&#7879;n</text><rect fill="#F1F1F1" height="33.9688" rx="12.5" ry="12.5" style="stroke:#181818;stroke-width:0.5;" width="169" x="115.75" y="132.667"/><text fill="#000000" font-family="sans-serif" font-size="12" lengthAdjust="spacing" textLength="149" x="125.75" y="153.8057">Thay &#273;&#7893;i th&#244;ng tin truy&#7879;n</text><rect fill="#F1F1F1" height="33.9688" rx="12.5" ry="12.5" style="stroke:#181818;stroke-width:0.5;" width="129" x="21" y="230.6357"/><text fill="#000000" font-family="sans-serif" font-size="12" lengthAdjust="spacing" textLength="109" x="31" y="251.7744">X&#225;c nh&#7853;n c&#7853;p nh&#7853;t</text><line style="stroke:#000000;stroke-width:1.5;" x1="15" x2="15" y1="12.7451" y2="394.5732"/><polygon fill="#F1F1F1" points="419.5,186.6357,553.5,186.6357,565.5,198.6357,553.5,210.6357,419.5,210.6357,407.5,198.6357,419.5,186.6357" style="stroke:#181818;stroke-width:0.5;"/><text fill="#000000" font-family="sans-serif" font-size="11" lengthAdjust="spacing" textLength="134" x="419.5" y="202.4438">Th&#244;ng tin truy&#7879;n h&#7907;p l&#7879;</text><text fill="#000000" font-family="sans-serif" font-size="11" lengthAdjust="spacing" textLength="21" x="386.5" y="196.0415">yes</text><text fill="#000000" font-family="sans-serif" font-size="11" lengthAdjust="spacing" textLength="14" x="565.5" y="196.0415">no</text><rect fill="#F1F1F1" height="33.9688" rx="12.5" ry="12.5" style="stroke:#181818;stroke-width:0.5;" width="154" x="294.75" y="284.6045"/><text fill="#000000" font-family="sans-serif" font-size="12" lengthAdjust="spacing" textLength="134" x="304.75" y="305.7432">C&#7853;p nh&#7853;t th&#244;ng tin m&#7899;i</text><rect fill="#F1F1F1" height="33.9688" rx="12.5" ry="12.5" style="stroke:#181818;stroke-width:0.5;" width="265" x="468.75" y="230.6357"/><text fill="#000000" font-family="sans-serif" font-size="12" lengthAdjust="spacing" textLength="245" x="478.75" y="251.7744">Th&#244;ng b&#225;o th&#244;ng tin truy&#7879;n kh&#244;ng h&#7907;p l&#7879;</text><polygon fill="#F1F1F1" points="486.5,328.5732,498.5,340.5732,486.5,352.5732,474.5,340.5732,486.5,328.5732" style="stroke:#181818;stroke-width:0.5;"/><ellipse cx="486.5" cy="383.5732" fill="none" rx="11" ry="11" style="stroke:#222222;stroke-width:1.0;"/><ellipse cx="486.5" cy="383.5732" fill="#222222" rx="6" ry="6" style="stroke:#222222;stroke-width:1.0;"/><line style="stroke:#000000;stroke-width:1.5;" x1="288.75" x2="288.75" y1="12.7451" y2="394.5732"/><line style="stroke:#000000;stroke-width:1.5;" x1="737.75" x2="737.75" y1="12.7451" y2="394.5732"/><line style="stroke:#181818;stroke-width:1.0;" x1="200.25" x2="200.25" y1="58.6982" y2="78.6982"/><polygon fill="#181818" points="196.25,68.6982,200.25,78.6982,204.25,68.6982,200.25,72.6982" style="stroke:#181818;stroke-width:1.0;"/><line style="stroke:#181818;stroke-width:1.0;" x1="200.25" x2="200.25" y1="112.667" y2="132.667"/><polygon fill="#181818" points="196.25,122.667,200.25,132.667,204.25,122.667,200.25,126.667" style="stroke:#181818;stroke-width:1.0;"/><line style="stroke:#181818;stroke-width:1.0;" x1="565.5" x2="601.25" y1="198.6357" y2="198.6357"/><line style="stroke:#181818;stroke-width:1.0;" x1="601.25" x2="601.25" y1="198.6357" y2="230.6357"/><polygon fill="#181818" points="597.25,220.6357,601.25,230.6357,605.25,220.6357,601.25,224.6357" style="stroke:#181818;stroke-width:1.0;"/><line style="stroke:#181818;stroke-width:1.0;" x1="371.75" x2="371.75" y1="318.5732" y2="340.5732"/><line style="stroke:#181818;stroke-width:1.0;" x1="371.75" x2="474.5" y1="340.5732" y2="340.5732"/><polygon fill="#181818" points="464.5,336.5732,474.5,340.5732,464.5,344.5732,468.5,340.5732" style="stroke:#181818;stroke-width:1.0;"/><line style="stroke:#181818;stroke-width:1.0;" x1="601.25" x2="601.25" y1="264.6045" y2="340.5732"/><line style="stroke:#181818;stroke-width:1.0;" x1="601.25" x2="498.5" y1="340.5732" y2="340.5732"/><polygon fill="#181818" points="508.5,336.5732,498.5,340.5732,508.5,344.5732,504.5,340.5732" style="stroke:#181818;stroke-width:1.0;"/><line style="stroke:#181818;stroke-width:1.0;" x1="486.5" x2="486.5" y1="352.5732" y2="372.5732"/><polygon fill="#181818" points="482.5,362.5732,486.5,372.5732,490.5,362.5732,486.5,366.5732" style="stroke:#181818;stroke-width:1.0;"/><line style="stroke:#181818;stroke-width:1.0;" x1="85.5" x2="85.5" y1="264.6045" y2="269.6045"/><line style="stroke:#181818;stroke-width:1.0;" x1="85.5" x2="371.75" y1="269.6045" y2="269.6045"/><line style="stroke:#181818;stroke-width:1.0;" x1="371.75" x2="371.75" y1="269.6045" y2="284.6045"/><polygon fill="#181818" points="367.75,274.6045,371.75,284.6045,375.75,274.6045,371.75,278.6045" style="stroke:#181818;stroke-width:1.0;"/><line style="stroke:#181818;stroke-width:1.0;" x1="407.5" x2="85.5" y1="198.6357" y2="198.6357"/><line style="stroke:#181818;stroke-width:1.0;" x1="85.5" x2="85.5" y1="198.6357" y2="230.6357"/><polygon fill="#181818" points="81.5,220.6357,85.5,230.6357,89.5,220.6357,85.5,224.6357" style="stroke:#181818;stroke-width:1.0;"/><line style="stroke:#181818;stroke-width:1.0;" x1="200.25" x2="200.25" y1="166.6357" y2="171.6357"/><line style="stroke:#181818;stroke-width:1.0;" x1="200.25" x2="486.5" y1="171.6357" y2="171.6357"/><line style="stroke:#181818;stroke-width:1.0;" x1="486.5" x2="486.5" y1="171.6357" y2="186.6357"/><polygon fill="#181818" points="482.5,176.6357,486.5,186.6357,490.5,176.6357,486.5,180.6357" style="stroke:#181818;stroke-width:1.0;"/><text fill="#000000" font-family="sans-serif" font-size="18" lengthAdjust="spacing" textLength="98" x="102.875" y="29.4531">Ng&#432;&#7901;i d&#7883;ch</text><text fill="#000000" font-family="sans-serif" font-size="18" lengthAdjust="spacing" textLength="85" x="470.75" y="29.4531">H&#7879; th&#7889;ng</text><!--SRC=[g_5BFxRXuUwvcGef3tTt9sVKA70LboGMbN1PEJ_SjRP08Iy3I9Keb1ILLZxStPvdpMKLaf5OgN1auiFTKpCLIZ8ERybBLoZ9p4DIKUC1f85I3tTFp4kluSfCqmZ1LAO0b5vSe903P6i2rQRcAMXKfXPhSjMWkuVBAkBmmcI8E_8Kaf4SXM4JcfCHbkO-t3qxqvehDQSuLK4ZBryJv0cmPDBXXVdOFA6G3H53E1AeEoz58JCD63hv1G00]--></g></svg>